{"glyphs":{"0":{"ha":886,"x_min":69,"x_max":817,"o":"m 443 -17 q 249 48 333 -17 q 117 226 165 113 q 69 486 69 339 q 117 747 69 633 q 249 924 165 860 q 443 989 333 989 q 637 924 553 989 q 769 747 721 860 q 817 486 817 633 q 769 226 817 339 q 637 48 721 113 q 443 -17 553 -17 m 443 64 q 591 118 526 64 q 692 267 656 172 q 728 486 728 363 q 692 705 728 610 q 591 854 656 800 q 443 908 526 908 q 295 854 360 908 q 194 705 231 800 q 158 486 158 610 q 194 267 158 363 q 295 118 231 172 q 443 64 360 64 z "},"1":{"ha":569,"x_min":90,"x_max":403,"o":"m 314 0 l 314 925 l 319 972 l 403 972 l 403 0 l 314 0 m 90 744 l 90 825 q 158 846 117 825 q 242 901 199 867 q 319 972 286 935 l 374 907 q 281 826 329 863 q 185 767 233 789 q 90 744 138 744 z "},"2":{"ha":765,"x_min":42,"x_max":675,"o":"m 83 0 l 83 81 q 99 172 83 128 q 147 259 115 217 q 228 340 179 301 l 450 508 q 515 571 488 536 q 556 643 542 606 q 571 715 571 681 q 544 812 571 768 q 472 882 518 856 q 363 908 425 908 q 253 885 300 908 q 175 823 206 861 q 132 742 144 785 l 42 761 q 101 873 58 821 q 210 957 144 925 q 354 989 275 989 q 516 953 447 989 q 623 855 585 917 q 661 715 661 793 q 623 577 661 644 q 507 444 585 510 l 294 282 q 203 185 233 235 q 172 81 172 135 l 675 81 l 675 0 l 83 0 z "},"3":{"ha":749,"x_min":93,"x_max":679,"o":"m 367 -17 q 249 3 301 -17 q 158 52 196 22 q 93 111 119 82 l 160 167 q 202 122 176 146 q 267 81 228 97 q 361 64 306 64 q 528 124 465 64 q 590 275 590 185 q 551 393 590 346 q 442 464 513 440 q 276 488 371 488 l 263 488 l 263 565 l 276 565 q 439 547 365 565 q 567 490 513 528 q 650 398 621 453 q 679 272 679 343 q 638 121 679 186 q 526 19 597 56 q 367 -17 456 -17 m 263 488 l 263 567 l 276 567 q 485 611 406 567 q 564 738 564 656 q 539 822 564 783 q 467 885 514 861 q 358 908 421 908 q 283 897 318 908 q 219 866 249 886 q 165 818 190 846 l 104 871 q 172 932 133 906 q 258 974 210 958 q 364 989 306 989 q 513 956 447 989 q 615 865 578 922 q 653 739 653 808 q 625 633 653 679 q 547 553 597 586 q 427 504 496 521 q 275 488 358 488 l 263 488 z "},"4":{"ha":856,"x_min":69,"x_max":814,"o":"m 517 0 l 517 253 l 69 253 l 69 321 l 517 972 l 604 972 l 604 335 l 814 335 l 814 253 l 604 253 l 604 0 l 517 0 m 179 335 l 517 335 l 517 829 l 179 335 z "},"5":{"ha":794,"x_min":90,"x_max":725,"o":"m 401 -17 q 290 -1 347 -17 q 180 47 232 14 q 90 135 128 81 l 153 189 q 272 92 210 122 q 401 61 335 61 q 573 126 507 61 q 639 294 639 190 q 575 465 639 400 q 408 529 511 529 q 298 506 353 529 q 213 446 243 482 l 132 465 l 174 972 l 681 972 l 681 892 l 256 892 l 226 553 q 314 592 267 578 q 408 607 361 607 q 572 567 501 607 q 684 457 643 528 q 725 294 725 386 q 683 133 725 203 q 569 23 642 63 q 401 -17 496 -17 z "},"6":{"ha":778,"x_min":67,"x_max":736,"o":"m 414 -17 q 245 22 313 -17 q 138 128 178 61 q 83 281 99 194 q 67 464 67 368 q 94 692 67 593 q 169 856 121 790 q 285 956 218 922 q 432 989 351 989 q 574 966 503 989 q 700 903 644 943 l 646 840 q 549 890 601 872 q 446 908 496 908 q 213 780 292 908 q 144 393 135 651 l 125 417 q 235 556 158 504 q 414 607 311 607 q 581 567 508 607 q 695 458 654 528 q 736 296 736 388 q 695 133 736 204 q 581 23 654 63 q 414 -17 508 -17 m 414 64 q 535 93 482 64 q 617 175 588 122 q 647 296 647 228 q 617 416 647 364 q 535 497 588 468 q 414 526 482 526 q 292 497 346 526 q 209 416 239 468 q 179 296 179 364 q 209 175 179 228 q 292 93 239 122 q 414 64 346 64 z "},"7":{"ha":736,"x_min":63,"x_max":694,"o":"m 107 0 l 619 933 l 694 892 l 206 0 l 107 0 m 63 892 l 63 972 l 694 972 l 694 892 l 643 892 l 63 892 z "},"8":{"ha":854,"x_min":83,"x_max":771,"o":"m 426 -17 q 249 17 326 -17 q 127 112 171 51 q 83 253 83 172 q 127 399 83 336 q 249 498 171 463 q 426 533 326 533 q 605 498 528 533 q 726 399 682 463 q 771 253 771 336 q 726 112 771 172 q 605 17 682 51 q 426 -17 528 -17 m 426 64 q 610 118 539 64 q 682 258 682 172 q 610 400 682 346 q 426 454 539 454 q 294 430 351 454 q 205 361 238 406 q 172 258 172 317 q 205 157 172 201 q 294 88 238 113 q 426 64 351 64 m 426 468 q 268 501 338 468 q 160 591 199 533 q 121 725 121 649 q 160 863 121 803 q 268 956 199 922 q 426 989 338 989 q 585 956 517 989 q 694 863 654 922 q 733 725 733 803 q 694 591 733 649 q 585 501 654 533 q 426 468 517 468 m 426 547 q 583 594 522 547 q 644 718 644 642 q 583 856 644 803 q 426 908 522 908 q 271 856 332 908 q 210 718 210 803 q 271 594 210 642 q 426 547 332 547 z "},"9":{"ha":778,"x_min":42,"x_max":711,"o":"m 364 989 q 533 950 467 989 q 640 844 600 911 q 695 691 679 778 q 711 508 711 604 q 684 281 711 379 q 608 116 657 182 q 493 17 560 50 q 346 -17 426 -17 q 204 6 275 -17 q 78 69 133 29 l 132 132 q 229 82 176 100 q 332 64 282 64 q 565 192 486 64 q 633 579 644 321 l 653 556 q 543 417 619 468 q 364 365 467 365 q 197 405 269 365 q 83 515 124 444 q 42 676 42 585 q 83 840 42 769 q 197 949 124 910 q 364 989 269 989 m 364 908 q 243 879 296 908 q 160 798 190 850 q 131 676 131 746 q 160 556 131 608 q 243 475 190 504 q 364 446 296 446 q 486 475 433 446 q 569 556 539 504 q 599 676 599 608 q 569 798 599 746 q 486 879 539 850 q 364 908 433 908 z "},"A":{"ha":919,"x_min":14,"x_max":906,"o":"m 811 0 l 414 972 l 506 972 l 906 0 l 811 0 m 14 0 l 414 972 l 506 972 l 108 0 l 14 0 m 203 301 l 203 382 l 717 382 l 717 301 l 203 301 z "},"Á":{"ha":919,"x_min":14,"x_max":906,"o":"m 811 0 l 414 972 l 506 972 l 906 0 l 811 0 m 14 0 l 414 972 l 506 972 l 108 0 l 14 0 m 203 301 l 203 382 l 717 382 l 717 301 l 203 301 m 374 1028 l 539 1194 l 657 1194 l 479 1028 l 374 1028 z "},"Ă":{"ha":919,"x_min":14,"x_max":906,"o":"m 811 0 l 414 972 l 506 972 l 906 0 l 811 0 m 14 0 l 414 972 l 506 972 l 108 0 l 14 0 m 203 301 l 203 382 l 717 382 l 717 301 l 203 301 m 460 1026 q 343 1049 394 1026 q 263 1114 292 1072 q 233 1208 233 1156 l 317 1208 q 357 1131 317 1161 q 460 1101 397 1101 q 562 1131 522 1101 q 601 1208 601 1161 l 685 1208 q 656 1114 685 1156 q 577 1049 628 1072 q 460 1026 526 1026 z "},"Ǎ":{"ha":919,"x_min":14,"x_max":906,"o":"m 811 0 l 414 972 l 506 972 l 906 0 l 811 0 m 14 0 l 414 972 l 506 972 l 108 0 l 14 0 m 203 301 l 203 382 l 717 382 l 717 301 l 203 301 m 407 1033 l 407 1035 l 576 1208 l 685 1208 l 518 1033 l 407 1033 m 400 1033 l 233 1208 l 342 1208 l 511 1035 l 511 1033 l 400 1033 z "},"Â":{"ha":919,"x_min":14,"x_max":906,"o":"m 811 0 l 414 972 l 506 972 l 906 0 l 811 0 m 14 0 l 414 972 l 506 972 l 108 0 l 14 0 m 203 301 l 203 382 l 717 382 l 717 301 l 203 301 m 579 1050 l 401 1224 l 401 1225 l 518 1225 l 685 1050 l 579 1050 m 233 1050 l 400 1225 l 517 1225 l 517 1224 l 339 1050 l 233 1050 z "},"Ä":{"ha":919,"x_min":14,"x_max":906,"o":"m 811 0 l 414 972 l 506 972 l 906 0 l 811 0 m 14 0 l 414 972 l 506 972 l 108 0 l 14 0 m 203 301 l 203 382 l 717 382 l 717 301 l 203 301 m 628 1111 q 589 1128 606 1111 q 572 1167 572 1144 q 589 1206 572 1190 q 628 1222 606 1222 q 667 1206 651 1222 q 683 1167 683 1190 q 667 1128 683 1144 q 628 1111 651 1111 m 292 1111 q 253 1128 269 1111 q 236 1167 236 1144 q 253 1206 236 1190 q 292 1222 269 1222 q 331 1206 315 1222 q 347 1167 347 1190 q 331 1128 347 1144 q 292 1111 315 1111 z "},"À":{"ha":919,"x_min":14,"x_max":906,"o":"m 811 0 l 414 972 l 506 972 l 906 0 l 811 0 m 14 0 l 414 972 l 506 972 l 108 0 l 14 0 m 203 301 l 203 382 l 717 382 l 717 301 l 203 301 m 497 1033 l 317 1210 l 435 1210 l 603 1033 l 497 1033 z "},"Ā":{"ha":919,"x_min":14,"x_max":906,"o":"m 811 0 l 414 972 l 506 972 l 906 0 l 811 0 m 14 0 l 414 972 l 506 972 l 108 0 l 14 0 m 203 301 l 203 382 l 717 382 l 717 301 l 203 301 m 251 1042 l 251 1121 l 668 1121 l 668 1042 l 251 1042 z "},"Ą":{"ha":919,"x_min":14,"x_max":929,"o":"m 811 0 l 414 972 l 506 972 l 906 0 l 811 0 m 14 0 l 414 972 l 506 972 l 108 0 l 14 0 m 203 301 l 203 382 l 717 382 l 717 301 l 203 301 m 836 -294 q 757 -281 790 -294 q 706 -240 724 -267 q 689 -172 689 -212 q 734 -72 689 -119 q 836 17 779 -25 l 906 0 q 815 -78 857 -36 q 772 -172 772 -121 q 787 -206 772 -194 q 828 -218 801 -218 q 875 -212 854 -218 q 903 -203 896 -206 l 929 -267 q 888 -287 911 -279 q 836 -294 864 -294 z "},"Å":{"ha":919,"x_min":14,"x_max":906,"o":"m 811 0 l 414 972 l 506 972 l 906 0 l 811 0 m 14 0 l 414 972 l 506 972 l 108 0 l 14 0 m 203 301 l 203 382 l 717 382 l 717 301 l 203 301 m 460 1019 q 399 1035 426 1019 q 354 1078 371 1051 q 338 1138 338 1106 q 354 1198 338 1171 q 399 1241 371 1225 q 460 1257 426 1257 q 521 1241 493 1257 q 565 1198 549 1225 q 581 1138 581 1171 q 565 1078 581 1106 q 521 1035 549 1051 q 460 1019 493 1019 m 460 1083 q 511 1138 511 1083 q 460 1193 511 1193 q 407 1138 407 1193 q 460 1083 407 1083 z "},"Ã":{"ha":919,"x_min":14,"x_max":906,"o":"m 811 0 l 414 972 l 506 972 l 906 0 l 811 0 m 14 0 l 414 972 l 506 972 l 108 0 l 14 0 m 203 301 l 203 382 l 717 382 l 717 301 l 203 301 m 574 1031 q 512 1046 536 1031 q 472 1081 488 1061 q 442 1115 456 1100 q 411 1131 428 1131 q 374 1119 386 1131 q 356 1079 363 1107 l 279 1079 q 299 1140 282 1110 q 344 1189 315 1169 q 411 1208 374 1208 q 468 1193 446 1208 q 507 1158 490 1178 q 539 1124 524 1139 q 574 1108 554 1108 q 610 1122 599 1108 q 626 1161 622 1135 l 703 1161 q 664 1072 697 1114 q 574 1031 631 1031 z "},"Æ":{"ha":1382,"x_min":14,"x_max":1257,"o":"m 14 0 l 622 972 l 1257 972 l 1257 892 l 786 892 l 786 542 l 1224 542 l 1224 461 l 786 461 l 786 81 l 1257 81 l 1257 0 l 697 0 l 697 301 l 301 301 l 114 0 l 14 0 m 351 382 l 697 382 l 697 892 l 669 892 l 351 382 z "},"B":{"ha":847,"x_min":139,"x_max":778,"o":"m 139 0 l 139 972 l 438 972 q 606 942 536 972 q 713 853 675 911 q 750 713 750 794 q 717 581 750 636 q 622 493 683 525 q 738 399 697 458 q 778 260 778 340 q 742 119 778 178 q 638 31 706 61 q 475 0 571 0 l 139 0 m 228 82 l 475 82 q 633 129 576 82 q 690 260 690 176 q 624 402 690 351 q 438 453 557 453 l 228 453 l 228 82 m 228 535 l 475 535 q 613 582 564 535 q 663 713 663 629 q 603 845 663 799 q 438 892 544 892 l 228 892 l 228 535 z "},"C":{"ha":999,"x_min":69,"x_max":943,"o":"m 540 -17 q 297 48 403 -17 q 130 226 190 113 q 69 486 69 339 q 129 747 69 633 q 294 924 189 860 q 536 989 400 989 q 697 959 618 989 q 839 876 775 929 q 938 753 903 822 l 864 707 q 783 812 835 767 q 667 883 731 857 q 536 908 603 908 q 341 854 426 908 q 207 705 256 800 q 158 486 158 610 q 207 265 158 361 q 342 115 256 169 q 540 61 429 61 q 672 90 608 61 q 788 168 736 118 q 869 282 840 218 l 943 236 q 844 105 907 163 q 701 15 781 47 q 540 -17 622 -17 z "},"Ć":{"ha":999,"x_min":69,"x_max":943,"o":"m 540 -17 q 297 48 403 -17 q 130 226 190 113 q 69 486 69 339 q 129 747 69 633 q 294 924 189 860 q 536 989 400 989 q 697 959 618 989 q 839 876 775 929 q 938 753 903 822 l 864 707 q 783 812 835 767 q 667 883 731 857 q 536 908 603 908 q 341 854 426 908 q 207 705 256 800 q 158 486 158 610 q 207 265 158 361 q 342 115 256 169 q 540 61 429 61 q 672 90 608 61 q 788 168 736 118 q 869 282 840 218 l 943 236 q 844 105 907 163 q 701 15 781 47 q 540 -17 622 -17 m 450 1033 l 615 1208 l 733 1208 l 556 1033 l 450 1033 z "},"Č":{"ha":999,"x_min":69,"x_max":943,"o":"m 540 -17 q 297 48 403 -17 q 130 226 190 113 q 69 486 69 339 q 129 747 69 633 q 294 924 189 860 q 536 989 400 989 q 697 959 618 989 q 839 876 775 929 q 938 753 903 822 l 864 707 q 783 812 835 767 q 667 883 731 857 q 536 908 603 908 q 341 854 426 908 q 207 705 256 800 q 158 486 158 610 q 207 265 158 361 q 342 115 256 169 q 540 61 429 61 q 672 90 608 61 q 788 168 736 118 q 869 282 840 218 l 943 236 q 844 105 907 163 q 701 15 781 47 q 540 -17 622 -17 m 483 1033 l 483 1035 l 653 1208 l 761 1208 l 594 1033 l 483 1033 m 476 1033 l 310 1208 l 418 1208 l 588 1035 l 588 1033 l 476 1033 z "},"Ç":{"ha":999,"x_min":69,"x_max":943,"o":"m 540 -17 q 297 48 403 -17 q 130 226 190 113 q 69 486 69 339 q 129 747 69 633 q 294 924 189 860 q 536 989 400 989 q 697 959 618 989 q 839 876 775 929 q 938 753 903 822 l 864 707 q 783 812 835 767 q 667 883 731 857 q 536 908 603 908 q 341 854 426 908 q 207 705 256 800 q 158 486 158 610 q 207 265 158 361 q 342 115 256 169 q 540 61 429 61 q 672 90 608 61 q 788 168 736 118 q 869 282 840 218 l 943 236 q 844 105 907 163 q 701 15 781 47 q 540 -17 622 -17 m 503 -292 q 447 -285 478 -292 q 371 -256 417 -279 l 397 -196 q 444 -217 419 -207 q 492 -228 469 -228 q 538 -217 517 -228 q 560 -174 560 -207 q 533 -116 560 -135 q 449 -87 506 -97 l 489 8 l 551 -11 l 536 -46 q 609 -98 589 -65 q 629 -167 629 -131 q 601 -255 629 -218 q 503 -292 572 -292 z "},"Ĉ":{"ha":999,"x_min":69,"x_max":943,"o":"m 540 -17 q 297 48 403 -17 q 130 226 190 113 q 69 486 69 339 q 129 747 69 633 q 294 924 189 860 q 536 989 400 989 q 697 959 618 989 q 839 876 775 929 q 938 753 903 822 l 864 707 q 783 812 835 767 q 667 883 731 857 q 536 908 603 908 q 341 854 426 908 q 207 705 256 800 q 158 486 158 610 q 207 265 158 361 q 342 115 256 169 q 540 61 429 61 q 672 90 608 61 q 788 168 736 118 q 869 282 840 218 l 943 236 q 844 105 907 163 q 701 15 781 47 q 540 -17 622 -17 m 656 1050 l 478 1224 l 478 1225 l 594 1225 l 761 1050 l 656 1050 m 310 1050 l 476 1225 l 593 1225 l 593 1224 l 415 1050 l 310 1050 z "},"Ċ":{"ha":999,"x_min":69,"x_max":943,"o":"m 540 -17 q 297 48 403 -17 q 130 226 190 113 q 69 486 69 339 q 129 747 69 633 q 294 924 189 860 q 536 989 400 989 q 697 959 618 989 q 839 876 775 929 q 938 753 903 822 l 864 707 q 783 812 835 767 q 667 883 731 857 q 536 908 603 908 q 341 854 426 908 q 207 705 256 800 q 158 486 158 610 q 207 265 158 361 q 342 115 256 169 q 540 61 429 61 q 672 90 608 61 q 788 168 736 118 q 869 282 840 218 l 943 236 q 844 105 907 163 q 701 15 781 47 q 540 -17 622 -17 m 536 1111 q 497 1128 514 1111 q 481 1167 481 1144 q 497 1206 481 1190 q 536 1222 514 1222 q 576 1206 560 1222 q 592 1167 592 1190 q 576 1128 592 1144 q 536 1111 560 1111 z "},"D":{"ha":949,"x_min":139,"x_max":879,"o":"m 139 0 l 139 972 l 429 972 q 663 910 561 972 q 822 739 764 849 q 879 486 879 629 q 822 235 879 344 q 663 63 764 125 q 429 0 561 0 l 139 0 m 228 81 l 429 81 q 569 112 504 81 q 685 199 635 143 q 763 329 735 256 q 790 486 790 403 q 763 643 790 569 q 685 773 735 717 q 569 860 635 829 q 429 892 504 892 l 228 892 l 228 81 z "},"Ď":{"ha":949,"x_min":139,"x_max":879,"o":"m 139 0 l 139 972 l 429 972 q 663 910 561 972 q 822 739 764 849 q 879 486 879 629 q 822 235 879 344 q 663 63 764 125 q 429 0 561 0 l 139 0 m 228 81 l 429 81 q 569 112 504 81 q 685 199 635 143 q 763 329 735 256 q 790 486 790 403 q 763 643 790 569 q 685 773 735 717 q 569 860 635 829 q 429 892 504 892 l 228 892 l 228 81 m 375 1033 l 375 1035 l 544 1208 l 653 1208 l 486 1033 l 375 1033 m 368 1033 l 201 1208 l 310 1208 l 479 1035 l 479 1033 l 368 1033 z "},"Đ":{"ha":1046,"x_min":111,"x_max":976,"o":"m 111 444 l 111 525 l 549 525 l 549 444 l 111 444 m 236 0 l 236 972 l 526 972 q 760 910 658 972 q 919 739 861 849 q 976 486 976 629 q 919 235 976 344 q 760 63 861 125 q 526 0 658 0 l 236 0 m 325 81 l 526 81 q 667 112 601 81 q 782 199 732 143 q 860 329 832 256 q 888 486 888 403 q 860 643 888 569 q 782 773 832 717 q 667 860 732 829 q 526 892 601 892 l 325 892 l 325 81 z "},"Ð":{"ha":1046,"x_min":111,"x_max":976,"o":"m 111 444 l 111 525 l 549 525 l 549 444 l 111 444 m 236 0 l 236 972 l 526 972 q 760 910 658 972 q 919 739 861 849 q 976 486 976 629 q 919 235 976 344 q 760 63 861 125 q 526 0 658 0 l 236 0 m 325 81 l 526 81 q 667 112 601 81 q 782 199 732 143 q 860 329 832 256 q 888 486 888 403 q 860 643 888 569 q 782 773 832 717 q 667 860 732 829 q 526 892 601 892 l 325 892 l 325 81 z "},"E":{"ha":824,"x_min":139,"x_max":699,"o":"m 139 0 l 139 972 l 699 972 l 699 892 l 228 892 l 228 542 l 665 542 l 665 461 l 228 461 l 228 81 l 699 81 l 699 0 l 139 0 z "},"É":{"ha":824,"x_min":139,"x_max":699,"o":"m 139 0 l 139 972 l 699 972 l 699 892 l 228 892 l 228 542 l 665 542 l 665 461 l 228 461 l 228 81 l 699 81 l 699 0 l 139 0 m 342 1028 l 507 1194 l 625 1194 l 447 1028 l 342 1028 z "},"Ě":{"ha":824,"x_min":139,"x_max":699,"o":"m 139 0 l 139 972 l 699 972 l 699 892 l 228 892 l 228 542 l 665 542 l 665 461 l 228 461 l 228 81 l 699 81 l 699 0 l 139 0 m 375 1033 l 375 1035 l 544 1208 l 653 1208 l 486 1033 l 375 1033 m 368 1033 l 201 1208 l 310 1208 l 479 1035 l 479 1033 l 368 1033 z "},"Ê":{"ha":824,"x_min":139,"x_max":699,"o":"m 139 0 l 139 972 l 699 972 l 699 892 l 228 892 l 228 542 l 665 542 l 665 461 l 228 461 l 228 81 l 699 81 l 699 0 l 139 0 m 547 1050 l 369 1224 l 369 1225 l 486 1225 l 653 1050 l 547 1050 m 201 1050 l 368 1225 l 485 1225 l 485 1224 l 307 1050 l 201 1050 z "},"Ë":{"ha":824,"x_min":139,"x_max":699,"o":"m 139 0 l 139 972 l 699 972 l 699 892 l 228 892 l 228 542 l 665 542 l 665 461 l 228 461 l 228 81 l 699 81 l 699 0 l 139 0 m 596 1111 q 557 1128 574 1111 q 540 1167 540 1144 q 557 1206 540 1190 q 596 1222 574 1222 q 635 1206 619 1222 q 651 1167 651 1190 q 635 1128 651 1144 q 596 1111 619 1111 m 260 1111 q 221 1128 238 1111 q 204 1167 204 1144 q 221 1206 204 1190 q 260 1222 238 1222 q 299 1206 283 1222 q 315 1167 315 1190 q 299 1128 315 1144 q 260 1111 283 1111 z "},"Ė":{"ha":824,"x_min":139,"x_max":699,"o":"m 139 0 l 139 972 l 699 972 l 699 892 l 228 892 l 228 542 l 665 542 l 665 461 l 228 461 l 228 81 l 699 81 l 699 0 l 139 0 m 428 1111 q 389 1128 406 1111 q 372 1167 372 1144 q 389 1206 372 1190 q 428 1222 406 1222 q 467 1206 451 1222 q 483 1167 483 1190 q 467 1128 483 1144 q 428 1111 451 1111 z "},"È":{"ha":824,"x_min":139,"x_max":699,"o":"m 139 0 l 139 972 l 699 972 l 699 892 l 228 892 l 228 542 l 665 542 l 665 461 l 228 461 l 228 81 l 699 81 l 699 0 l 139 0 m 465 1033 l 285 1210 l 403 1210 l 571 1033 l 465 1033 z "},"Ē":{"ha":824,"x_min":139,"x_max":699,"o":"m 139 0 l 139 972 l 699 972 l 699 892 l 228 892 l 228 542 l 665 542 l 665 461 l 228 461 l 228 81 l 699 81 l 699 0 l 139 0 m 219 1042 l 219 1121 l 636 1121 l 636 1042 l 219 1042 z "},"Ę":{"ha":824,"x_min":139,"x_max":722,"o":"m 139 0 l 139 972 l 699 972 l 699 892 l 228 892 l 228 542 l 665 542 l 665 461 l 228 461 l 228 81 l 699 81 l 699 0 l 139 0 m 629 -294 q 550 -281 583 -294 q 499 -240 517 -267 q 482 -172 482 -212 q 527 -72 482 -119 q 629 17 572 -25 l 699 0 q 608 -78 650 -36 q 565 -172 565 -121 q 580 -206 565 -194 q 621 -218 594 -218 q 668 -212 647 -218 q 696 -203 689 -206 l 722 -267 q 681 -287 704 -279 q 629 -294 657 -294 z "},"F":{"ha":749,"x_min":139,"x_max":699,"o":"m 139 0 l 139 972 l 699 972 l 699 892 l 228 892 l 228 521 l 651 521 l 651 440 l 228 440 l 228 0 l 139 0 z "},"G":{"ha":1065,"x_min":69,"x_max":1010,"o":"m 574 -17 q 313 48 426 -17 q 134 226 199 113 q 69 485 69 339 q 134 747 69 633 q 313 924 199 860 q 574 989 426 989 q 721 964 647 989 q 856 895 794 939 q 956 794 918 851 l 888 743 q 806 829 857 792 q 695 888 756 867 q 574 908 635 908 q 359 854 453 908 q 212 705 265 800 q 158 485 158 610 q 212 267 158 363 q 359 118 265 172 q 574 64 453 64 q 754 107 675 64 q 878 227 833 150 q 924 404 924 304 l 1010 404 q 954 187 1010 282 q 800 38 899 92 q 574 -17 701 -17 m 679 404 l 679 486 l 1010 486 l 1010 404 l 971 404 l 679 404 z "},"Ğ":{"ha":1065,"x_min":69,"x_max":1010,"o":"m 574 -17 q 313 48 426 -17 q 134 226 199 113 q 69 485 69 339 q 134 747 69 633 q 313 924 199 860 q 574 989 426 989 q 721 964 647 989 q 856 895 794 939 q 956 794 918 851 l 888 743 q 806 829 857 792 q 695 888 756 867 q 574 908 635 908 q 359 854 453 908 q 212 705 265 800 q 158 485 158 610 q 212 267 158 363 q 359 118 265 172 q 574 64 453 64 q 754 107 675 64 q 878 227 833 150 q 924 404 924 304 l 1010 404 q 954 187 1010 282 q 800 38 899 92 q 574 -17 701 -17 m 679 404 l 679 486 l 1010 486 l 1010 404 l 971 404 l 679 404 m 533 1068 q 417 1091 468 1068 q 336 1156 365 1114 q 307 1250 307 1197 l 390 1250 q 431 1173 390 1203 q 533 1143 471 1143 q 635 1173 596 1143 q 675 1250 675 1203 l 758 1250 q 730 1156 758 1197 q 651 1091 701 1114 q 533 1068 600 1068 z "},"Ĝ":{"ha":1065,"x_min":69,"x_max":1010,"o":"m 574 -17 q 313 48 426 -17 q 134 226 199 113 q 69 485 69 339 q 134 747 69 633 q 313 924 199 860 q 574 989 426 989 q 721 964 647 989 q 856 895 794 939 q 956 794 918 851 l 888 743 q 806 829 857 792 q 695 888 756 867 q 574 908 635 908 q 359 854 453 908 q 212 705 265 800 q 158 485 158 610 q 212 267 158 363 q 359 118 265 172 q 574 64 453 64 q 754 107 675 64 q 878 227 833 150 q 924 404 924 304 l 1010 404 q 954 187 1010 282 q 800 38 899 92 q 574 -17 701 -17 m 679 404 l 679 486 l 1010 486 l 1010 404 l 971 404 l 679 404 m 660 1051 l 482 1225 l 482 1226 l 599 1226 l 765 1051 l 660 1051 m 314 1051 l 481 1226 l 597 1226 l 597 1225 l 419 1051 l 314 1051 z "},"Ģ":{"ha":1065,"x_min":69,"x_max":1010,"o":"m 574 -17 q 313 48 426 -17 q 134 226 199 113 q 69 485 69 339 q 134 747 69 633 q 313 924 199 860 q 574 989 426 989 q 721 964 647 989 q 856 895 794 939 q 956 794 918 851 l 888 743 q 806 829 857 792 q 695 888 756 867 q 574 908 635 908 q 359 854 453 908 q 212 705 265 800 q 158 485 158 610 q 212 267 158 363 q 359 118 265 172 q 574 64 453 64 q 754 107 675 64 q 878 227 833 150 q 924 404 924 304 l 1010 404 q 954 187 1010 282 q 800 38 899 92 q 574 -17 701 -17 m 679 404 l 679 486 l 1010 486 l 1010 404 l 971 404 l 679 404 m 467 -278 l 531 -89 l 629 -89 l 544 -278 l 467 -278 z "},"Ġ":{"ha":1065,"x_min":69,"x_max":1010,"o":"m 574 -17 q 313 48 426 -17 q 134 226 199 113 q 69 485 69 339 q 134 747 69 633 q 313 924 199 860 q 574 989 426 989 q 721 964 647 989 q 856 895 794 939 q 956 794 918 851 l 888 743 q 806 829 857 792 q 695 888 756 867 q 574 908 635 908 q 359 854 453 908 q 212 705 265 800 q 158 485 158 610 q 212 267 158 363 q 359 118 265 172 q 574 64 453 64 q 754 107 675 64 q 878 227 833 150 q 924 404 924 304 l 1010 404 q 954 187 1010 282 q 800 38 899 92 q 574 -17 701 -17 m 679 404 l 679 486 l 1010 486 l 1010 404 l 971 404 l 679 404 m 533 1153 q 494 1169 511 1153 q 478 1208 478 1186 q 494 1248 478 1232 q 533 1264 511 1264 q 573 1248 557 1264 q 589 1208 589 1232 q 573 1169 589 1186 q 533 1153 557 1153 z "},"H":{"ha":1044,"x_min":139,"x_max":906,"o":"m 817 0 l 817 972 l 906 972 l 906 0 l 817 0 m 139 0 l 139 972 l 228 972 l 228 0 l 139 0 m 228 461 l 228 542 l 817 542 l 817 461 l 228 461 z "},"Ħ":{"ha":1044,"x_min":7,"x_max":1038,"o":"m 7 694 l 7 775 l 1038 775 l 1038 694 l 7 694 m 817 0 l 817 972 l 906 972 l 906 0 l 817 0 m 139 0 l 139 972 l 228 972 l 228 0 l 139 0 m 228 461 l 228 542 l 817 542 l 817 461 l 228 461 z "},"Ĥ":{"ha":1044,"x_min":139,"x_max":906,"o":"m 817 0 l 817 972 l 906 972 l 906 0 l 817 0 m 139 0 l 139 972 l 228 972 l 228 0 l 139 0 m 228 461 l 228 542 l 817 542 l 817 461 l 228 461 m 643 1050 l 465 1224 l 465 1225 l 582 1225 l 749 1050 l 643 1050 m 297 1050 l 464 1225 l 581 1225 l 581 1224 l 403 1050 l 297 1050 z "},"I":{"ha":367,"x_min":139,"x_max":228,"o":"m 139 0 l 139 972 l 228 972 l 228 0 l 139 0 z "},"Ĳ":{"ha":1061,"x_min":139,"x_max":936,"o":"m 139 0 l 139 972 l 228 972 l 228 0 l 139 0 m 622 -15 q 542 -4 579 -15 q 474 26 506 7 q 419 73 443 46 q 375 132 394 100 l 438 181 q 513 99 468 132 q 622 65 558 65 q 727 91 675 65 q 813 176 779 117 q 847 336 847 236 l 847 972 l 936 972 l 936 294 q 908 157 936 215 q 835 60 881 99 q 733 3 789 22 q 622 -15 678 -15 z "},"Í":{"ha":367,"x_min":97,"x_max":381,"o":"m 139 0 l 139 972 l 228 972 l 228 0 l 139 0 m 97 1028 l 263 1194 l 381 1194 l 203 1028 l 97 1028 z "},"Î":{"ha":367,"x_min":-43,"x_max":408,"o":"m 139 0 l 139 972 l 228 972 l 228 0 l 139 0 m 303 1050 l 125 1224 l 125 1225 l 242 1225 l 408 1050 l 303 1050 m -43 1050 l 124 1225 l 240 1225 l 240 1224 l 63 1050 l -43 1050 z "},"Ï":{"ha":367,"x_min":44,"x_max":324,"o":"m 268 1111 q 229 1128 246 1111 q 213 1167 213 1144 q 229 1206 213 1190 q 268 1222 246 1222 q 308 1206 292 1222 q 324 1167 324 1190 q 308 1128 324 1144 q 268 1111 292 1111 m 100 1111 q 61 1128 78 1111 q 44 1167 44 1144 q 61 1206 44 1190 q 100 1222 78 1222 q 140 1206 124 1222 q 156 1167 156 1190 q 140 1128 156 1144 q 100 1111 124 1111 m 139 0 l 139 972 l 228 972 l 228 0 l 139 0 z "},"İ":{"ha":367,"x_min":128,"x_max":239,"o":"m 139 0 l 139 972 l 228 972 l 228 0 l 139 0 m 183 1111 q 144 1128 161 1111 q 128 1167 128 1144 q 144 1206 128 1190 q 183 1222 161 1222 q 223 1206 207 1222 q 239 1167 239 1190 q 223 1128 239 1144 q 183 1111 207 1111 z "},"Ì":{"ha":367,"x_min":40,"x_max":326,"o":"m 139 0 l 139 972 l 228 972 l 228 0 l 139 0 m 221 1033 l 40 1210 l 158 1210 l 326 1033 l 221 1033 z "},"Ī":{"ha":367,"x_min":-25,"x_max":392,"o":"m 139 0 l 139 972 l 228 972 l 228 0 l 139 0 m -25 1042 l -25 1121 l 392 1121 l 392 1042 l -25 1042 z "},"Į":{"ha":367,"x_min":11,"x_max":251,"o":"m 139 0 l 139 972 l 228 972 l 228 0 l 139 0 m 158 -294 q 79 -281 113 -294 q 28 -240 46 -267 q 11 -172 11 -212 q 56 -72 11 -119 q 158 17 101 -25 l 228 0 q 137 -78 179 -36 q 94 -172 94 -121 q 109 -206 94 -194 q 150 -218 124 -218 q 197 -212 176 -218 q 225 -203 218 -206 l 251 -267 q 210 -287 233 -279 q 158 -294 186 -294 z "},"J":{"ha":694,"x_min":8,"x_max":569,"o":"m 256 -15 q 176 -4 213 -15 q 108 26 139 7 q 52 73 76 46 q 8 132 28 100 l 71 181 q 147 99 101 132 q 256 65 192 65 q 360 91 308 65 q 447 176 413 117 q 481 336 481 236 l 481 972 l 569 972 l 569 294 q 542 157 569 215 q 468 60 514 99 q 367 3 422 22 q 256 -15 311 -15 z "},"Ĵ":{"ha":694,"x_min":8,"x_max":750,"o":"m 256 -15 q 176 -4 213 -15 q 108 26 139 7 q 52 73 76 46 q 8 132 28 100 l 71 181 q 147 99 101 132 q 256 65 192 65 q 360 91 308 65 q 447 176 413 117 q 481 336 481 236 l 481 972 l 569 972 l 569 294 q 542 157 569 215 q 468 60 514 99 q 367 3 422 22 q 256 -15 311 -15 m 644 1050 l 467 1224 l 467 1225 l 583 1225 l 750 1050 l 644 1050 m 299 1050 l 465 1225 l 582 1225 l 582 1224 l 404 1050 l 299 1050 z "},"K":{"ha":817,"x_min":139,"x_max":810,"o":"m 207 367 l 150 424 l 682 972 l 790 972 l 207 367 m 139 0 l 139 972 l 222 972 l 222 0 l 139 0 m 703 0 l 299 494 l 353 554 l 810 0 l 703 0 z "},"Ķ":{"ha":817,"x_min":139,"x_max":810,"o":"m 207 367 l 150 424 l 682 972 l 790 972 l 207 367 m 139 0 l 139 972 l 222 972 l 222 0 l 139 0 m 703 0 l 299 494 l 353 554 l 810 0 l 703 0 m 301 -278 l 365 -89 l 464 -89 l 379 -278 l 301 -278 z "},"L":{"ha":713,"x_min":139,"x_max":699,"o":"m 139 0 l 139 972 l 228 972 l 228 81 l 699 81 l 699 0 l 139 0 z "},"Ĺ":{"ha":713,"x_min":97,"x_max":699,"o":"m 139 0 l 139 972 l 228 972 l 228 81 l 699 81 l 699 0 l 139 0 m 97 1033 l 263 1208 l 381 1208 l 203 1033 l 97 1033 z "},"Ľ":{"ha":713,"x_min":139,"x_max":699,"o":"m 139 0 l 139 972 l 228 972 l 228 81 l 699 81 l 699 0 l 139 0 m 315 814 l 392 1053 l 490 1053 l 393 814 l 315 814 z "},"Ļ":{"ha":713,"x_min":139,"x_max":699,"o":"m 139 0 l 139 972 l 228 972 l 228 81 l 699 81 l 699 0 l 139 0 m 288 -278 l 351 -89 l 450 -89 l 365 -278 l 288 -278 z "},"Ł":{"ha":713,"x_min":6,"x_max":699,"o":"m 6 369 l 6 450 l 392 622 l 392 542 l 6 369 m 139 0 l 139 972 l 228 972 l 228 81 l 699 81 l 699 0 l 139 0 z "},"M":{"ha":1168,"x_min":139,"x_max":1029,"o":"m 139 0 l 139 972 l 228 972 l 585 444 l 940 972 l 1029 972 l 1029 0 l 940 0 l 940 825 l 583 293 l 228 822 l 228 0 l 139 0 z "},"N":{"ha":1075,"x_min":139,"x_max":936,"o":"m 139 0 l 139 972 l 228 972 l 847 143 l 847 972 l 936 972 l 936 0 l 847 0 l 228 831 l 228 0 l 139 0 z "},"Ń":{"ha":1075,"x_min":139,"x_max":936,"o":"m 139 0 l 139 972 l 228 972 l 847 143 l 847 972 l 936 972 l 936 0 l 847 0 l 228 831 l 228 0 l 139 0 m 443 1033 l 608 1208 l 726 1208 l 549 1033 l 443 1033 z "},"Ň":{"ha":1075,"x_min":139,"x_max":936,"o":"m 139 0 l 139 972 l 228 972 l 847 143 l 847 972 l 936 972 l 936 0 l 847 0 l 228 831 l 228 0 l 139 0 m 476 1033 l 476 1035 l 646 1208 l 754 1208 l 588 1033 l 476 1033 m 469 1033 l 303 1208 l 411 1208 l 581 1035 l 581 1033 l 469 1033 z "},"Ņ":{"ha":1075,"x_min":139,"x_max":936,"o":"m 139 0 l 139 972 l 228 972 l 847 143 l 847 972 l 936 972 l 936 0 l 847 0 l 228 831 l 228 0 l 139 0 m 431 -278 l 494 -89 l 593 -89 l 508 -278 l 431 -278 z "},"Ñ":{"ha":1075,"x_min":139,"x_max":936,"o":"m 139 0 l 139 972 l 228 972 l 847 143 l 847 972 l 936 972 l 936 0 l 847 0 l 228 831 l 228 0 l 139 0 m 643 1031 q 581 1046 606 1031 q 541 1081 557 1061 q 511 1115 525 1100 q 481 1131 497 1131 q 444 1119 456 1131 q 425 1079 432 1107 l 349 1079 q 368 1140 351 1110 q 414 1189 385 1169 q 481 1208 443 1208 q 538 1193 515 1208 q 576 1158 560 1178 q 608 1124 593 1139 q 643 1108 624 1108 q 680 1122 668 1108 q 696 1161 692 1135 l 772 1161 q 733 1072 767 1114 q 643 1031 700 1031 z "},"Ŋ":{"ha":1075,"x_min":139,"x_max":936,"o":"m 740 -294 q 617 -261 699 -294 l 647 -190 q 708 -211 683 -204 q 747 -218 733 -218 q 853 -83 853 -218 l 853 699 l 936 699 l 936 -83 q 888 -242 936 -189 q 740 -294 839 -294 m 139 0 l 139 972 l 228 972 l 847 143 l 847 972 l 936 972 l 936 0 l 847 0 l 228 831 l 228 0 l 139 0 z "},"O":{"ha":1072,"x_min":69,"x_max":1003,"o":"m 540 -17 q 297 47 403 -17 q 130 225 190 111 q 69 486 69 339 q 129 748 69 635 q 294 925 189 861 q 536 989 399 989 q 779 924 674 989 q 944 747 885 860 q 1003 486 1003 633 q 944 225 1003 339 q 781 47 885 111 q 540 -17 676 -17 m 540 64 q 734 118 650 64 q 866 267 818 172 q 914 486 914 363 q 865 705 914 610 q 732 854 817 800 q 536 908 647 908 q 341 854 426 908 q 207 705 256 800 q 158 486 158 610 q 207 267 158 363 q 342 118 256 172 q 540 64 429 64 z "},"Ó":{"ha":1072,"x_min":69,"x_max":1003,"o":"m 540 -17 q 297 47 403 -17 q 130 225 190 111 q 69 486 69 339 q 129 748 69 635 q 294 925 189 861 q 536 989 399 989 q 779 924 674 989 q 944 747 885 860 q 1003 486 1003 633 q 944 225 1003 339 q 781 47 885 111 q 540 -17 676 -17 m 540 64 q 734 118 650 64 q 866 267 818 172 q 914 486 914 363 q 865 705 914 610 q 732 854 817 800 q 536 908 647 908 q 341 854 426 908 q 207 705 256 800 q 158 486 158 610 q 207 267 158 363 q 342 118 256 172 q 540 64 429 64 m 446 1028 l 619 1194 l 744 1194 l 557 1028 l 446 1028 z "},"Ô":{"ha":1072,"x_min":69,"x_max":1003,"o":"m 540 -17 q 297 47 403 -17 q 130 225 190 111 q 69 486 69 339 q 129 748 69 635 q 294 925 189 861 q 536 989 399 989 q 779 924 674 989 q 944 747 885 860 q 1003 486 1003 633 q 944 225 1003 339 q 781 47 885 111 q 540 -17 676 -17 m 540 64 q 734 118 650 64 q 866 267 818 172 q 914 486 914 363 q 865 705 914 610 q 732 854 817 800 q 536 908 647 908 q 341 854 426 908 q 207 705 256 800 q 158 486 158 610 q 207 267 158 363 q 342 118 256 172 q 540 64 429 64 m 656 1050 l 478 1224 l 478 1225 l 594 1225 l 761 1050 l 656 1050 m 310 1050 l 476 1225 l 593 1225 l 593 1224 l 415 1050 l 310 1050 z "},"Ö":{"ha":1072,"x_min":69,"x_max":1003,"o":"m 540 -17 q 297 47 403 -17 q 130 225 190 111 q 69 486 69 339 q 129 748 69 635 q 294 925 189 861 q 536 989 399 989 q 779 924 674 989 q 944 747 885 860 q 1003 486 1003 633 q 944 225 1003 339 q 781 47 885 111 q 540 -17 676 -17 m 540 64 q 734 118 650 64 q 866 267 818 172 q 914 486 914 363 q 865 705 914 610 q 732 854 817 800 q 536 908 647 908 q 341 854 426 908 q 207 705 256 800 q 158 486 158 610 q 207 267 158 363 q 342 118 256 172 q 540 64 429 64 m 704 1111 q 665 1128 682 1111 q 649 1167 649 1144 q 665 1206 649 1190 q 704 1222 682 1222 q 744 1206 728 1222 q 760 1167 760 1190 q 744 1128 760 1144 q 704 1111 728 1111 m 368 1111 q 329 1128 346 1111 q 313 1167 313 1144 q 329 1206 313 1190 q 368 1222 346 1222 q 408 1206 392 1222 q 424 1167 424 1190 q 408 1128 424 1144 q 368 1111 392 1111 z "},"Ò":{"ha":1072,"x_min":69,"x_max":1003,"o":"m 540 -17 q 297 47 403 -17 q 130 225 190 111 q 69 486 69 339 q 129 748 69 635 q 294 925 189 861 q 536 989 399 989 q 779 924 674 989 q 944 747 885 860 q 1003 486 1003 633 q 944 225 1003 339 q 781 47 885 111 q 540 -17 676 -17 m 540 64 q 734 118 650 64 q 866 267 818 172 q 914 486 914 363 q 865 705 914 610 q 732 854 817 800 q 536 908 647 908 q 341 854 426 908 q 207 705 256 800 q 158 486 158 610 q 207 267 158 363 q 342 118 256 172 q 540 64 429 64 m 574 1033 l 393 1210 l 511 1210 l 679 1033 l 574 1033 z "},"Ő":{"ha":1072,"x_min":69,"x_max":1003,"o":"m 540 -17 q 297 47 403 -17 q 130 225 190 111 q 69 486 69 339 q 129 748 69 635 q 294 925 189 861 q 536 989 399 989 q 779 924 674 989 q 944 747 885 860 q 1003 486 1003 633 q 944 225 1003 339 q 781 47 885 111 q 540 -17 676 -17 m 540 64 q 734 118 650 64 q 866 267 818 172 q 914 486 914 363 q 865 705 914 610 q 732 854 817 800 q 536 908 647 908 q 341 854 426 908 q 207 705 256 800 q 158 486 158 610 q 207 267 158 363 q 342 118 256 172 q 540 64 429 64 m 575 1033 l 713 1208 l 836 1208 l 686 1033 l 575 1033 m 339 1033 l 476 1208 l 600 1208 l 450 1033 l 339 1033 z "},"Ō":{"ha":1072,"x_min":69,"x_max":1003,"o":"m 540 -17 q 297 47 403 -17 q 130 225 190 111 q 69 486 69 339 q 129 748 69 635 q 294 925 189 861 q 536 989 399 989 q 779 924 674 989 q 944 747 885 860 q 1003 486 1003 633 q 944 225 1003 339 q 781 47 885 111 q 540 -17 676 -17 m 540 64 q 734 118 650 64 q 866 267 818 172 q 914 486 914 363 q 865 705 914 610 q 732 854 817 800 q 536 908 647 908 q 341 854 426 908 q 207 705 256 800 q 158 486 158 610 q 207 267 158 363 q 342 118 256 172 q 540 64 429 64 m 279 1042 l 279 1121 l 792 1121 l 792 1042 l 279 1042 z "},"Ø":{"ha":1085,"x_min":63,"x_max":1022,"o":"m 63 0 l 913 972 l 1022 972 l 171 0 l 63 0 m 547 -17 q 303 47 410 -17 q 137 225 197 111 q 76 486 76 339 q 136 748 76 635 q 301 925 196 861 q 543 989 406 989 q 786 924 681 989 q 951 747 892 860 q 1010 486 1010 633 q 951 225 1010 339 q 788 47 892 111 q 547 -17 683 -17 m 547 64 q 741 118 657 64 q 873 267 825 172 q 921 486 921 363 q 872 705 921 610 q 739 854 824 800 q 543 908 654 908 q 348 854 433 908 q 214 705 263 800 q 165 486 165 610 q 214 267 165 363 q 349 118 263 172 q 547 64 436 64 z "},"Õ":{"ha":1072,"x_min":69,"x_max":1003,"o":"m 540 -17 q 297 47 403 -17 q 130 225 190 111 q 69 486 69 339 q 129 748 69 635 q 294 925 189 861 q 536 989 399 989 q 779 924 674 989 q 944 747 885 860 q 1003 486 1003 633 q 944 225 1003 339 q 781 47 885 111 q 540 -17 676 -17 m 540 64 q 734 118 650 64 q 866 267 818 172 q 914 486 914 363 q 865 705 914 610 q 732 854 817 800 q 536 908 647 908 q 341 854 426 908 q 207 705 256 800 q 158 486 158 610 q 207 267 158 363 q 342 118 256 172 q 540 64 429 64 m 650 1031 q 588 1046 613 1031 q 548 1081 564 1061 q 518 1115 532 1100 q 488 1131 504 1131 q 451 1119 463 1131 q 432 1079 439 1107 l 356 1079 q 375 1140 358 1110 q 421 1189 392 1169 q 488 1208 450 1208 q 544 1193 522 1208 q 583 1158 567 1178 q 615 1124 600 1139 q 650 1108 631 1108 q 687 1122 675 1108 q 703 1161 699 1135 l 779 1161 q 740 1072 774 1114 q 650 1031 707 1031 z "},"Œ":{"ha":1583,"x_min":69,"x_max":1458,"o":"m 540 -22 q 297 42 403 -22 q 130 222 190 107 q 69 486 69 336 q 129 751 69 636 q 294 930 189 865 q 536 994 399 994 q 765 935 665 994 q 919 763 864 876 q 975 486 975 649 q 919 210 975 324 q 766 37 864 96 q 540 -22 668 -22 m 540 58 q 726 108 646 58 q 853 252 807 157 q 899 486 899 347 q 852 720 899 625 q 724 865 806 815 q 536 914 642 914 q 341 859 426 914 q 207 708 256 804 q 158 486 158 611 q 207 265 158 361 q 342 113 256 168 q 540 58 429 58 m 899 0 l 899 972 l 1458 972 l 1458 892 l 988 892 l 988 542 l 1425 542 l 1425 461 l 988 461 l 988 81 l 1458 81 l 1458 0 l 899 0 z "},"P":{"ha":792,"x_min":139,"x_max":750,"o":"m 139 0 l 139 972 l 438 972 q 600 934 529 972 q 710 828 671 896 q 750 671 750 760 q 715 515 750 583 q 617 408 679 447 q 475 369 556 369 l 228 369 l 228 0 l 139 0 m 228 451 l 475 451 q 610 513 557 451 q 663 671 663 574 q 599 831 663 769 q 438 892 536 892 l 228 892 l 228 451 z "},"Þ":{"ha":792,"x_min":139,"x_max":750,"o":"m 228 201 l 228 283 l 475 283 q 610 344 557 283 q 663 503 663 406 q 599 663 663 601 q 438 724 536 724 l 228 724 l 228 804 l 438 804 q 600 766 529 804 q 710 660 671 728 q 750 503 750 592 q 715 347 750 415 q 617 240 679 279 q 475 201 556 201 l 228 201 m 139 1 l 139 974 l 228 974 l 228 1 l 139 1 z "},"Q":{"ha":1078,"x_min":69,"x_max":1008,"o":"m 540 -17 q 297 47 403 -17 q 130 225 190 111 q 69 486 69 339 q 103 690 69 597 q 200 849 138 782 q 348 952 263 915 q 536 989 433 989 q 779 924 674 989 q 944 747 885 860 q 1003 486 1003 633 q 944 225 1003 339 q 781 47 885 111 q 540 -17 676 -17 m 950 -53 l 607 293 l 668 351 l 1008 7 l 950 -53 m 540 64 q 734 118 650 64 q 866 267 818 172 q 914 486 914 363 q 865 705 914 610 q 732 854 817 800 q 536 908 647 908 q 341 854 426 908 q 207 705 256 800 q 158 486 158 610 q 207 267 158 363 q 342 118 256 172 q 540 64 429 64 z "},"R":{"ha":858,"x_min":139,"x_max":789,"o":"m 139 0 l 139 972 l 438 972 q 600 935 529 972 q 710 834 671 899 q 750 685 750 769 q 706 536 750 601 q 588 434 663 471 q 419 397 513 397 l 228 397 l 228 0 l 139 0 m 692 0 l 456 403 l 529 446 l 789 0 l 692 0 m 228 479 l 461 479 q 562 506 517 479 q 635 578 607 532 q 663 685 663 625 q 599 834 663 776 q 438 892 536 892 l 228 892 l 228 479 z "},"Ŕ":{"ha":858,"x_min":139,"x_max":789,"o":"m 139 0 l 139 972 l 438 972 q 600 935 529 972 q 710 834 671 899 q 750 685 750 769 q 706 536 750 601 q 588 434 663 471 q 419 397 513 397 l 228 397 l 228 0 l 139 0 m 692 0 l 456 403 l 529 446 l 789 0 l 692 0 m 228 479 l 461 479 q 562 506 517 479 q 635 578 607 532 q 663 685 663 625 q 599 834 663 776 q 438 892 536 892 l 228 892 l 228 479 m 314 1033 l 479 1208 l 597 1208 l 419 1033 l 314 1033 z "},"Ř":{"ha":858,"x_min":139,"x_max":789,"o":"m 139 0 l 139 972 l 438 972 q 600 935 529 972 q 710 834 671 899 q 750 685 750 769 q 706 536 750 601 q 588 434 663 471 q 419 397 513 397 l 228 397 l 228 0 l 139 0 m 692 0 l 456 403 l 529 446 l 789 0 l 692 0 m 228 479 l 461 479 q 562 506 517 479 q 635 578 607 532 q 663 685 663 625 q 599 834 663 776 q 438 892 536 892 l 228 892 l 228 479 m 347 1033 l 347 1035 l 517 1208 l 625 1208 l 458 1033 l 347 1033 m 340 1033 l 174 1208 l 282 1208 l 451 1035 l 451 1033 l 340 1033 z "},"Ŗ":{"ha":858,"x_min":139,"x_max":789,"o":"m 139 0 l 139 972 l 438 972 q 600 935 529 972 q 710 834 671 899 q 750 685 750 769 q 706 536 750 601 q 588 434 663 471 q 419 397 513 397 l 228 397 l 228 0 l 139 0 m 692 0 l 456 403 l 529 446 l 789 0 l 692 0 m 228 479 l 461 479 q 562 506 517 479 q 635 578 607 532 q 663 685 663 625 q 599 834 663 776 q 438 892 536 892 l 228 892 l 228 479 m 322 -278 l 386 -89 l 485 -89 l 400 -278 l 322 -278 z "},"S":{"ha":857,"x_min":76,"x_max":781,"o":"m 443 -17 q 299 1 361 -17 q 193 49 238 18 q 120 117 149 79 q 76 196 92 154 l 160 228 q 253 113 183 163 q 422 64 322 64 q 621 113 550 64 q 692 243 692 163 q 626 367 692 321 q 457 440 561 414 l 358 465 q 240 513 294 482 q 151 593 185 544 q 118 713 118 642 q 201 916 118 843 q 444 989 285 989 q 610 956 540 989 q 722 876 679 924 q 778 779 764 828 l 696 747 q 597 866 665 824 q 431 908 528 908 q 267 858 328 908 q 207 724 207 808 q 254 609 207 647 q 378 551 301 571 l 476 528 q 702 417 624 493 q 781 256 781 342 q 743 120 781 182 q 631 21 706 58 q 443 -17 556 -17 z "},"Ś":{"ha":857,"x_min":76,"x_max":781,"o":"m 443 -17 q 299 1 361 -17 q 193 49 238 18 q 120 117 149 79 q 76 196 92 154 l 160 228 q 253 113 183 163 q 422 64 322 64 q 621 113 550 64 q 692 243 692 163 q 626 367 692 321 q 457 440 561 414 l 358 465 q 240 513 294 482 q 151 593 185 544 q 118 713 118 642 q 201 916 118 843 q 444 989 285 989 q 610 956 540 989 q 722 876 679 924 q 778 779 764 828 l 696 747 q 597 866 665 824 q 431 908 528 908 q 267 858 328 908 q 207 724 207 808 q 254 609 207 647 q 378 551 301 571 l 476 528 q 702 417 624 493 q 781 256 781 342 q 743 120 781 182 q 631 21 706 58 q 443 -17 556 -17 m 358 1033 l 524 1208 l 642 1208 l 464 1033 l 358 1033 z "},"Š":{"ha":857,"x_min":76,"x_max":781,"o":"m 443 -17 q 299 1 361 -17 q 193 49 238 18 q 120 117 149 79 q 76 196 92 154 l 160 228 q 253 113 183 163 q 422 64 322 64 q 621 113 550 64 q 692 243 692 163 q 626 367 692 321 q 457 440 561 414 l 358 465 q 240 513 294 482 q 151 593 185 544 q 118 713 118 642 q 201 916 118 843 q 444 989 285 989 q 610 956 540 989 q 722 876 679 924 q 778 779 764 828 l 696 747 q 597 866 665 824 q 431 908 528 908 q 267 858 328 908 q 207 724 207 808 q 254 609 207 647 q 378 551 301 571 l 476 528 q 702 417 624 493 q 781 256 781 342 q 743 120 781 182 q 631 21 706 58 q 443 -17 556 -17 m 392 1033 l 392 1035 l 561 1208 l 669 1208 l 503 1033 l 392 1033 m 385 1033 l 218 1208 l 326 1208 l 496 1035 l 496 1033 l 385 1033 z "},"Ş":{"ha":857,"x_min":76,"x_max":781,"o":"m 443 -17 q 299 1 361 -17 q 193 49 238 18 q 120 117 149 79 q 76 196 92 154 l 160 228 q 253 113 183 163 q 422 64 322 64 q 621 113 550 64 q 692 243 692 163 q 626 367 692 321 q 457 440 561 414 l 358 465 q 240 513 294 482 q 151 593 185 544 q 118 713 118 642 q 201 916 118 843 q 444 989 285 989 q 610 956 540 989 q 722 876 679 924 q 778 779 764 828 l 696 747 q 597 866 665 824 q 431 908 528 908 q 267 858 328 908 q 207 724 207 808 q 254 609 207 647 q 378 551 301 571 l 476 528 q 702 417 624 493 q 781 256 781 342 q 743 120 781 182 q 631 21 706 58 q 443 -17 556 -17 m 406 -292 q 350 -285 381 -292 q 274 -256 319 -279 l 300 -196 q 347 -217 322 -207 q 394 -228 372 -228 q 441 -217 419 -228 q 463 -174 463 -207 q 435 -116 463 -135 q 351 -87 408 -97 l 392 8 l 454 -11 l 439 -46 q 512 -98 492 -65 q 532 -167 532 -131 q 503 -255 532 -218 q 406 -292 475 -292 z "},"Ŝ":{"ha":857,"x_min":76,"x_max":781,"o":"m 443 -17 q 299 1 361 -17 q 193 49 238 18 q 120 117 149 79 q 76 196 92 154 l 160 228 q 253 113 183 163 q 422 64 322 64 q 621 113 550 64 q 692 243 692 163 q 626 367 692 321 q 457 440 561 414 l 358 465 q 240 513 294 482 q 151 593 185 544 q 118 713 118 642 q 201 916 118 843 q 444 989 285 989 q 610 956 540 989 q 722 876 679 924 q 778 779 764 828 l 696 747 q 597 866 665 824 q 431 908 528 908 q 267 858 328 908 q 207 724 207 808 q 254 609 207 647 q 378 551 301 571 l 476 528 q 702 417 624 493 q 781 256 781 342 q 743 120 781 182 q 631 21 706 58 q 443 -17 556 -17 m 564 1050 l 386 1224 l 386 1225 l 503 1225 l 669 1050 l 564 1050 m 218 1050 l 385 1225 l 501 1225 l 501 1224 l 324 1050 l 218 1050 z "},"Ș":{"ha":857,"x_min":76,"x_max":781,"o":"m 443 -17 q 299 1 361 -17 q 193 49 238 18 q 120 117 149 79 q 76 196 92 154 l 160 228 q 253 113 183 163 q 422 64 322 64 q 621 113 550 64 q 692 243 692 163 q 626 367 692 321 q 457 440 561 414 l 358 465 q 240 513 294 482 q 151 593 185 544 q 118 713 118 642 q 201 916 118 843 q 444 989 285 989 q 610 956 540 989 q 722 876 679 924 q 778 779 764 828 l 696 747 q 597 866 665 824 q 431 908 528 908 q 267 858 328 908 q 207 724 207 808 q 254 609 207 647 q 378 551 301 571 l 476 528 q 702 417 624 493 q 781 256 781 342 q 743 120 781 182 q 631 21 706 58 q 443 -17 556 -17 m 336 -278 l 400 -89 l 499 -89 l 414 -278 l 336 -278 z "},"ẞ":{"ha":776,"x_min":139,"x_max":707,"o":"m 429 -17 q 357 -2 403 -17 q 271 56 311 13 l 333 111 q 369 83 344 103 q 440 64 393 64 q 574 115 531 64 q 618 254 618 165 q 566 393 618 343 q 422 443 514 443 l 338 443 l 338 531 l 594 826 q 522 884 567 860 q 403 908 478 908 q 271 863 314 908 q 228 736 228 817 l 228 0 l 139 0 l 139 750 q 206 926 139 864 q 410 989 274 989 q 560 961 501 989 q 653 895 618 933 q 707 828 688 857 l 442 524 q 637 448 567 518 q 707 254 707 378 q 636 55 707 126 q 429 -17 565 -17 z "},"T":{"ha":750,"x_min":14,"x_max":736,"o":"m 331 0 l 331 892 l 14 892 l 14 972 l 736 972 l 736 892 l 419 892 l 419 0 l 331 0 z "},"Ť":{"ha":750,"x_min":14,"x_max":736,"o":"m 331 0 l 331 892 l 14 892 l 14 972 l 736 972 l 736 892 l 419 892 l 419 0 l 331 0 m 322 1033 l 322 1035 l 492 1208 l 600 1208 l 433 1033 l 322 1033 m 315 1033 l 149 1208 l 257 1208 l 426 1035 l 426 1033 l 315 1033 z "},"Ț":{"ha":750,"x_min":14,"x_max":736,"o":"m 331 0 l 331 892 l 14 892 l 14 972 l 736 972 l 736 892 l 419 892 l 419 0 l 331 0 m 268 -278 l 332 -89 l 431 -89 l 346 -278 l 268 -278 z "},"U":{"ha":985,"x_min":125,"x_max":860,"o":"m 489 -22 q 301 24 383 -22 q 172 153 218 71 q 125 340 125 235 l 125 972 l 214 972 l 214 340 q 249 194 214 258 q 348 94 285 131 q 492 58 411 58 q 637 94 574 58 q 735 194 700 131 q 771 340 771 258 l 771 972 l 860 972 l 860 340 q 813 153 860 235 q 681 24 765 71 q 489 -22 597 -22 z "},"Ú":{"ha":985,"x_min":125,"x_max":860,"o":"m 489 -22 q 301 24 383 -22 q 172 153 218 71 q 125 340 125 235 l 125 972 l 214 972 l 214 340 q 249 194 214 258 q 348 94 285 131 q 492 58 411 58 q 637 94 574 58 q 735 194 700 131 q 771 340 771 258 l 771 972 l 860 972 l 860 340 q 813 153 860 235 q 681 24 765 71 q 489 -22 597 -22 m 407 1033 l 572 1208 l 690 1208 l 513 1033 l 407 1033 z "},"Ŭ":{"ha":985,"x_min":125,"x_max":860,"o":"m 489 -22 q 301 24 383 -22 q 172 153 218 71 q 125 340 125 235 l 125 972 l 214 972 l 214 340 q 249 194 214 258 q 348 94 285 131 q 492 58 411 58 q 637 94 574 58 q 735 194 700 131 q 771 340 771 258 l 771 972 l 860 972 l 860 340 q 813 153 860 235 q 681 24 765 71 q 489 -22 597 -22 m 493 1026 q 376 1049 428 1026 q 296 1114 325 1072 q 267 1208 267 1156 l 350 1208 q 390 1131 350 1161 q 493 1101 431 1101 q 595 1131 556 1101 q 635 1208 635 1161 l 718 1208 q 690 1114 718 1156 q 610 1049 661 1072 q 493 1026 560 1026 z "},"Û":{"ha":985,"x_min":125,"x_max":860,"o":"m 489 -22 q 301 24 383 -22 q 172 153 218 71 q 125 340 125 235 l 125 972 l 214 972 l 214 340 q 249 194 214 258 q 348 94 285 131 q 492 58 411 58 q 637 94 574 58 q 735 194 700 131 q 771 340 771 258 l 771 972 l 860 972 l 860 340 q 813 153 860 235 q 681 24 765 71 q 489 -22 597 -22 m 613 1050 l 435 1224 l 435 1225 l 551 1225 l 718 1050 l 613 1050 m 267 1050 l 433 1225 l 550 1225 l 550 1224 l 372 1050 l 267 1050 z "},"Ü":{"ha":985,"x_min":125,"x_max":860,"o":"m 489 -22 q 301 24 383 -22 q 172 153 218 71 q 125 340 125 235 l 125 972 l 214 972 l 214 340 q 249 194 214 258 q 348 94 285 131 q 492 58 411 58 q 637 94 574 58 q 735 194 700 131 q 771 340 771 258 l 771 972 l 860 972 l 860 340 q 813 153 860 235 q 681 24 765 71 q 489 -22 597 -22 m 661 1111 q 622 1128 639 1111 q 606 1167 606 1144 q 622 1206 606 1190 q 661 1222 639 1222 q 701 1206 685 1222 q 717 1167 717 1190 q 701 1128 717 1144 q 661 1111 685 1111 m 325 1111 q 286 1128 303 1111 q 269 1167 269 1144 q 286 1206 269 1190 q 325 1222 303 1222 q 365 1206 349 1222 q 381 1167 381 1190 q 365 1128 381 1144 q 325 1111 349 1111 z "},"Ù":{"ha":985,"x_min":125,"x_max":860,"o":"m 489 -22 q 301 24 383 -22 q 172 153 218 71 q 125 340 125 235 l 125 972 l 214 972 l 214 340 q 249 194 214 258 q 348 94 285 131 q 492 58 411 58 q 637 94 574 58 q 735 194 700 131 q 771 340 771 258 l 771 972 l 860 972 l 860 340 q 813 153 860 235 q 681 24 765 71 q 489 -22 597 -22 m 531 1033 l 350 1210 l 468 1210 l 636 1033 l 531 1033 z "},"Ű":{"ha":985,"x_min":125,"x_max":860,"o":"m 489 -22 q 301 24 383 -22 q 172 153 218 71 q 125 340 125 235 l 125 972 l 214 972 l 214 340 q 249 194 214 258 q 348 94 285 131 q 492 58 411 58 q 637 94 574 58 q 735 194 700 131 q 771 340 771 258 l 771 972 l 860 972 l 860 340 q 813 153 860 235 q 681 24 765 71 q 489 -22 597 -22 m 532 1033 l 669 1208 l 793 1208 l 643 1033 l 532 1033 m 296 1033 l 433 1208 l 557 1208 l 407 1033 l 296 1033 z "},"Ū":{"ha":985,"x_min":125,"x_max":860,"o":"m 489 -22 q 301 24 383 -22 q 172 153 218 71 q 125 340 125 235 l 125 972 l 214 972 l 214 340 q 249 194 214 258 q 348 94 285 131 q 492 58 411 58 q 637 94 574 58 q 735 194 700 131 q 771 340 771 258 l 771 972 l 860 972 l 860 340 q 813 153 860 235 q 681 24 765 71 q 489 -22 597 -22 m 285 1042 l 285 1121 l 701 1121 l 701 1042 l 285 1042 z "},"Ų":{"ha":985,"x_min":125,"x_max":860,"o":"m 489 -22 q 301 24 383 -22 q 172 153 218 71 q 125 340 125 235 l 125 972 l 214 972 l 214 340 q 249 194 214 258 q 348 94 285 131 q 492 58 411 58 q 637 94 574 58 q 735 194 700 131 q 771 340 771 258 l 771 972 l 860 972 l 860 340 q 813 153 860 235 q 681 24 765 71 q 489 -22 597 -22 m 731 -271 q 642 -256 679 -271 q 586 -215 606 -242 q 567 -150 567 -187 q 585 -65 567 -106 q 639 10 604 -25 q 722 71 674 46 l 744 69 q 690 9 711 42 q 660 -58 669 -24 q 650 -124 650 -92 q 669 -176 650 -157 q 721 -194 688 -194 q 771 -190 746 -194 q 814 -179 796 -186 l 840 -243 q 787 -264 815 -257 q 731 -271 758 -271 z "},"Ů":{"ha":985,"x_min":125,"x_max":860,"o":"m 489 -22 q 301 24 383 -22 q 172 153 218 71 q 125 340 125 235 l 125 972 l 214 972 l 214 340 q 249 194 214 258 q 348 94 285 131 q 492 58 411 58 q 637 94 574 58 q 735 194 700 131 q 771 340 771 258 l 771 972 l 860 972 l 860 340 q 813 153 860 235 q 681 24 765 71 q 489 -22 597 -22 m 493 1019 q 432 1035 460 1019 q 388 1078 404 1051 q 371 1138 371 1106 q 388 1198 371 1171 q 432 1241 404 1225 q 493 1257 460 1257 q 554 1241 526 1257 q 598 1198 582 1225 q 614 1138 614 1171 q 598 1078 614 1106 q 554 1035 582 1051 q 493 1019 526 1019 m 493 1083 q 544 1138 544 1083 q 493 1193 544 1193 q 440 1138 440 1193 q 493 1083 440 1083 z "},"V":{"ha":946,"x_min":14,"x_max":932,"o":"m 431 0 l 839 972 l 932 972 l 522 0 l 431 0 m 422 0 l 14 972 l 106 972 l 513 0 l 422 0 z "},"W":{"ha":1319,"x_min":14,"x_max":1306,"o":"m 908 0 l 1217 972 l 1306 972 l 999 0 l 908 0 m 314 0 l 14 972 l 103 972 l 404 0 l 314 0 m 321 0 l 615 972 l 704 972 l 411 0 l 321 0 m 901 0 l 615 972 l 704 972 l 992 0 l 901 0 z "},"Ẃ":{"ha":1319,"x_min":14,"x_max":1306,"o":"m 908 0 l 1217 972 l 1306 972 l 999 0 l 908 0 m 314 0 l 14 972 l 103 972 l 404 0 l 314 0 m 321 0 l 615 972 l 704 972 l 411 0 l 321 0 m 901 0 l 615 972 l 704 972 l 992 0 l 901 0 m 574 1033 l 739 1208 l 857 1208 l 679 1033 l 574 1033 z "},"Ŵ":{"ha":1319,"x_min":14,"x_max":1306,"o":"m 908 0 l 1217 972 l 1306 972 l 999 0 l 908 0 m 314 0 l 14 972 l 103 972 l 404 0 l 314 0 m 321 0 l 615 972 l 704 972 l 411 0 l 321 0 m 901 0 l 615 972 l 704 972 l 992 0 l 901 0 m 779 1050 l 601 1224 l 601 1225 l 718 1225 l 885 1050 l 779 1050 m 433 1050 l 600 1225 l 717 1225 l 717 1224 l 539 1050 l 433 1050 z "},"Ẅ":{"ha":1319,"x_min":14,"x_max":1306,"o":"m 908 0 l 1217 972 l 1306 972 l 999 0 l 908 0 m 314 0 l 14 972 l 103 972 l 404 0 l 314 0 m 321 0 l 615 972 l 704 972 l 411 0 l 321 0 m 901 0 l 615 972 l 704 972 l 992 0 l 901 0 m 828 1111 q 789 1128 806 1111 q 772 1167 772 1144 q 789 1206 772 1190 q 828 1222 806 1222 q 867 1206 851 1222 q 883 1167 883 1190 q 867 1128 883 1144 q 828 1111 851 1111 m 492 1111 q 453 1128 469 1111 q 436 1167 436 1144 q 453 1206 436 1190 q 492 1222 469 1222 q 531 1206 515 1222 q 547 1167 547 1190 q 531 1128 547 1144 q 492 1111 515 1111 z "},"Ẁ":{"ha":1319,"x_min":14,"x_max":1306,"o":"m 908 0 l 1217 972 l 1306 972 l 999 0 l 908 0 m 314 0 l 14 972 l 103 972 l 404 0 l 314 0 m 321 0 l 615 972 l 704 972 l 411 0 l 321 0 m 901 0 l 615 972 l 704 972 l 992 0 l 901 0 m 697 1033 l 517 1210 l 635 1210 l 803 1033 l 697 1033 z "},"X":{"ha":818,"x_min":14,"x_max":804,"o":"m 14 0 l 389 535 l 699 972 l 804 972 l 435 458 l 122 0 l 14 0 m 696 0 l 383 458 l 14 972 l 119 972 l 429 535 l 804 0 l 696 0 z "},"Y":{"ha":817,"x_min":14,"x_max":803,"o":"m 453 406 l 382 456 l 699 972 l 803 972 l 453 406 m 364 0 l 364 467 l 453 467 l 453 0 l 364 0 m 364 406 l 14 972 l 118 972 l 435 456 l 364 406 z "},"Ý":{"ha":817,"x_min":14,"x_max":803,"o":"m 453 406 l 382 456 l 699 972 l 803 972 l 453 406 m 364 0 l 364 467 l 453 467 l 453 0 l 364 0 m 364 406 l 14 972 l 118 972 l 435 456 l 364 406 m 322 1033 l 488 1208 l 606 1208 l 428 1033 l 322 1033 z "},"Ŷ":{"ha":817,"x_min":14,"x_max":803,"o":"m 453 406 l 382 456 l 699 972 l 803 972 l 453 406 m 364 0 l 364 467 l 453 467 l 453 0 l 364 0 m 364 406 l 14 972 l 118 972 l 435 456 l 364 406 m 528 1050 l 350 1224 l 350 1225 l 467 1225 l 633 1050 l 528 1050 m 182 1050 l 349 1225 l 465 1225 l 465 1224 l 288 1050 l 182 1050 z "},"Ÿ":{"ha":817,"x_min":14,"x_max":803,"o":"m 453 406 l 382 456 l 699 972 l 803 972 l 453 406 m 364 0 l 364 467 l 453 467 l 453 0 l 364 0 m 364 406 l 14 972 l 118 972 l 435 456 l 364 406 m 576 1111 q 538 1128 554 1111 q 521 1167 521 1144 q 538 1206 521 1190 q 576 1222 554 1222 q 616 1206 600 1222 q 632 1167 632 1190 q 616 1128 632 1144 q 576 1111 600 1111 m 240 1111 q 201 1128 218 1111 q 185 1167 185 1144 q 201 1206 185 1190 q 240 1222 218 1222 q 280 1206 264 1222 q 296 1167 296 1190 q 280 1128 296 1144 q 240 1111 264 1111 z "},"Ỳ":{"ha":817,"x_min":14,"x_max":803,"o":"m 453 406 l 382 456 l 699 972 l 803 972 l 453 406 m 364 0 l 364 467 l 453 467 l 453 0 l 364 0 m 364 406 l 14 972 l 118 972 l 435 456 l 364 406 m 446 1033 l 265 1210 l 383 1210 l 551 1033 l 446 1033 z "},"Z":{"ha":894,"x_min":69,"x_max":825,"o":"m 69 0 l 69 81 l 715 892 l 74 892 l 74 972 l 825 972 l 825 892 l 179 81 l 821 81 l 821 0 l 69 0 z "},"Ź":{"ha":894,"x_min":69,"x_max":825,"o":"m 69 0 l 69 81 l 715 892 l 74 892 l 74 972 l 825 972 l 825 892 l 179 81 l 821 81 l 821 0 l 69 0 m 363 1033 l 528 1208 l 646 1208 l 468 1033 l 363 1033 z "},"Ž":{"ha":894,"x_min":69,"x_max":825,"o":"m 69 0 l 69 81 l 715 892 l 74 892 l 74 972 l 825 972 l 825 892 l 179 81 l 821 81 l 821 0 l 69 0 m 396 1033 l 396 1035 l 565 1208 l 674 1208 l 507 1033 l 396 1033 m 389 1033 l 222 1208 l 331 1208 l 500 1035 l 500 1033 l 389 1033 z "},"Ż":{"ha":894,"x_min":69,"x_max":825,"o":"m 69 0 l 69 81 l 715 892 l 74 892 l 74 972 l 825 972 l 825 892 l 179 81 l 821 81 l 821 0 l 69 0 m 449 1111 q 410 1128 426 1111 q 393 1167 393 1144 q 410 1206 393 1190 q 449 1222 426 1222 q 488 1206 472 1222 q 504 1167 504 1190 q 488 1128 504 1144 q 449 1111 472 1111 z "},"a":{"ha":696,"x_min":63,"x_max":613,"o":"m 536 0 l 529 104 l 529 372 q 509 519 529 461 q 447 606 489 576 q 336 635 404 635 q 231 610 274 635 q 161 532 189 585 l 86 565 q 152 647 115 615 q 235 695 189 679 q 336 711 281 711 q 490 674 429 711 q 582 561 551 636 q 613 372 613 486 l 613 0 l 536 0 m 322 -17 q 131 40 200 -17 q 63 196 63 96 q 131 356 63 299 q 322 413 200 413 l 531 413 l 531 336 l 333 336 q 190 299 233 336 q 146 196 146 263 q 191 96 146 132 q 317 60 236 60 q 431 87 383 60 q 504 167 479 114 q 529 297 529 219 l 578 297 q 510 69 578 156 q 322 -17 443 -17 z "},"á":{"ha":696,"x_min":63,"x_max":613,"o":"m 536 0 l 529 104 l 529 372 q 509 519 529 461 q 447 606 489 576 q 336 635 404 635 q 231 610 274 635 q 161 532 189 585 l 86 565 q 152 647 115 615 q 235 695 189 679 q 336 711 281 711 q 490 674 429 711 q 582 561 551 636 q 613 372 613 486 l 613 0 l 536 0 m 322 -17 q 131 40 200 -17 q 63 196 63 96 q 131 356 63 299 q 322 413 200 413 l 531 413 l 531 336 l 333 336 q 190 299 233 336 q 146 196 146 263 q 191 96 146 132 q 317 60 236 60 q 431 87 383 60 q 504 167 479 114 q 529 297 529 219 l 578 297 q 510 69 578 156 q 322 -17 443 -17 m 264 797 l 429 972 l 547 972 l 369 797 l 264 797 z "},"ă":{"ha":696,"x_min":63,"x_max":613,"o":"m 536 0 l 529 104 l 529 372 q 509 519 529 461 q 447 606 489 576 q 336 635 404 635 q 231 610 274 635 q 161 532 189 585 l 86 565 q 152 647 115 615 q 235 695 189 679 q 336 711 281 711 q 490 674 429 711 q 582 561 551 636 q 613 372 613 486 l 613 0 l 536 0 m 322 -17 q 131 40 200 -17 q 63 196 63 96 q 131 356 63 299 q 322 413 200 413 l 531 413 l 531 336 l 333 336 q 190 299 233 336 q 146 196 146 263 q 191 96 146 132 q 317 60 236 60 q 431 87 383 60 q 504 167 479 114 q 529 297 529 219 l 578 297 q 510 69 578 156 q 322 -17 443 -17 m 350 790 q 233 813 285 790 q 153 878 182 836 q 124 972 124 919 l 207 972 q 247 895 207 925 q 350 865 288 865 q 452 895 413 865 q 492 972 492 925 l 575 972 q 547 878 575 919 q 467 813 518 836 q 350 790 417 790 z "},"ǎ":{"ha":696,"x_min":63,"x_max":613,"o":"m 536 0 l 529 104 l 529 372 q 509 519 529 461 q 447 606 489 576 q 336 635 404 635 q 231 610 274 635 q 161 532 189 585 l 86 565 q 152 647 115 615 q 235 695 189 679 q 336 711 281 711 q 490 674 429 711 q 582 561 551 636 q 613 372 613 486 l 613 0 l 536 0 m 322 -17 q 131 40 200 -17 q 63 196 63 96 q 131 356 63 299 q 322 413 200 413 l 531 413 l 531 336 l 333 336 q 190 299 233 336 q 146 196 146 263 q 191 96 146 132 q 317 60 236 60 q 431 87 383 60 q 504 167 479 114 q 529 297 529 219 l 578 297 q 510 69 578 156 q 322 -17 443 -17 m 297 797 l 297 799 l 467 972 l 575 972 l 408 797 l 297 797 m 290 797 l 124 972 l 232 972 l 401 799 l 401 797 l 290 797 z "},"â":{"ha":696,"x_min":63,"x_max":613,"o":"m 536 0 l 529 104 l 529 372 q 509 519 529 461 q 447 606 489 576 q 336 635 404 635 q 231 610 274 635 q 161 532 189 585 l 86 565 q 152 647 115 615 q 235 695 189 679 q 336 711 281 711 q 490 674 429 711 q 582 561 551 636 q 613 372 613 486 l 613 0 l 536 0 m 322 -17 q 131 40 200 -17 q 63 196 63 96 q 131 356 63 299 q 322 413 200 413 l 531 413 l 531 336 l 333 336 q 190 299 233 336 q 146 196 146 263 q 191 96 146 132 q 317 60 236 60 q 431 87 383 60 q 504 167 479 114 q 529 297 529 219 l 578 297 q 510 69 578 156 q 322 -17 443 -17 m 469 814 l 292 988 l 292 989 l 408 989 l 575 814 l 469 814 m 124 814 l 290 989 l 407 989 l 407 988 l 229 814 l 124 814 z "},"ä":{"ha":696,"x_min":63,"x_max":613,"o":"m 536 0 l 529 104 l 529 372 q 509 519 529 461 q 447 606 489 576 q 336 635 404 635 q 231 610 274 635 q 161 532 189 585 l 86 565 q 152 647 115 615 q 235 695 189 679 q 336 711 281 711 q 490 674 429 711 q 582 561 551 636 q 613 372 613 486 l 613 0 l 536 0 m 322 -17 q 131 40 200 -17 q 63 196 63 96 q 131 356 63 299 q 322 413 200 413 l 531 413 l 531 336 l 333 336 q 190 299 233 336 q 146 196 146 263 q 191 96 146 132 q 317 60 236 60 q 431 87 383 60 q 504 167 479 114 q 529 297 529 219 l 578 297 q 510 69 578 156 q 322 -17 443 -17 m 518 875 q 479 892 496 875 q 463 931 463 908 q 479 970 463 954 q 518 986 496 986 q 558 970 542 986 q 574 931 574 954 q 558 892 574 908 q 518 875 542 875 m 182 875 q 143 892 160 875 q 126 931 126 908 q 143 970 126 954 q 182 986 160 986 q 222 970 206 986 q 238 931 238 954 q 222 892 238 908 q 182 875 206 875 z "},"à":{"ha":696,"x_min":63,"x_max":613,"o":"m 536 0 l 529 104 l 529 372 q 509 519 529 461 q 447 606 489 576 q 336 635 404 635 q 231 610 274 635 q 161 532 189 585 l 86 565 q 152 647 115 615 q 235 695 189 679 q 336 711 281 711 q 490 674 429 711 q 582 561 551 636 q 613 372 613 486 l 613 0 l 536 0 m 322 -17 q 131 40 200 -17 q 63 196 63 96 q 131 356 63 299 q 322 413 200 413 l 531 413 l 531 336 l 333 336 q 190 299 233 336 q 146 196 146 263 q 191 96 146 132 q 317 60 236 60 q 431 87 383 60 q 504 167 479 114 q 529 297 529 219 l 578 297 q 510 69 578 156 q 322 -17 443 -17 m 388 797 l 207 974 l 325 974 l 493 797 l 388 797 z "},"ā":{"ha":696,"x_min":63,"x_max":613,"o":"m 536 0 l 529 104 l 529 372 q 509 519 529 461 q 447 606 489 576 q 336 635 404 635 q 231 610 274 635 q 161 532 189 585 l 86 565 q 152 647 115 615 q 235 695 189 679 q 336 711 281 711 q 490 674 429 711 q 582 561 551 636 q 613 372 613 486 l 613 0 l 536 0 m 322 -17 q 131 40 200 -17 q 63 196 63 96 q 131 356 63 299 q 322 413 200 413 l 531 413 l 531 336 l 333 336 q 190 299 233 336 q 146 196 146 263 q 191 96 146 132 q 317 60 236 60 q 431 87 383 60 q 504 167 479 114 q 529 297 529 219 l 578 297 q 510 69 578 156 q 322 -17 443 -17 m 142 806 l 142 885 l 558 885 l 558 806 l 142 806 z "},"ą":{"ha":696,"x_min":63,"x_max":636,"o":"m 536 0 l 529 104 l 529 372 q 509 519 529 461 q 447 606 489 576 q 336 635 404 635 q 231 610 274 635 q 161 532 189 585 l 86 565 q 152 647 115 615 q 235 695 189 679 q 336 711 281 711 q 490 674 429 711 q 582 561 551 636 q 613 372 613 486 l 613 0 l 536 0 m 322 -17 q 131 40 200 -17 q 63 196 63 96 q 131 356 63 299 q 322 413 200 413 l 531 413 l 531 336 l 333 336 q 190 299 233 336 q 146 196 146 263 q 191 96 146 132 q 317 60 236 60 q 431 87 383 60 q 504 167 479 114 q 529 297 529 219 l 578 297 q 510 69 578 156 q 322 -17 443 -17 m 543 -294 q 464 -281 497 -294 q 413 -240 431 -267 q 396 -172 396 -212 q 441 -72 396 -119 q 543 17 486 -25 l 613 0 q 522 -78 564 -36 q 479 -172 479 -121 q 494 -206 479 -194 q 535 -218 508 -218 q 582 -212 561 -218 q 610 -203 603 -206 l 636 -267 q 594 -287 618 -279 q 543 -294 571 -294 z "},"å":{"ha":696,"x_min":63,"x_max":613,"o":"m 536 0 l 529 104 l 529 372 q 509 519 529 461 q 447 606 489 576 q 336 635 404 635 q 231 610 274 635 q 161 532 189 585 l 86 565 q 152 647 115 615 q 235 695 189 679 q 336 711 281 711 q 490 674 429 711 q 582 561 551 636 q 613 372 613 486 l 613 0 l 536 0 m 322 -17 q 131 40 200 -17 q 63 196 63 96 q 131 356 63 299 q 322 413 200 413 l 531 413 l 531 336 l 333 336 q 190 299 233 336 q 146 196 146 263 q 191 96 146 132 q 317 60 236 60 q 431 87 383 60 q 504 167 479 114 q 529 297 529 219 l 578 297 q 510 69 578 156 q 322 -17 443 -17 m 350 783 q 289 799 317 783 q 244 842 261 815 q 228 901 228 869 q 244 962 228 935 q 289 1005 261 989 q 350 1021 317 1021 q 411 1005 383 1021 q 455 962 439 989 q 471 901 471 935 q 455 842 471 869 q 411 799 439 815 q 350 783 383 783 m 350 847 q 401 901 401 847 q 350 957 401 957 q 297 901 297 957 q 350 847 297 847 z "},"ã":{"ha":696,"x_min":63,"x_max":613,"o":"m 536 0 l 529 104 l 529 372 q 509 519 529 461 q 447 606 489 576 q 336 635 404 635 q 231 610 274 635 q 161 532 189 585 l 86 565 q 152 647 115 615 q 235 695 189 679 q 336 711 281 711 q 490 674 429 711 q 582 561 551 636 q 613 372 613 486 l 613 0 l 536 0 m 322 -17 q 131 40 200 -17 q 63 196 63 96 q 131 356 63 299 q 322 413 200 413 l 531 413 l 531 336 l 333 336 q 190 299 233 336 q 146 196 146 263 q 191 96 146 132 q 317 60 236 60 q 431 87 383 60 q 504 167 479 114 q 529 297 529 219 l 578 297 q 510 69 578 156 q 322 -17 443 -17 m 464 794 q 402 810 426 794 q 362 844 378 825 q 332 879 346 864 q 301 894 318 894 q 265 883 276 894 q 246 843 253 871 l 169 843 q 189 903 172 874 q 235 953 206 933 q 301 972 264 972 q 358 957 336 972 q 397 922 381 942 q 429 888 414 903 q 464 872 444 872 q 501 885 489 872 q 517 925 513 899 l 593 925 q 554 836 588 878 q 464 794 521 794 z "},"æ":{"ha":1221,"x_min":63,"x_max":1172,"o":"m 540 250 l 529 372 q 501 519 521 461 q 443 606 482 576 q 336 635 404 635 q 222 608 269 635 q 144 529 174 582 l 69 563 q 182 674 115 638 q 336 711 249 711 q 544 627 476 711 q 613 372 613 543 l 613 250 l 540 250 m 322 -17 q 131 40 200 -17 q 63 196 63 96 q 131 356 63 299 q 322 413 200 413 l 583 413 l 583 336 l 333 336 q 190 299 233 336 q 146 196 146 263 q 191 96 146 132 q 317 60 236 60 q 473 136 417 60 q 529 336 529 213 l 604 336 q 530 80 604 176 q 322 -17 456 -17 m 871 -17 q 694 30 771 -17 q 573 158 617 76 q 529 347 529 240 q 572 536 529 454 q 691 665 615 618 q 864 711 767 711 q 1031 663 963 711 q 1136 531 1100 615 q 1172 338 1172 447 l 579 338 l 611 364 q 643 200 611 268 q 734 96 675 132 q 871 60 793 60 q 1008 99 951 60 q 1096 201 1064 139 l 1165 158 q 1097 67 1139 107 q 997 6 1054 28 q 871 -17 940 -17 m 618 389 l 583 414 l 1118 414 l 1083 388 q 1056 517 1083 461 q 981 603 1029 572 q 864 635 932 635 q 741 603 797 635 q 651 517 685 572 q 618 389 618 463 z "},"b":{"ha":808,"x_min":104,"x_max":746,"o":"m 104 0 l 104 972 l 188 972 l 188 129 l 183 0 l 104 0 m 432 -17 q 276 30 344 -17 q 170 159 208 76 q 132 347 132 242 q 170 536 132 454 q 276 665 208 618 q 432 711 344 711 q 594 665 524 711 q 706 536 665 618 q 746 347 746 454 q 706 159 746 242 q 594 30 665 76 q 432 -17 524 -17 m 415 58 q 543 95 488 58 q 631 197 599 132 q 663 347 663 263 q 631 497 663 432 q 544 599 600 563 q 417 636 489 636 q 298 599 350 636 q 217 497 246 563 q 188 347 188 432 q 217 197 188 263 q 297 95 246 132 q 415 58 349 58 z "},"c":{"ha":749,"x_min":63,"x_max":700,"o":"m 404 -17 q 227 30 304 -17 q 106 158 150 76 q 63 347 63 240 q 106 536 63 454 q 226 665 149 618 q 401 711 303 711 q 576 667 500 711 q 694 546 653 624 l 622 507 q 533 601 590 567 q 401 635 475 635 q 269 598 326 635 q 178 497 211 561 q 146 347 146 432 q 179 198 146 263 q 271 97 213 133 q 404 60 329 60 q 538 98 479 60 q 626 204 596 136 l 700 165 q 581 32 658 81 q 404 -17 504 -17 z "},"ć":{"ha":749,"x_min":63,"x_max":700,"o":"m 404 -17 q 227 30 304 -17 q 106 158 150 76 q 63 347 63 240 q 106 536 63 454 q 226 665 149 618 q 401 711 303 711 q 576 667 500 711 q 694 546 653 624 l 622 507 q 533 601 590 567 q 401 635 475 635 q 269 598 326 635 q 178 497 211 561 q 146 347 146 432 q 179 198 146 263 q 271 97 213 133 q 404 60 329 60 q 538 98 479 60 q 626 204 596 136 l 700 165 q 581 32 658 81 q 404 -17 504 -17 m 315 797 l 481 972 l 599 972 l 421 797 l 315 797 z "},"č":{"ha":749,"x_min":63,"x_max":700,"o":"m 404 -17 q 227 30 304 -17 q 106 158 150 76 q 63 347 63 240 q 106 536 63 454 q 226 665 149 618 q 401 711 303 711 q 576 667 500 711 q 694 546 653 624 l 622 507 q 533 601 590 567 q 401 635 475 635 q 269 598 326 635 q 178 497 211 561 q 146 347 146 432 q 179 198 146 263 q 271 97 213 133 q 404 60 329 60 q 538 98 479 60 q 626 204 596 136 l 700 165 q 581 32 658 81 q 404 -17 504 -17 m 349 797 l 349 799 l 518 972 l 626 972 l 460 797 l 349 797 m 342 797 l 175 972 l 283 972 l 453 799 l 453 797 l 342 797 z "},"ç":{"ha":749,"x_min":63,"x_max":700,"o":"m 404 -17 q 227 30 304 -17 q 106 158 150 76 q 63 347 63 240 q 106 536 63 454 q 226 665 149 618 q 401 711 303 711 q 576 667 500 711 q 694 546 653 624 l 622 507 q 533 601 590 567 q 401 635 475 635 q 269 598 326 635 q 178 497 211 561 q 146 347 146 432 q 179 198 146 263 q 271 97 213 133 q 404 60 329 60 q 538 98 479 60 q 626 204 596 136 l 700 165 q 581 32 658 81 q 404 -17 504 -17 m 367 -292 q 311 -285 342 -292 q 235 -256 281 -279 l 261 -196 q 308 -217 283 -207 q 356 -228 333 -228 q 402 -217 381 -228 q 424 -174 424 -207 q 397 -116 424 -135 q 313 -87 369 -97 l 353 8 l 415 -11 l 400 -46 q 473 -98 453 -65 q 493 -167 493 -131 q 465 -255 493 -218 q 367 -292 436 -292 z "},"ĉ":{"ha":749,"x_min":63,"x_max":700,"o":"m 404 -17 q 227 30 304 -17 q 106 158 150 76 q 63 347 63 240 q 106 536 63 454 q 226 665 149 618 q 401 711 303 711 q 576 667 500 711 q 694 546 653 624 l 622 507 q 533 601 590 567 q 401 635 475 635 q 269 598 326 635 q 178 497 211 561 q 146 347 146 432 q 179 198 146 263 q 271 97 213 133 q 404 60 329 60 q 538 98 479 60 q 626 204 596 136 l 700 165 q 581 32 658 81 q 404 -17 504 -17 m 521 814 l 343 988 l 343 989 l 460 989 l 626 814 l 521 814 m 175 814 l 342 989 l 458 989 l 458 988 l 281 814 l 175 814 z "},"ċ":{"ha":749,"x_min":63,"x_max":700,"o":"m 404 -17 q 227 30 304 -17 q 106 158 150 76 q 63 347 63 240 q 106 536 63 454 q 226 665 149 618 q 401 711 303 711 q 576 667 500 711 q 694 546 653 624 l 622 507 q 533 601 590 567 q 401 635 475 635 q 269 598 326 635 q 178 497 211 561 q 146 347 146 432 q 179 198 146 263 q 271 97 213 133 q 404 60 329 60 q 538 98 479 60 q 626 204 596 136 l 700 165 q 581 32 658 81 q 404 -17 504 -17 m 401 875 q 363 892 379 875 q 346 931 346 908 q 363 970 346 954 q 401 986 379 986 q 441 970 425 986 q 457 931 457 954 q 441 892 457 908 q 401 875 425 875 z "},"d":{"ha":808,"x_min":63,"x_max":704,"o":"m 625 0 l 621 129 l 621 972 l 704 972 l 704 0 l 625 0 m 376 -17 q 214 30 285 -17 q 103 159 143 76 q 63 347 63 242 q 103 536 63 454 q 214 665 143 618 q 376 711 285 711 q 533 665 465 711 q 638 536 600 618 q 676 347 676 454 q 638 159 676 242 q 533 30 600 76 q 376 -17 465 -17 m 393 58 q 511 95 460 58 q 592 197 563 132 q 621 347 621 263 q 592 497 621 432 q 511 599 563 563 q 392 636 460 636 q 264 599 319 636 q 177 497 208 563 q 146 347 146 432 q 178 197 146 263 q 265 95 210 132 q 393 58 321 58 z "},"ď":{"ha":808,"x_min":63,"x_max":913,"o":"m 625 0 l 621 129 l 621 972 l 704 972 l 704 0 l 625 0 m 376 -17 q 214 30 285 -17 q 103 159 143 76 q 63 347 63 242 q 103 536 63 454 q 214 665 143 618 q 376 711 285 711 q 533 665 465 711 q 638 536 600 618 q 676 347 676 454 q 638 159 676 242 q 533 30 600 76 q 376 -17 465 -17 m 393 58 q 511 95 460 58 q 592 197 563 132 q 621 347 621 263 q 592 497 621 432 q 511 599 563 563 q 392 636 460 636 q 264 599 319 636 q 177 497 208 563 q 146 347 146 432 q 178 197 146 263 q 265 95 210 132 q 393 58 321 58 m 738 732 l 814 971 l 913 971 l 815 732 l 738 732 z "},"đ":{"ha":808,"x_min":63,"x_max":815,"o":"m 388 793 l 388 869 l 815 869 l 815 793 l 388 793 m 625 0 l 621 129 l 621 972 l 704 972 l 704 0 l 625 0 m 376 -17 q 214 30 285 -17 q 103 159 143 76 q 63 347 63 242 q 103 536 63 454 q 214 665 143 618 q 376 711 285 711 q 533 665 465 711 q 638 536 600 618 q 676 347 676 454 q 638 159 676 242 q 533 30 600 76 q 376 -17 465 -17 m 393 58 q 511 95 460 58 q 592 197 563 132 q 621 347 621 263 q 592 497 621 432 q 511 599 563 563 q 392 636 460 636 q 264 599 319 636 q 177 497 208 563 q 146 347 146 432 q 178 197 146 263 q 265 95 210 132 q 393 58 321 58 z "},"ð":{"ha":818,"x_min":63,"x_max":742,"o":"m 404 -17 q 227 30 304 -17 q 106 158 150 76 q 63 347 63 240 q 106 536 63 454 q 226 665 149 618 q 401 711 303 711 q 480 701 443 711 q 549 672 517 690 q 608 625 582 653 q 656 563 635 597 l 742 347 q 699 158 742 240 q 579 30 656 76 q 404 -17 503 -17 m 404 60 q 536 97 479 60 q 626 198 593 133 q 658 347 658 263 q 626 497 658 432 q 535 598 593 561 q 401 635 476 635 q 269 598 326 635 q 178 497 211 561 q 146 347 146 432 q 179 198 146 263 q 271 97 213 133 q 404 60 329 60 m 658 347 q 633 572 658 472 q 555 744 608 671 q 418 867 501 818 q 218 942 335 917 l 236 1024 q 422 960 340 1001 q 564 860 504 919 q 663 724 624 801 q 722 553 703 647 q 742 347 742 458 l 658 347 m 403 743 l 365 803 l 611 954 l 646 896 l 403 743 z "},"e":{"ha":754,"x_min":63,"x_max":706,"o":"m 404 -17 q 227 30 304 -17 q 106 158 150 76 q 63 347 63 240 q 106 536 63 454 q 224 665 149 618 q 397 711 300 711 q 565 663 496 711 q 669 531 633 615 q 706 338 706 447 l 113 338 l 144 364 q 176 200 144 268 q 267 96 208 132 q 404 60 326 60 q 541 99 485 60 q 629 201 597 139 l 699 158 q 630 67 672 107 q 531 6 588 28 q 404 -17 474 -17 m 151 389 l 117 414 l 651 414 l 617 388 q 590 517 617 461 q 514 603 563 572 q 397 635 465 635 q 274 603 331 635 q 185 517 218 572 q 151 389 151 463 z "},"é":{"ha":754,"x_min":63,"x_max":706,"o":"m 404 -17 q 227 30 304 -17 q 106 158 150 76 q 63 347 63 240 q 106 536 63 454 q 224 665 149 618 q 397 711 300 711 q 565 663 496 711 q 669 531 633 615 q 706 338 706 447 l 113 338 l 144 364 q 176 200 144 268 q 267 96 208 132 q 404 60 326 60 q 541 99 485 60 q 629 201 597 139 l 699 158 q 630 67 672 107 q 531 6 588 28 q 404 -17 474 -17 m 151 389 l 117 414 l 651 414 l 617 388 q 590 517 617 461 q 514 603 563 572 q 397 635 465 635 q 274 603 331 635 q 185 517 218 572 q 151 389 151 463 m 311 797 l 476 972 l 594 972 l 417 797 l 311 797 z "},"ě":{"ha":754,"x_min":63,"x_max":706,"o":"m 404 -17 q 227 30 304 -17 q 106 158 150 76 q 63 347 63 240 q 106 536 63 454 q 224 665 149 618 q 397 711 300 711 q 565 663 496 711 q 669 531 633 615 q 706 338 706 447 l 113 338 l 144 364 q 176 200 144 268 q 267 96 208 132 q 404 60 326 60 q 541 99 485 60 q 629 201 597 139 l 699 158 q 630 67 672 107 q 531 6 588 28 q 404 -17 474 -17 m 151 389 l 117 414 l 651 414 l 617 388 q 590 517 617 461 q 514 603 563 572 q 397 635 465 635 q 274 603 331 635 q 185 517 218 572 q 151 389 151 463 m 344 797 l 344 799 l 514 972 l 622 972 l 456 797 l 344 797 m 338 797 l 171 972 l 279 972 l 449 799 l 449 797 l 338 797 z "},"ê":{"ha":754,"x_min":63,"x_max":706,"o":"m 404 -17 q 227 30 304 -17 q 106 158 150 76 q 63 347 63 240 q 106 536 63 454 q 224 665 149 618 q 397 711 300 711 q 565 663 496 711 q 669 531 633 615 q 706 338 706 447 l 113 338 l 144 364 q 176 200 144 268 q 267 96 208 132 q 404 60 326 60 q 541 99 485 60 q 629 201 597 139 l 699 158 q 630 67 672 107 q 531 6 588 28 q 404 -17 474 -17 m 151 389 l 117 414 l 651 414 l 617 388 q 590 517 617 461 q 514 603 563 572 q 397 635 465 635 q 274 603 331 635 q 185 517 218 572 q 151 389 151 463 m 517 814 l 339 988 l 339 989 l 456 989 l 622 814 l 517 814 m 171 814 l 338 989 l 454 989 l 454 988 l 276 814 l 171 814 z "},"ë":{"ha":754,"x_min":63,"x_max":706,"o":"m 404 -17 q 227 30 304 -17 q 106 158 150 76 q 63 347 63 240 q 106 536 63 454 q 224 665 149 618 q 397 711 300 711 q 565 663 496 711 q 669 531 633 615 q 706 338 706 447 l 113 338 l 144 364 q 176 200 144 268 q 267 96 208 132 q 404 60 326 60 q 541 99 485 60 q 629 201 597 139 l 699 158 q 630 67 672 107 q 531 6 588 28 q 404 -17 474 -17 m 151 389 l 117 414 l 651 414 l 617 388 q 590 517 617 461 q 514 603 563 572 q 397 635 465 635 q 274 603 331 635 q 185 517 218 572 q 151 389 151 463 m 565 875 q 526 892 543 875 q 510 931 510 908 q 526 970 510 954 q 565 986 543 986 q 605 970 589 986 q 621 931 621 954 q 605 892 621 908 q 565 875 589 875 m 229 875 q 190 892 207 875 q 174 931 174 908 q 190 970 174 954 q 229 986 207 986 q 269 970 253 986 q 285 931 285 954 q 269 892 285 908 q 229 875 253 875 z "},"ė":{"ha":754,"x_min":63,"x_max":706,"o":"m 404 -17 q 227 30 304 -17 q 106 158 150 76 q 63 347 63 240 q 106 536 63 454 q 224 665 149 618 q 397 711 300 711 q 565 663 496 711 q 669 531 633 615 q 706 338 706 447 l 113 338 l 144 364 q 176 200 144 268 q 267 96 208 132 q 404 60 326 60 q 541 99 485 60 q 629 201 597 139 l 699 158 q 630 67 672 107 q 531 6 588 28 q 404 -17 474 -17 m 151 389 l 117 414 l 651 414 l 617 388 q 590 517 617 461 q 514 603 563 572 q 397 635 465 635 q 274 603 331 635 q 185 517 218 572 q 151 389 151 463 m 397 875 q 358 892 375 875 q 342 931 342 908 q 358 970 342 954 q 397 986 375 986 q 437 970 421 986 q 453 931 453 954 q 437 892 453 908 q 397 875 421 875 z "},"è":{"ha":754,"x_min":63,"x_max":706,"o":"m 404 -17 q 227 30 304 -17 q 106 158 150 76 q 63 347 63 240 q 106 536 63 454 q 224 665 149 618 q 397 711 300 711 q 565 663 496 711 q 669 531 633 615 q 706 338 706 447 l 113 338 l 144 364 q 176 200 144 268 q 267 96 208 132 q 404 60 326 60 q 541 99 485 60 q 629 201 597 139 l 699 158 q 630 67 672 107 q 531 6 588 28 q 404 -17 474 -17 m 151 389 l 117 414 l 651 414 l 617 388 q 590 517 617 461 q 514 603 563 572 q 397 635 465 635 q 274 603 331 635 q 185 517 218 572 q 151 389 151 463 m 435 797 l 254 974 l 372 974 l 540 797 l 435 797 z "},"ē":{"ha":754,"x_min":63,"x_max":706,"o":"m 404 -17 q 227 30 304 -17 q 106 158 150 76 q 63 347 63 240 q 106 536 63 454 q 224 665 149 618 q 397 711 300 711 q 565 663 496 711 q 669 531 633 615 q 706 338 706 447 l 113 338 l 144 364 q 176 200 144 268 q 267 96 208 132 q 404 60 326 60 q 541 99 485 60 q 629 201 597 139 l 699 158 q 630 67 672 107 q 531 6 588 28 q 404 -17 474 -17 m 151 389 l 117 414 l 651 414 l 617 388 q 590 517 617 461 q 514 603 563 572 q 397 635 465 635 q 274 603 331 635 q 185 517 218 572 q 151 389 151 463 m 189 806 l 189 885 l 606 885 l 606 806 l 189 806 z "},"ę":{"ha":754,"x_min":63,"x_max":728,"o":"m 404 -17 q 227 30 304 -17 q 106 158 150 76 q 63 347 63 240 q 106 536 63 454 q 224 665 149 618 q 397 711 300 711 q 565 663 496 711 q 669 531 633 615 q 706 338 706 447 l 113 338 l 144 364 q 176 200 144 268 q 267 96 208 132 q 404 60 326 60 q 541 99 485 60 q 629 201 597 139 l 699 158 q 630 67 672 107 q 531 6 588 28 q 404 -17 474 -17 m 151 389 l 117 414 l 651 414 l 617 388 q 590 517 617 461 q 514 603 563 572 q 397 635 465 635 q 274 603 331 635 q 185 517 218 572 q 151 389 151 463 m 618 -271 q 530 -256 567 -271 q 474 -215 493 -242 q 454 -150 454 -187 q 473 -65 454 -106 q 526 10 492 -25 q 610 71 561 46 l 632 69 q 578 9 599 42 q 547 -58 557 -24 q 538 -124 538 -92 q 556 -176 538 -157 q 608 -194 575 -194 q 658 -190 633 -194 q 701 -179 683 -186 l 728 -243 q 674 -264 703 -257 q 618 -271 646 -271 z "},"f":{"ha":500,"x_min":42,"x_max":493,"o":"m 174 0 l 174 778 q 222 937 174 885 q 369 989 271 989 q 422 981 392 989 q 493 956 453 972 l 463 885 q 402 906 426 899 q 363 913 378 913 q 283 879 310 913 q 257 778 257 846 l 257 0 l 174 0 m 42 618 l 42 694 l 469 694 l 469 618 l 42 618 z "},"g":{"ha":808,"x_min":63,"x_max":704,"o":"m 369 -294 q 254 -281 307 -294 q 165 -251 201 -267 q 115 -228 129 -235 l 146 -158 q 197 -183 163 -168 q 276 -208 231 -197 q 369 -218 321 -218 q 499 -189 442 -218 q 588 -97 556 -160 q 621 64 621 -35 l 621 694 l 704 694 l 704 64 q 659 -137 704 -57 q 538 -256 614 -217 q 369 -294 461 -294 m 376 0 q 214 46 285 0 q 103 173 143 92 q 63 358 63 254 q 103 542 63 463 q 214 666 143 621 q 376 711 285 711 q 533 666 465 711 q 638 542 600 621 q 676 358 676 463 q 638 173 676 254 q 533 46 600 92 q 376 0 465 0 m 393 74 q 511 110 460 74 q 592 211 563 147 q 621 358 621 275 q 592 503 621 440 q 511 603 563 567 q 392 639 460 639 q 264 603 319 639 q 177 503 208 567 q 146 358 146 440 q 178 211 146 275 q 265 110 210 147 q 393 74 321 74 z "},"ğ":{"ha":808,"x_min":63,"x_max":704,"o":"m 369 -294 q 254 -281 307 -294 q 165 -251 201 -267 q 115 -228 129 -235 l 146 -158 q 197 -183 163 -168 q 276 -208 231 -197 q 369 -218 321 -218 q 499 -189 442 -218 q 588 -97 556 -160 q 621 64 621 -35 l 621 694 l 704 694 l 704 64 q 659 -137 704 -57 q 538 -256 614 -217 q 369 -294 461 -294 m 376 0 q 214 46 285 0 q 103 173 143 92 q 63 358 63 254 q 103 542 63 463 q 214 666 143 621 q 376 711 285 711 q 533 666 465 711 q 638 542 600 621 q 676 358 676 463 q 638 173 676 254 q 533 46 600 92 q 376 0 465 0 m 393 74 q 511 110 460 74 q 592 211 563 147 q 621 358 621 275 q 592 503 621 440 q 511 603 563 567 q 392 639 460 639 q 264 603 319 639 q 177 503 208 567 q 146 358 146 440 q 178 211 146 275 q 265 110 210 147 q 393 74 321 74 m 376 790 q 260 813 311 790 q 179 878 208 836 q 150 972 150 919 l 233 972 q 274 895 233 925 q 376 865 314 865 q 478 895 439 865 q 518 972 518 925 l 601 972 q 573 878 601 919 q 494 813 544 836 q 376 790 443 790 z "},"ĝ":{"ha":808,"x_min":63,"x_max":704,"o":"m 369 -294 q 254 -281 307 -294 q 165 -251 201 -267 q 115 -228 129 -235 l 146 -158 q 197 -183 163 -168 q 276 -208 231 -197 q 369 -218 321 -218 q 499 -189 442 -218 q 588 -97 556 -160 q 621 64 621 -35 l 621 694 l 704 694 l 704 64 q 659 -137 704 -57 q 538 -256 614 -217 q 369 -294 461 -294 m 376 0 q 214 46 285 0 q 103 173 143 92 q 63 358 63 254 q 103 542 63 463 q 214 666 143 621 q 376 711 285 711 q 533 666 465 711 q 638 542 600 621 q 676 358 676 463 q 638 173 676 254 q 533 46 600 92 q 376 0 465 0 m 393 74 q 511 110 460 74 q 592 211 563 147 q 621 358 621 275 q 592 503 621 440 q 511 603 563 567 q 392 639 460 639 q 264 603 319 639 q 177 503 208 567 q 146 358 146 440 q 178 211 146 275 q 265 110 210 147 q 393 74 321 74 m 496 814 l 318 988 l 318 989 l 435 989 l 601 814 l 496 814 m 150 814 l 317 989 l 433 989 l 433 988 l 256 814 l 150 814 z "},"ģ":{"ha":808,"x_min":63,"x_max":704,"o":"m 369 -294 q 254 -281 307 -294 q 165 -251 201 -267 q 115 -228 129 -235 l 146 -158 q 197 -183 163 -168 q 276 -208 231 -197 q 369 -218 321 -218 q 499 -189 442 -218 q 588 -97 556 -160 q 621 64 621 -35 l 621 694 l 704 694 l 704 64 q 659 -137 704 -57 q 538 -256 614 -217 q 369 -294 461 -294 m 376 0 q 214 46 285 0 q 103 173 143 92 q 63 358 63 254 q 103 542 63 463 q 214 666 143 621 q 376 711 285 711 q 533 666 465 711 q 638 542 600 621 q 676 358 676 463 q 638 173 676 254 q 533 46 600 92 q 376 0 465 0 m 393 74 q 511 110 460 74 q 592 211 563 147 q 621 358 621 275 q 592 503 621 440 q 511 603 563 567 q 392 639 460 639 q 264 603 319 639 q 177 503 208 567 q 146 358 146 440 q 178 211 146 275 q 265 110 210 147 q 393 74 321 74 m 506 990 l 429 811 l 331 811 l 428 990 l 506 990 z "},"ġ":{"ha":808,"x_min":63,"x_max":704,"o":"m 369 -294 q 254 -281 307 -294 q 165 -251 201 -267 q 115 -228 129 -235 l 146 -158 q 197 -183 163 -168 q 276 -208 231 -197 q 369 -218 321 -218 q 499 -189 442 -218 q 588 -97 556 -160 q 621 64 621 -35 l 621 694 l 704 694 l 704 64 q 659 -137 704 -57 q 538 -256 614 -217 q 369 -294 461 -294 m 376 0 q 214 46 285 0 q 103 173 143 92 q 63 358 63 254 q 103 542 63 463 q 214 666 143 621 q 376 711 285 711 q 533 666 465 711 q 638 542 600 621 q 676 358 676 463 q 638 173 676 254 q 533 46 600 92 q 376 0 465 0 m 393 74 q 511 110 460 74 q 592 211 563 147 q 621 358 621 275 q 592 503 621 440 q 511 603 563 567 q 392 639 460 639 q 264 603 319 639 q 177 503 208 567 q 146 358 146 440 q 178 211 146 275 q 265 110 210 147 q 393 74 321 74 m 376 875 q 338 892 354 875 q 321 931 321 908 q 338 970 321 954 q 376 986 354 986 q 416 970 400 986 q 432 931 432 954 q 416 892 432 908 q 376 875 400 875 z "},"h":{"ha":769,"x_min":104,"x_max":688,"o":"m 104 0 l 104 972 l 188 972 l 188 0 l 104 0 m 603 0 l 603 356 l 686 356 l 686 0 l 603 0 m 603 356 q 576 531 603 471 q 502 612 549 590 q 397 633 456 633 q 243 560 299 633 q 188 357 188 488 l 136 357 q 168 547 136 468 q 262 669 200 626 q 413 711 324 711 q 555 678 493 711 q 652 575 617 646 q 686 388 688 504 l 686 356 l 603 356 z "},"ħ":{"ha":769,"x_min":0,"x_max":688,"o":"m 0 793 l 0 869 l 428 869 l 428 793 l 0 793 m 104 0 l 104 972 l 188 972 l 188 0 l 104 0 m 603 0 l 603 356 l 686 356 l 686 0 l 603 0 m 603 356 q 576 531 603 471 q 502 612 549 590 q 397 633 456 633 q 243 560 299 633 q 188 357 188 488 l 136 357 q 168 547 136 468 q 262 669 200 626 q 413 711 324 711 q 555 678 493 711 q 652 575 617 646 q 686 388 688 504 l 686 356 l 603 356 z "},"ĥ":{"ha":769,"x_min":-81,"x_max":688,"o":"m 104 0 l 104 972 l 188 972 l 188 0 l 104 0 m 603 0 l 603 356 l 686 356 l 686 0 l 603 0 m 603 356 q 576 531 603 471 q 502 612 549 590 q 397 633 456 633 q 243 560 299 633 q 188 357 188 488 l 136 357 q 168 547 136 468 q 262 669 200 626 q 413 711 324 711 q 555 678 493 711 q 652 575 617 646 q 686 388 688 504 l 686 356 l 603 356 m 265 1092 l 88 1265 l 88 1267 l 204 1267 l 371 1092 l 265 1092 m -81 1092 l 86 1267 l 203 1267 l 203 1265 l 25 1092 l -81 1092 z "},"i":{"ha":306,"x_min":97,"x_max":208,"o":"m 110 0 l 110 694 l 193 694 l 193 0 l 110 0 m 153 875 q 114 892 131 875 q 97 931 97 908 q 114 970 97 954 q 153 986 131 986 q 192 970 176 986 q 208 931 208 954 q 192 892 208 908 q 153 875 176 875 z "},"ı":{"ha":306,"x_min":110,"x_max":193,"o":"m 110 0 l 110 694 l 193 694 l 193 0 l 110 0 z "},"í":{"ha":306,"x_min":67,"x_max":350,"o":"m 110 0 l 110 694 l 193 694 l 193 0 l 110 0 m 67 797 l 232 972 l 350 972 l 172 797 l 67 797 z "},"î":{"ha":306,"x_min":-74,"x_max":378,"o":"m 110 0 l 110 694 l 193 694 l 193 0 l 110 0 m 272 814 l 94 988 l 94 989 l 211 989 l 378 814 l 272 814 m -74 814 l 93 989 l 210 989 l 210 988 l 32 814 l -74 814 z "},"ï":{"ha":306,"x_min":14,"x_max":293,"o":"m 238 875 q 199 892 215 875 q 182 931 182 908 q 199 970 182 954 q 238 986 215 986 q 277 970 261 986 q 293 931 293 954 q 277 892 293 908 q 238 875 261 875 m 69 875 q 31 892 47 875 q 14 931 14 908 q 31 970 14 954 q 69 986 47 986 q 109 970 93 986 q 125 931 125 954 q 109 892 125 908 q 69 875 93 875 m 110 0 l 110 694 l 193 694 l 193 0 l 110 0 z "},"ì":{"ha":306,"x_min":10,"x_max":296,"o":"m 110 0 l 110 694 l 193 694 l 193 0 l 110 0 m 190 797 l 10 974 l 128 974 l 296 797 l 190 797 z "},"ī":{"ha":306,"x_min":-21,"x_max":326,"o":"m 110 0 l 110 694 l 193 694 l 193 0 l 110 0 m -21 806 l -21 885 l 326 885 l 326 806 l -21 806 z "},"į":{"ha":306,"x_min":-24,"x_max":217,"o":"m 110 0 l 110 694 l 193 694 l 193 0 l 110 0 m 153 875 q 114 892 131 875 q 97 931 97 908 q 114 970 97 954 q 153 986 131 986 q 192 970 176 986 q 208 931 208 954 q 192 892 208 908 q 153 875 176 875 m 124 -294 q 44 -281 78 -294 q -6 -240 11 -267 q -24 -172 -24 -212 q 22 -72 -24 -119 q 124 17 67 -25 l 193 0 q 102 -78 144 -36 q 60 -172 60 -121 q 74 -206 60 -194 q 115 -218 89 -218 q 163 -212 142 -218 q 190 -203 183 -206 l 217 -267 q 175 -287 199 -279 q 124 -294 151 -294 z "},"ĳ":{"ha":667,"x_min":97,"x_max":569,"o":"m 110 0 l 110 694 l 193 694 l 193 0 l 110 0 m 153 875 q 114 892 131 875 q 97 931 97 908 q 114 970 97 954 q 153 986 131 986 q 192 970 176 986 q 208 931 208 954 q 192 892 208 908 q 153 875 176 875 m 514 878 q 475 894 492 878 q 458 933 458 911 q 475 973 458 957 q 514 989 492 989 q 553 973 538 989 q 569 933 569 957 q 553 894 569 911 q 514 878 538 878 m 360 -299 q 236 -265 318 -299 l 267 -194 q 328 -215 303 -208 q 367 -222 353 -222 q 472 -87 472 -222 l 472 694 l 556 694 l 556 -87 q 507 -246 556 -193 q 360 -299 458 -299 z "},"j":{"ha":361,"x_min":-69,"x_max":264,"o":"m 208 878 q 169 894 186 878 q 153 933 153 911 q 169 973 153 957 q 208 989 186 989 q 248 973 232 989 q 264 933 264 957 q 248 894 264 911 q 208 878 232 878 m 54 -299 q -69 -265 13 -299 l -39 -194 q 22 -215 -3 -208 q 61 -222 47 -222 q 167 -87 167 -222 l 167 694 l 250 694 l 250 -87 q 201 -246 250 -193 q 54 -299 153 -299 z "},"ȷ":{"ha":347,"x_min":-69,"x_max":250,"o":"m 54 -299 q -69 -265 13 -299 l -39 -194 q 22 -215 -3 -208 q 61 -222 47 -222 q 167 -87 167 -222 l 167 694 l 250 694 l 250 -87 q 201 -246 250 -193 q 54 -299 153 -299 z "},"ĵ":{"ha":347,"x_min":-69,"x_max":433,"o":"m 54 -299 q -69 -265 13 -299 l -39 -194 q 22 -215 -3 -208 q 61 -222 47 -222 q 167 -87 167 -222 l 167 694 l 250 694 l 250 -87 q 201 -246 250 -193 q 54 -299 153 -299 m 328 814 l 150 988 l 150 989 l 267 989 l 433 814 l 328 814 m -18 814 l 149 989 l 265 989 l 265 988 l 88 814 l -18 814 z "},"k":{"ha":646,"x_min":104,"x_max":646,"o":"m 188 242 l 131 299 l 507 694 l 615 694 l 188 242 m 104 0 l 104 972 l 188 972 l 188 0 l 104 0 m 539 0 l 263 422 l 317 482 l 646 0 l 539 0 z "},"ķ":{"ha":646,"x_min":104,"x_max":646,"o":"m 188 242 l 131 299 l 507 694 l 615 694 l 188 242 m 104 0 l 104 972 l 188 972 l 188 0 l 104 0 m 539 0 l 263 422 l 317 482 l 646 0 l 539 0 m 228 -278 l 292 -89 l 390 -89 l 306 -278 l 228 -278 z "},"l":{"ha":292,"x_min":104,"x_max":188,"o":"m 104 0 l 104 972 l 188 972 l 188 0 l 104 0 z "},"ĺ":{"ha":292,"x_min":60,"x_max":343,"o":"m 104 0 l 104 972 l 188 972 l 188 0 l 104 0 m 60 1033 l 225 1208 l 343 1208 l 165 1033 l 60 1033 z "},"ľ":{"ha":292,"x_min":104,"x_max":397,"o":"m 104 0 l 104 972 l 188 972 l 188 0 l 104 0 m 222 732 l 299 971 l 397 971 l 300 732 l 222 732 z "},"ļ":{"ha":292,"x_min":39,"x_max":201,"o":"m 104 0 l 104 972 l 188 972 l 188 0 l 104 0 m 39 -278 l 103 -89 l 201 -89 l 117 -278 l 39 -278 z "},"ł":{"ha":389,"x_min":28,"x_max":361,"o":"m 28 374 l 28 454 l 361 614 l 361 533 l 28 374 m 151 0 l 151 972 l 235 972 l 235 0 l 151 0 z "},"m":{"ha":1171,"x_min":104,"x_max":1089,"o":"m 104 0 l 104 694 l 182 694 l 186 594 q 269 681 218 651 q 388 711 319 711 q 529 672 469 711 q 615 550 589 632 q 701 669 644 628 q 838 711 757 711 q 1020 633 951 711 q 1088 397 1089 556 l 1088 0 l 1004 0 l 1004 356 q 980 531 1004 471 q 915 612 956 590 q 824 633 875 633 q 687 560 736 633 q 638 357 638 488 l 638 0 l 554 0 l 554 356 q 530 531 554 471 q 465 612 506 590 q 374 633 425 633 q 237 560 286 633 q 188 357 188 488 l 188 0 l 104 0 z "},"n":{"ha":769,"x_min":104,"x_max":688,"o":"m 104 0 l 104 694 l 182 694 l 188 567 l 188 0 l 104 0 m 603 0 l 603 356 l 686 356 l 686 0 l 603 0 m 603 356 q 576 531 603 471 q 502 612 549 590 q 397 633 456 633 q 243 560 299 633 q 188 357 188 488 l 136 357 q 168 547 136 468 q 262 669 200 626 q 413 711 324 711 q 555 678 493 711 q 652 575 617 646 q 686 388 688 504 l 686 356 l 603 356 z "},"ń":{"ha":769,"x_min":104,"x_max":688,"o":"m 104 0 l 104 694 l 182 694 l 188 567 l 188 0 l 104 0 m 603 0 l 603 356 l 686 356 l 686 0 l 603 0 m 603 356 q 576 531 603 471 q 502 612 549 590 q 397 633 456 633 q 243 560 299 633 q 188 357 188 488 l 136 357 q 168 547 136 468 q 262 669 200 626 q 413 711 324 711 q 555 678 493 711 q 652 575 617 646 q 686 388 688 504 l 686 356 l 603 356 m 299 797 l 464 972 l 582 972 l 404 797 l 299 797 z "},"ň":{"ha":769,"x_min":104,"x_max":688,"o":"m 104 0 l 104 694 l 182 694 l 188 567 l 188 0 l 104 0 m 603 0 l 603 356 l 686 356 l 686 0 l 603 0 m 603 356 q 576 531 603 471 q 502 612 549 590 q 397 633 456 633 q 243 560 299 633 q 188 357 188 488 l 136 357 q 168 547 136 468 q 262 669 200 626 q 413 711 324 711 q 555 678 493 711 q 652 575 617 646 q 686 388 688 504 l 686 356 l 603 356 m 332 797 l 332 799 l 501 972 l 610 972 l 443 797 l 332 797 m 325 797 l 158 972 l 267 972 l 436 799 l 436 797 l 325 797 z "},"ņ":{"ha":769,"x_min":104,"x_max":688,"o":"m 104 0 l 104 694 l 182 694 l 188 567 l 188 0 l 104 0 m 603 0 l 603 356 l 686 356 l 686 0 l 603 0 m 603 356 q 576 531 603 471 q 502 612 549 590 q 397 633 456 633 q 243 560 299 633 q 188 357 188 488 l 136 357 q 168 547 136 468 q 262 669 200 626 q 413 711 324 711 q 555 678 493 711 q 652 575 617 646 q 686 388 688 504 l 686 356 l 603 356 m 278 -278 l 342 -89 l 440 -89 l 356 -278 l 278 -278 z "},"ñ":{"ha":769,"x_min":104,"x_max":688,"o":"m 104 0 l 104 694 l 182 694 l 188 567 l 188 0 l 104 0 m 603 0 l 603 356 l 686 356 l 686 0 l 603 0 m 603 356 q 576 531 603 471 q 502 612 549 590 q 397 633 456 633 q 243 560 299 633 q 188 357 188 488 l 136 357 q 168 547 136 468 q 262 669 200 626 q 413 711 324 711 q 555 678 493 711 q 652 575 617 646 q 686 388 688 504 l 686 356 l 603 356 m 499 794 q 437 810 461 794 q 397 844 413 825 q 367 879 381 864 q 336 894 353 894 q 299 883 311 894 q 281 843 288 871 l 204 843 q 224 903 207 874 q 269 953 240 933 q 336 972 299 972 q 393 957 371 972 q 432 922 415 942 q 464 888 449 903 q 499 872 479 872 q 535 885 524 872 q 551 925 547 899 l 628 925 q 589 836 622 878 q 499 794 556 794 z "},"ŋ":{"ha":769,"x_min":104,"x_max":688,"o":"m 490 -299 q 367 -265 449 -299 l 397 -194 q 458 -215 433 -208 q 497 -222 483 -222 q 603 -87 603 -222 l 603 0 l 686 0 l 686 -87 q 638 -246 686 -193 q 490 -299 589 -299 m 104 0 l 104 694 l 182 694 l 188 567 l 188 0 l 104 0 m 603 0 l 603 356 l 686 356 l 686 0 l 603 0 m 603 356 q 576 531 603 471 q 502 612 549 590 q 397 633 456 633 q 243 560 299 633 q 188 357 188 488 l 136 357 q 168 547 136 468 q 262 669 200 626 q 413 711 324 711 q 555 678 493 711 q 652 575 617 646 q 686 388 688 504 l 686 356 l 603 356 z "},"o":{"ha":804,"x_min":63,"x_max":742,"o":"m 404 -17 q 227 30 304 -17 q 106 158 150 76 q 63 347 63 240 q 106 536 63 454 q 226 665 149 618 q 401 711 303 711 q 578 665 501 711 q 699 536 656 618 q 742 347 742 454 q 699 158 742 240 q 579 30 656 76 q 404 -17 503 -17 m 404 60 q 536 97 479 60 q 626 198 593 133 q 658 347 658 263 q 626 497 658 432 q 535 598 593 561 q 401 635 476 635 q 269 598 326 635 q 178 497 211 561 q 146 347 146 432 q 179 198 146 263 q 271 97 213 133 q 404 60 329 60 z "},"ó":{"ha":804,"x_min":63,"x_max":742,"o":"m 404 -17 q 227 30 304 -17 q 106 158 150 76 q 63 347 63 240 q 106 536 63 454 q 226 665 149 618 q 401 711 303 711 q 578 665 501 711 q 699 536 656 618 q 742 347 742 454 q 699 158 742 240 q 579 30 656 76 q 404 -17 503 -17 m 404 60 q 536 97 479 60 q 626 198 593 133 q 658 347 658 263 q 626 497 658 432 q 535 598 593 561 q 401 635 476 635 q 269 598 326 635 q 178 497 211 561 q 146 347 146 432 q 179 198 146 263 q 271 97 213 133 q 404 60 329 60 m 317 797 l 482 972 l 600 972 l 422 797 l 317 797 z "},"ô":{"ha":804,"x_min":63,"x_max":742,"o":"m 404 -17 q 227 30 304 -17 q 106 158 150 76 q 63 347 63 240 q 106 536 63 454 q 226 665 149 618 q 401 711 303 711 q 578 665 501 711 q 699 536 656 618 q 742 347 742 454 q 699 158 742 240 q 579 30 656 76 q 404 -17 503 -17 m 404 60 q 536 97 479 60 q 626 198 593 133 q 658 347 658 263 q 626 497 658 432 q 535 598 593 561 q 401 635 476 635 q 269 598 326 635 q 178 497 211 561 q 146 347 146 432 q 179 198 146 263 q 271 97 213 133 q 404 60 329 60 m 522 814 l 344 988 l 344 989 l 461 989 l 628 814 l 522 814 m 176 814 l 343 989 l 460 989 l 460 988 l 282 814 l 176 814 z "},"ö":{"ha":804,"x_min":63,"x_max":742,"o":"m 404 -17 q 227 30 304 -17 q 106 158 150 76 q 63 347 63 240 q 106 536 63 454 q 226 665 149 618 q 401 711 303 711 q 578 665 501 711 q 699 536 656 618 q 742 347 742 454 q 699 158 742 240 q 579 30 656 76 q 404 -17 503 -17 m 404 60 q 536 97 479 60 q 626 198 593 133 q 658 347 658 263 q 626 497 658 432 q 535 598 593 561 q 401 635 476 635 q 269 598 326 635 q 178 497 211 561 q 146 347 146 432 q 179 198 146 263 q 271 97 213 133 q 404 60 329 60 m 571 875 q 532 892 549 875 q 515 931 515 908 q 532 970 515 954 q 571 986 549 986 q 610 970 594 986 q 626 931 626 954 q 610 892 626 908 q 571 875 594 875 m 235 875 q 196 892 213 875 q 179 931 179 908 q 196 970 179 954 q 235 986 213 986 q 274 970 258 986 q 290 931 290 954 q 274 892 290 908 q 235 875 258 875 z "},"ò":{"ha":804,"x_min":63,"x_max":742,"o":"m 404 -17 q 227 30 304 -17 q 106 158 150 76 q 63 347 63 240 q 106 536 63 454 q 226 665 149 618 q 401 711 303 711 q 578 665 501 711 q 699 536 656 618 q 742 347 742 454 q 699 158 742 240 q 579 30 656 76 q 404 -17 503 -17 m 404 60 q 536 97 479 60 q 626 198 593 133 q 658 347 658 263 q 626 497 658 432 q 535 598 593 561 q 401 635 476 635 q 269 598 326 635 q 178 497 211 561 q 146 347 146 432 q 179 198 146 263 q 271 97 213 133 q 404 60 329 60 m 440 797 l 260 974 l 378 974 l 546 797 l 440 797 z "},"ő":{"ha":804,"x_min":63,"x_max":742,"o":"m 404 -17 q 227 30 304 -17 q 106 158 150 76 q 63 347 63 240 q 106 536 63 454 q 226 665 149 618 q 401 711 303 711 q 578 665 501 711 q 699 536 656 618 q 742 347 742 454 q 699 158 742 240 q 579 30 656 76 q 404 -17 503 -17 m 404 60 q 536 97 479 60 q 626 198 593 133 q 658 347 658 263 q 626 497 658 432 q 535 598 593 561 q 401 635 476 635 q 269 598 326 635 q 178 497 211 561 q 146 347 146 432 q 179 198 146 263 q 271 97 213 133 q 404 60 329 60 m 442 797 l 579 972 l 703 972 l 553 797 l 442 797 m 206 797 l 343 972 l 467 972 l 317 797 l 206 797 z "},"ō":{"ha":804,"x_min":63,"x_max":742,"o":"m 404 -17 q 227 30 304 -17 q 106 158 150 76 q 63 347 63 240 q 106 536 63 454 q 226 665 149 618 q 401 711 303 711 q 578 665 501 711 q 699 536 656 618 q 742 347 742 454 q 699 158 742 240 q 579 30 656 76 q 404 -17 503 -17 m 404 60 q 536 97 479 60 q 626 198 593 133 q 658 347 658 263 q 626 497 658 432 q 535 598 593 561 q 401 635 476 635 q 269 598 326 635 q 178 497 211 561 q 146 347 146 432 q 179 198 146 263 q 271 97 213 133 q 404 60 329 60 m 194 806 l 194 885 l 611 885 l 611 806 l 194 806 z "},"ø":{"ha":804,"x_min":44,"x_max":760,"o":"m 44 0 l 654 694 l 760 694 l 149 0 l 44 0 m 403 -17 q 226 30 303 -17 q 105 158 149 76 q 61 347 61 240 q 104 536 61 454 q 224 665 147 618 q 400 711 301 711 q 577 665 500 711 q 697 536 654 618 q 740 347 740 454 q 697 158 740 240 q 578 30 654 76 q 403 -17 501 -17 m 403 60 q 535 97 478 60 q 624 198 592 133 q 657 347 657 263 q 624 497 657 432 q 533 598 592 561 q 400 635 475 635 q 267 598 325 635 q 177 497 210 561 q 144 347 144 432 q 178 198 144 263 q 269 97 211 133 q 403 60 328 60 z "},"õ":{"ha":804,"x_min":63,"x_max":742,"o":"m 404 -17 q 227 30 304 -17 q 106 158 150 76 q 63 347 63 240 q 106 536 63 454 q 226 665 149 618 q 401 711 303 711 q 578 665 501 711 q 699 536 656 618 q 742 347 742 454 q 699 158 742 240 q 579 30 656 76 q 404 -17 503 -17 m 404 60 q 536 97 479 60 q 626 198 593 133 q 658 347 658 263 q 626 497 658 432 q 535 598 593 561 q 401 635 476 635 q 269 598 326 635 q 178 497 211 561 q 146 347 146 432 q 179 198 146 263 q 271 97 213 133 q 404 60 329 60 m 517 794 q 455 810 479 794 q 415 844 431 825 q 385 879 399 864 q 354 894 371 894 q 317 883 329 894 q 299 843 306 871 l 222 843 q 242 903 225 874 q 288 953 258 933 q 354 972 317 972 q 411 957 389 972 q 450 922 433 942 q 482 888 467 903 q 517 872 497 872 q 553 885 542 872 q 569 925 565 899 l 646 925 q 607 836 640 878 q 517 794 574 794 z "},"œ":{"ha":1364,"x_min":63,"x_max":1315,"o":"m 404 -17 q 227 30 304 -17 q 106 158 150 76 q 63 347 63 240 q 106 536 63 454 q 226 665 149 618 q 401 711 303 711 q 578 665 501 711 q 699 536 656 618 q 742 347 742 454 q 699 158 742 240 q 579 30 656 76 q 404 -17 503 -17 m 404 60 q 536 97 479 60 q 626 198 593 133 q 658 347 658 263 q 626 497 658 432 q 535 598 593 561 q 401 635 476 635 q 269 598 326 635 q 178 497 211 561 q 146 347 146 432 q 179 198 146 263 q 271 97 213 133 q 404 60 329 60 m 1014 -17 q 837 30 914 -17 q 716 158 760 76 q 672 347 672 240 q 715 536 672 454 q 834 665 758 618 q 1007 711 910 711 q 1174 663 1106 711 q 1279 531 1243 615 q 1315 338 1315 447 l 722 338 l 754 364 q 786 200 754 268 q 877 96 818 132 q 1014 60 936 60 q 1151 99 1094 60 q 1239 201 1207 139 l 1308 158 q 1240 67 1282 107 q 1140 6 1197 28 q 1014 -17 1083 -17 m 761 389 l 726 414 l 1261 414 l 1226 388 q 1199 517 1226 461 q 1124 603 1172 572 q 1007 635 1075 635 q 884 603 940 635 q 794 517 828 572 q 761 389 761 463 z "},"p":{"ha":815,"x_min":111,"x_max":753,"o":"m 111 -278 l 111 694 l 189 694 l 194 567 l 194 -278 l 111 -278 m 439 -17 q 283 30 351 -17 q 177 159 215 76 q 139 347 139 242 q 177 536 139 454 q 283 665 215 618 q 439 711 351 711 q 601 665 531 711 q 713 536 672 618 q 753 347 753 454 q 713 159 753 242 q 601 30 672 76 q 439 -17 531 -17 m 422 58 q 550 95 494 58 q 638 197 606 132 q 669 347 669 263 q 638 497 669 432 q 551 599 607 563 q 424 636 496 636 q 305 599 357 636 q 224 497 253 563 q 194 347 194 432 q 224 197 194 263 q 304 95 253 132 q 422 58 356 58 z "},"þ":{"ha":808,"x_min":104,"x_max":746,"o":"m 104 -278 l 104 972 l 188 972 l 188 -278 l 104 -278 m 432 -17 q 276 30 344 -17 q 170 159 208 76 q 132 347 132 242 q 170 536 132 454 q 276 665 208 618 q 432 711 344 711 q 594 665 524 711 q 706 536 665 618 q 746 347 746 454 q 706 159 746 242 q 594 30 665 76 q 432 -17 524 -17 m 415 58 q 543 95 488 58 q 631 197 599 132 q 663 347 663 263 q 631 497 663 432 q 544 599 600 563 q 417 636 489 636 q 298 599 350 636 q 217 497 246 563 q 188 347 188 432 q 217 197 188 263 q 297 95 246 132 q 415 58 349 58 z "},"q":{"ha":794,"x_min":63,"x_max":704,"o":"m 621 -278 l 621 565 l 625 694 l 704 694 l 704 -278 l 621 -278 m 376 -17 q 214 30 285 -17 q 103 159 143 76 q 63 347 63 242 q 103 536 63 454 q 214 665 143 618 q 376 711 285 711 q 533 665 465 711 q 638 536 600 618 q 676 347 676 454 q 638 159 676 242 q 533 30 600 76 q 376 -17 465 -17 m 393 58 q 511 95 460 58 q 592 197 563 132 q 621 347 621 263 q 592 497 621 432 q 511 599 563 563 q 392 636 460 636 q 264 599 319 636 q 177 497 208 563 q 146 347 146 432 q 178 197 146 263 q 265 95 210 132 q 393 58 321 58 z "},"r":{"ha":447,"x_min":104,"x_max":433,"o":"m 139 381 q 181 563 139 493 q 291 665 224 632 q 433 697 358 697 l 433 621 q 316 599 372 621 q 224 527 260 578 q 188 389 188 476 l 139 381 m 104 0 l 104 694 l 188 694 l 188 0 l 104 0 z "},"ŕ":{"ha":447,"x_min":104,"x_max":433,"o":"m 139 381 q 181 563 139 493 q 291 665 224 632 q 433 697 358 697 l 433 621 q 316 599 372 621 q 224 527 260 578 q 188 389 188 476 l 139 381 m 104 0 l 104 694 l 188 694 l 188 0 l 104 0 m 129 797 l 294 972 l 413 972 l 235 797 l 129 797 z "},"ř":{"ha":447,"x_min":-11,"x_max":440,"o":"m 139 381 q 181 563 139 493 q 291 665 224 632 q 433 697 358 697 l 433 621 q 316 599 372 621 q 224 527 260 578 q 188 389 188 476 l 139 381 m 104 0 l 104 694 l 188 694 l 188 0 l 104 0 m 163 797 l 163 799 l 332 972 l 440 972 l 274 797 l 163 797 m 156 797 l -11 972 l 97 972 l 267 799 l 267 797 l 156 797 z "},"ŗ":{"ha":447,"x_min":69,"x_max":433,"o":"m 139 381 q 181 563 139 493 q 291 665 224 632 q 433 697 358 697 l 433 621 q 316 599 372 621 q 224 527 260 578 q 188 389 188 476 l 139 381 m 104 0 l 104 694 l 188 694 l 188 0 l 104 0 m 69 -278 l 133 -89 l 232 -89 l 147 -278 l 69 -278 z "},"s":{"ha":647,"x_min":63,"x_max":585,"o":"m 340 -17 q 204 7 261 -17 q 112 68 147 31 q 63 146 76 106 l 138 174 q 213 91 161 122 q 325 60 265 60 q 450 90 399 60 q 501 176 501 121 q 464 258 501 226 q 353 310 426 290 l 285 328 q 141 401 192 353 q 90 508 90 449 q 153 658 90 604 q 344 711 217 711 q 452 694 404 711 q 534 644 500 676 q 585 568 568 613 l 510 536 q 444 613 488 590 q 332 635 401 635 q 216 603 258 635 q 174 515 174 572 q 208 455 174 485 q 310 407 242 425 l 369 392 q 485 344 438 375 q 559 272 533 313 q 585 183 585 232 q 553 76 585 121 q 466 7 521 31 q 340 -17 411 -17 z "},"ś":{"ha":647,"x_min":63,"x_max":585,"o":"m 340 -17 q 204 7 261 -17 q 112 68 147 31 q 63 146 76 106 l 138 174 q 213 91 161 122 q 325 60 265 60 q 450 90 399 60 q 501 176 501 121 q 464 258 501 226 q 353 310 426 290 l 285 328 q 141 401 192 353 q 90 508 90 449 q 153 658 90 604 q 344 711 217 711 q 452 694 404 711 q 534 644 500 676 q 585 568 568 613 l 510 536 q 444 613 488 590 q 332 635 401 635 q 216 603 258 635 q 174 515 174 572 q 208 455 174 485 q 310 407 242 425 l 369 392 q 485 344 438 375 q 559 272 533 313 q 585 183 585 232 q 553 76 585 121 q 466 7 521 31 q 340 -17 411 -17 m 258 797 l 424 972 l 542 972 l 364 797 l 258 797 z "},"š":{"ha":647,"x_min":63,"x_max":585,"o":"m 340 -17 q 204 7 261 -17 q 112 68 147 31 q 63 146 76 106 l 138 174 q 213 91 161 122 q 325 60 265 60 q 450 90 399 60 q 501 176 501 121 q 464 258 501 226 q 353 310 426 290 l 285 328 q 141 401 192 353 q 90 508 90 449 q 153 658 90 604 q 344 711 217 711 q 452 694 404 711 q 534 644 500 676 q 585 568 568 613 l 510 536 q 444 613 488 590 q 332 635 401 635 q 216 603 258 635 q 174 515 174 572 q 208 455 174 485 q 310 407 242 425 l 369 392 q 485 344 438 375 q 559 272 533 313 q 585 183 585 232 q 553 76 585 121 q 466 7 521 31 q 340 -17 411 -17 m 292 797 l 292 799 l 461 972 l 569 972 l 403 797 l 292 797 m 285 797 l 118 972 l 226 972 l 396 799 l 396 797 l 285 797 z "},"ş":{"ha":647,"x_min":63,"x_max":585,"o":"m 340 -17 q 204 7 261 -17 q 112 68 147 31 q 63 146 76 106 l 138 174 q 213 91 161 122 q 325 60 265 60 q 450 90 399 60 q 501 176 501 121 q 464 258 501 226 q 353 310 426 290 l 285 328 q 141 401 192 353 q 90 508 90 449 q 153 658 90 604 q 344 711 217 711 q 452 694 404 711 q 534 644 500 676 q 585 568 568 613 l 510 536 q 444 613 488 590 q 332 635 401 635 q 216 603 258 635 q 174 515 174 572 q 208 455 174 485 q 310 407 242 425 l 369 392 q 485 344 438 375 q 559 272 533 313 q 585 183 585 232 q 553 76 585 121 q 466 7 521 31 q 340 -17 411 -17 m 303 -292 q 247 -285 278 -292 q 171 -256 217 -279 l 197 -196 q 244 -217 219 -207 q 292 -228 269 -228 q 338 -217 317 -228 q 360 -174 360 -207 q 333 -116 360 -135 q 249 -87 306 -97 l 289 8 l 351 -11 l 336 -46 q 409 -98 389 -65 q 429 -167 429 -131 q 401 -255 429 -218 q 303 -292 372 -292 z "},"ŝ":{"ha":647,"x_min":63,"x_max":585,"o":"m 340 -17 q 204 7 261 -17 q 112 68 147 31 q 63 146 76 106 l 138 174 q 213 91 161 122 q 325 60 265 60 q 450 90 399 60 q 501 176 501 121 q 464 258 501 226 q 353 310 426 290 l 285 328 q 141 401 192 353 q 90 508 90 449 q 153 658 90 604 q 344 711 217 711 q 452 694 404 711 q 534 644 500 676 q 585 568 568 613 l 510 536 q 444 613 488 590 q 332 635 401 635 q 216 603 258 635 q 174 515 174 572 q 208 455 174 485 q 310 407 242 425 l 369 392 q 485 344 438 375 q 559 272 533 313 q 585 183 585 232 q 553 76 585 121 q 466 7 521 31 q 340 -17 411 -17 m 464 814 l 286 988 l 286 989 l 403 989 l 569 814 l 464 814 m 118 814 l 285 989 l 401 989 l 401 988 l 224 814 l 118 814 z "},"ș":{"ha":647,"x_min":63,"x_max":585,"o":"m 340 -17 q 204 7 261 -17 q 112 68 147 31 q 63 146 76 106 l 138 174 q 213 91 161 122 q 325 60 265 60 q 450 90 399 60 q 501 176 501 121 q 464 258 501 226 q 353 310 426 290 l 285 328 q 141 401 192 353 q 90 508 90 449 q 153 658 90 604 q 344 711 217 711 q 452 694 404 711 q 534 644 500 676 q 585 568 568 613 l 510 536 q 444 613 488 590 q 332 635 401 635 q 216 603 258 635 q 174 515 174 572 q 208 455 174 485 q 310 407 242 425 l 369 392 q 485 344 438 375 q 559 272 533 313 q 585 183 585 232 q 553 76 585 121 q 466 7 521 31 q 340 -17 411 -17 m 233 -278 l 297 -89 l 396 -89 l 311 -278 l 233 -278 z "},"ß":{"ha":771,"x_min":104,"x_max":701,"o":"m 104 0 l 104 721 q 141 860 104 800 q 242 955 178 921 q 390 989 307 989 q 538 955 474 989 q 638 861 601 921 q 674 724 674 801 q 655 612 674 661 q 601 528 636 563 q 515 477 565 494 q 399 460 464 460 l 339 460 l 339 540 l 344 540 q 492 563 439 540 q 565 626 544 585 q 586 724 586 667 q 531 857 586 806 q 390 908 476 908 q 249 856 304 908 q 193 721 193 803 l 193 0 l 104 0 m 332 0 l 332 82 l 399 82 q 557 128 500 82 q 614 254 614 174 q 558 392 614 343 q 403 442 501 442 l 339 442 l 339 524 l 361 524 q 544 491 468 524 q 660 399 619 458 q 701 254 701 339 q 665 117 701 174 q 562 31 629 61 q 399 0 494 0 l 332 0 z "},"t":{"ha":511,"x_min":28,"x_max":469,"o":"m 356 -17 q 206 34 260 -17 q 151 178 151 85 l 151 911 l 235 911 l 235 178 q 267 91 235 122 q 356 60 299 60 q 388 65 372 60 q 435 90 404 69 l 469 18 q 407 -10 432 -4 q 356 -17 382 -17 m 28 618 l 28 694 l 456 694 l 456 618 l 28 618 z "},"ť":{"ha":524,"x_min":28,"x_max":496,"o":"m 321 768 l 397 1007 l 496 1007 l 399 768 l 321 768 m 356 -17 q 206 34 260 -17 q 151 178 151 85 l 151 911 l 235 911 l 235 178 q 267 91 235 122 q 356 60 299 60 q 388 65 372 60 q 435 90 404 69 l 469 18 q 407 -10 432 -4 q 356 -17 382 -17 m 28 618 l 28 694 l 456 694 l 456 618 l 28 618 z "},"ț":{"ha":511,"x_min":28,"x_max":469,"o":"m 356 -17 q 206 34 260 -17 q 151 178 151 85 l 151 911 l 235 911 l 235 178 q 267 91 235 122 q 356 60 299 60 q 388 65 372 60 q 435 90 404 69 l 469 18 q 407 -10 432 -4 q 356 -17 382 -17 m 28 618 l 28 694 l 456 694 l 456 618 l 28 618 m 183 -278 l 247 -89 l 346 -89 l 261 -278 l 183 -278 z "},"u":{"ha":769,"x_min":83,"x_max":665,"o":"m 588 0 l 582 128 l 582 694 l 665 694 l 665 0 l 588 0 m 83 339 l 83 694 l 167 694 l 167 339 l 83 339 m 167 339 q 194 164 167 224 q 268 83 221 104 q 372 61 315 61 q 526 134 471 61 q 582 338 582 207 l 633 338 q 601 147 633 226 q 508 26 569 68 q 357 -17 447 -17 q 215 16 278 -17 q 118 120 153 49 q 83 307 83 192 l 83 339 l 167 339 z "},"ú":{"ha":769,"x_min":83,"x_max":665,"o":"m 588 0 l 582 128 l 582 694 l 665 694 l 665 0 l 588 0 m 83 339 l 83 694 l 167 694 l 167 339 l 83 339 m 167 339 q 194 164 167 224 q 268 83 221 104 q 372 61 315 61 q 526 134 471 61 q 582 338 582 207 l 633 338 q 601 147 633 226 q 508 26 569 68 q 357 -17 447 -17 q 215 16 278 -17 q 118 120 153 49 q 83 307 83 192 l 83 339 l 167 339 m 299 797 l 464 972 l 582 972 l 404 797 l 299 797 z "},"ŭ":{"ha":769,"x_min":83,"x_max":665,"o":"m 588 0 l 582 128 l 582 694 l 665 694 l 665 0 l 588 0 m 83 339 l 83 694 l 167 694 l 167 339 l 83 339 m 167 339 q 194 164 167 224 q 268 83 221 104 q 372 61 315 61 q 526 134 471 61 q 582 338 582 207 l 633 338 q 601 147 633 226 q 508 26 569 68 q 357 -17 447 -17 q 215 16 278 -17 q 118 120 153 49 q 83 307 83 192 l 83 339 l 167 339 m 385 790 q 268 813 319 790 q 188 878 217 836 q 158 972 158 919 l 242 972 q 282 895 242 925 q 385 865 322 865 q 487 895 447 865 q 526 972 526 925 l 610 972 q 581 878 610 919 q 502 813 553 836 q 385 790 451 790 z "},"û":{"ha":769,"x_min":83,"x_max":665,"o":"m 588 0 l 582 128 l 582 694 l 665 694 l 665 0 l 588 0 m 83 339 l 83 694 l 167 694 l 167 339 l 83 339 m 167 339 q 194 164 167 224 q 268 83 221 104 q 372 61 315 61 q 526 134 471 61 q 582 338 582 207 l 633 338 q 601 147 633 226 q 508 26 569 68 q 357 -17 447 -17 q 215 16 278 -17 q 118 120 153 49 q 83 307 83 192 l 83 339 l 167 339 m 504 814 l 326 988 l 326 989 l 443 989 l 610 814 l 504 814 m 158 814 l 325 989 l 442 989 l 442 988 l 264 814 l 158 814 z "},"ü":{"ha":769,"x_min":83,"x_max":665,"o":"m 588 0 l 582 128 l 582 694 l 665 694 l 665 0 l 588 0 m 83 339 l 83 694 l 167 694 l 167 339 l 83 339 m 167 339 q 194 164 167 224 q 268 83 221 104 q 372 61 315 61 q 526 134 471 61 q 582 338 582 207 l 633 338 q 601 147 633 226 q 508 26 569 68 q 357 -17 447 -17 q 215 16 278 -17 q 118 120 153 49 q 83 307 83 192 l 83 339 l 167 339 m 553 875 q 514 892 531 875 q 497 931 497 908 q 514 970 497 954 q 553 986 531 986 q 592 970 576 986 q 608 931 608 954 q 592 892 608 908 q 553 875 576 875 m 217 875 q 178 892 194 875 q 161 931 161 908 q 178 970 161 954 q 217 986 194 986 q 256 970 240 986 q 272 931 272 954 q 256 892 272 908 q 217 875 240 875 z "},"ù":{"ha":769,"x_min":83,"x_max":665,"o":"m 588 0 l 582 128 l 582 694 l 665 694 l 665 0 l 588 0 m 83 339 l 83 694 l 167 694 l 167 339 l 83 339 m 167 339 q 194 164 167 224 q 268 83 221 104 q 372 61 315 61 q 526 134 471 61 q 582 338 582 207 l 633 338 q 601 147 633 226 q 508 26 569 68 q 357 -17 447 -17 q 215 16 278 -17 q 118 120 153 49 q 83 307 83 192 l 83 339 l 167 339 m 422 797 l 242 974 l 360 974 l 528 797 l 422 797 z "},"ű":{"ha":769,"x_min":83,"x_max":685,"o":"m 588 0 l 582 128 l 582 694 l 665 694 l 665 0 l 588 0 m 83 339 l 83 694 l 167 694 l 167 339 l 83 339 m 167 339 q 194 164 167 224 q 268 83 221 104 q 372 61 315 61 q 526 134 471 61 q 582 338 582 207 l 633 338 q 601 147 633 226 q 508 26 569 68 q 357 -17 447 -17 q 215 16 278 -17 q 118 120 153 49 q 83 307 83 192 l 83 339 l 167 339 m 424 797 l 561 972 l 685 972 l 535 797 l 424 797 m 188 797 l 325 972 l 449 972 l 299 797 l 188 797 z "},"ū":{"ha":769,"x_min":83,"x_max":665,"o":"m 588 0 l 582 128 l 582 694 l 665 694 l 665 0 l 588 0 m 83 339 l 83 694 l 167 694 l 167 339 l 83 339 m 167 339 q 194 164 167 224 q 268 83 221 104 q 372 61 315 61 q 526 134 471 61 q 582 338 582 207 l 633 338 q 601 147 633 226 q 508 26 569 68 q 357 -17 447 -17 q 215 16 278 -17 q 118 120 153 49 q 83 307 83 192 l 83 339 l 167 339 m 176 806 l 176 885 l 593 885 l 593 806 l 176 806 z "},"ų":{"ha":769,"x_min":83,"x_max":689,"o":"m 588 0 l 582 128 l 582 694 l 665 694 l 665 0 l 588 0 m 83 339 l 83 694 l 167 694 l 167 339 l 83 339 m 167 339 q 194 164 167 224 q 268 83 221 104 q 372 61 315 61 q 526 134 471 61 q 582 338 582 207 l 633 338 q 601 147 633 226 q 508 26 569 68 q 357 -17 447 -17 q 215 16 278 -17 q 118 120 153 49 q 83 307 83 192 l 83 339 l 167 339 m 596 -294 q 517 -281 550 -294 q 466 -240 483 -267 q 449 -172 449 -212 q 494 -72 449 -119 q 596 17 539 -25 l 665 0 q 574 -78 617 -36 q 532 -172 532 -121 q 547 -206 532 -194 q 588 -218 561 -218 q 635 -212 614 -218 q 663 -203 656 -206 l 689 -267 q 647 -287 671 -279 q 596 -294 624 -294 z "},"ů":{"ha":769,"x_min":83,"x_max":665,"o":"m 588 0 l 582 128 l 582 694 l 665 694 l 665 0 l 588 0 m 83 339 l 83 694 l 167 694 l 167 339 l 83 339 m 167 339 q 194 164 167 224 q 268 83 221 104 q 372 61 315 61 q 526 134 471 61 q 582 338 582 207 l 633 338 q 601 147 633 226 q 508 26 569 68 q 357 -17 447 -17 q 215 16 278 -17 q 118 120 153 49 q 83 307 83 192 l 83 339 l 167 339 m 385 783 q 324 799 351 783 q 279 842 296 815 q 263 901 263 869 q 279 962 263 935 q 324 1005 296 989 q 385 1021 351 1021 q 446 1005 418 1021 q 490 962 474 989 q 506 901 506 935 q 490 842 506 869 q 446 799 474 815 q 385 783 418 783 m 385 847 q 436 901 436 847 q 385 957 436 957 q 332 901 332 957 q 385 847 332 847 z "},"v":{"ha":703,"x_min":14,"x_max":689,"o":"m 310 0 l 601 694 l 689 694 l 396 0 l 310 0 m 307 0 l 14 694 l 100 694 l 392 0 l 307 0 z "},"w":{"ha":1061,"x_min":14,"x_max":1047,"o":"m 726 0 l 964 694 l 1047 694 l 811 0 l 726 0 m 251 0 l 490 694 l 574 694 l 336 0 l 251 0 m 250 0 l 14 694 l 97 694 l 335 0 l 250 0 m 726 0 l 490 694 l 574 694 l 811 0 l 726 0 z "},"ẃ":{"ha":1061,"x_min":14,"x_max":1047,"o":"m 726 0 l 964 694 l 1047 694 l 811 0 l 726 0 m 251 0 l 490 694 l 574 694 l 336 0 l 251 0 m 250 0 l 14 694 l 97 694 l 335 0 l 250 0 m 726 0 l 490 694 l 574 694 l 811 0 l 726 0 m 446 797 l 611 972 l 729 972 l 551 797 l 446 797 z "},"ŵ":{"ha":1061,"x_min":14,"x_max":1047,"o":"m 726 0 l 964 694 l 1047 694 l 811 0 l 726 0 m 251 0 l 490 694 l 574 694 l 336 0 l 251 0 m 250 0 l 14 694 l 97 694 l 335 0 l 250 0 m 726 0 l 490 694 l 574 694 l 811 0 l 726 0 m 651 814 l 474 988 l 474 989 l 590 989 l 757 814 l 651 814 m 306 814 l 472 989 l 589 989 l 589 988 l 411 814 l 306 814 z "},"ẅ":{"ha":1061,"x_min":14,"x_max":1047,"o":"m 726 0 l 964 694 l 1047 694 l 811 0 l 726 0 m 251 0 l 490 694 l 574 694 l 336 0 l 251 0 m 250 0 l 14 694 l 97 694 l 335 0 l 250 0 m 726 0 l 490 694 l 574 694 l 811 0 l 726 0 m 700 875 q 661 892 678 875 q 644 931 644 908 q 661 970 644 954 q 700 986 678 986 q 740 970 724 986 q 756 931 756 954 q 740 892 756 908 q 700 875 724 875 m 364 875 q 325 892 342 875 q 308 931 308 908 q 325 970 308 954 q 364 986 342 986 q 403 970 388 986 q 419 931 419 954 q 403 892 419 908 q 364 875 388 875 z "},"ẁ":{"ha":1061,"x_min":14,"x_max":1047,"o":"m 726 0 l 964 694 l 1047 694 l 811 0 l 726 0 m 251 0 l 490 694 l 574 694 l 336 0 l 251 0 m 250 0 l 14 694 l 97 694 l 335 0 l 250 0 m 726 0 l 490 694 l 574 694 l 811 0 l 726 0 m 569 797 l 389 974 l 507 974 l 675 797 l 569 797 z "},"x":{"ha":628,"x_min":14,"x_max":614,"o":"m 14 0 l 297 400 l 497 694 l 597 694 l 338 324 l 117 0 l 14 0 m 513 0 l 294 324 l 32 694 l 132 694 l 333 400 l 614 0 l 513 0 z "},"y":{"ha":704,"x_min":14,"x_max":690,"o":"m 138 -294 q 85 -286 115 -294 q 14 -261 54 -278 l 44 -190 q 106 -211 81 -204 q 144 -218 131 -218 q 210 -196 185 -218 q 253 -135 236 -174 l 332 54 l 603 694 l 690 694 l 350 -111 q 298 -210 325 -169 q 233 -273 271 -251 q 138 -294 194 -294 m 308 0 l 15 694 l 101 694 l 369 56 l 393 0 l 308 0 z "},"ý":{"ha":704,"x_min":14,"x_max":690,"o":"m 138 -294 q 85 -286 115 -294 q 14 -261 54 -278 l 44 -190 q 106 -211 81 -204 q 144 -218 131 -218 q 210 -196 185 -218 q 253 -135 236 -174 l 332 54 l 603 694 l 690 694 l 350 -111 q 298 -210 325 -169 q 233 -273 271 -251 q 138 -294 194 -294 m 308 0 l 15 694 l 101 694 l 369 56 l 393 0 l 308 0 m 265 797 l 431 972 l 549 972 l 371 797 l 265 797 z "},"ŷ":{"ha":704,"x_min":14,"x_max":690,"o":"m 138 -294 q 85 -286 115 -294 q 14 -261 54 -278 l 44 -190 q 106 -211 81 -204 q 144 -218 131 -218 q 210 -196 185 -218 q 253 -135 236 -174 l 332 54 l 603 694 l 690 694 l 350 -111 q 298 -210 325 -169 q 233 -273 271 -251 q 138 -294 194 -294 m 308 0 l 15 694 l 101 694 l 369 56 l 393 0 l 308 0 m 471 814 l 293 988 l 293 989 l 410 989 l 576 814 l 471 814 m 125 814 l 292 989 l 408 989 l 408 988 l 231 814 l 125 814 z "},"ÿ":{"ha":704,"x_min":14,"x_max":690,"o":"m 138 -294 q 85 -286 115 -294 q 14 -261 54 -278 l 44 -190 q 106 -211 81 -204 q 144 -218 131 -218 q 210 -196 185 -218 q 253 -135 236 -174 l 332 54 l 603 694 l 690 694 l 350 -111 q 298 -210 325 -169 q 233 -273 271 -251 q 138 -294 194 -294 m 308 0 l 15 694 l 101 694 l 369 56 l 393 0 l 308 0 m 519 875 q 481 892 497 875 q 464 931 464 908 q 481 970 464 954 q 519 986 497 986 q 559 970 543 986 q 575 931 575 954 q 559 892 575 908 q 519 875 543 875 m 183 875 q 144 892 161 875 q 128 931 128 908 q 144 970 128 954 q 183 986 161 986 q 223 970 207 986 q 239 931 239 954 q 223 892 239 908 q 183 875 207 875 z "},"ỳ":{"ha":704,"x_min":14,"x_max":690,"o":"m 138 -294 q 85 -286 115 -294 q 14 -261 54 -278 l 44 -190 q 106 -211 81 -204 q 144 -218 131 -218 q 210 -196 185 -218 q 253 -135 236 -174 l 332 54 l 603 694 l 690 694 l 350 -111 q 298 -210 325 -169 q 233 -273 271 -251 q 138 -294 194 -294 m 308 0 l 15 694 l 101 694 l 369 56 l 393 0 l 308 0 m 389 797 l 208 974 l 326 974 l 494 797 l 389 797 z "},"z":{"ha":690,"x_min":69,"x_max":621,"o":"m 69 0 l 69 72 l 506 618 l 69 618 l 69 694 l 617 694 l 617 626 l 179 76 l 621 76 l 621 0 l 69 0 z "},"ź":{"ha":690,"x_min":69,"x_max":621,"o":"m 69 0 l 69 72 l 506 618 l 69 618 l 69 694 l 617 694 l 617 626 l 179 76 l 621 76 l 621 0 l 69 0 m 257 797 l 422 972 l 540 972 l 363 797 l 257 797 z "},"ž":{"ha":690,"x_min":69,"x_max":621,"o":"m 69 0 l 69 72 l 506 618 l 69 618 l 69 694 l 617 694 l 617 626 l 179 76 l 621 76 l 621 0 l 69 0 m 290 797 l 290 799 l 460 972 l 568 972 l 401 797 l 290 797 m 283 797 l 117 972 l 225 972 l 394 799 l 394 797 l 283 797 z "},"ż":{"ha":690,"x_min":69,"x_max":621,"o":"m 69 0 l 69 72 l 506 618 l 69 618 l 69 694 l 617 694 l 617 626 l 179 76 l 621 76 l 621 0 l 69 0 m 343 875 q 304 892 321 875 q 288 931 288 908 q 304 970 288 954 q 343 986 321 986 q 383 970 367 986 q 399 931 399 954 q 383 892 399 908 q 343 875 367 875 z "},"ª":{"ha":457,"x_min":43,"x_max":399,"o":"m 324 556 l 317 772 q 306 849 315 818 q 276 895 297 879 q 215 911 254 911 q 158 897 181 911 q 121 858 136 883 l 46 886 q 117 958 74 933 q 217 982 160 982 q 353 931 307 982 q 399 782 399 879 l 399 556 l 324 556 m 199 546 q 84 580 125 546 q 43 674 43 614 q 84 769 43 735 q 199 803 125 803 l 343 803 l 343 743 l 222 743 q 126 674 126 743 q 148 628 126 644 q 208 611 169 611 q 288 644 258 611 q 317 729 317 676 l 361 733 q 318 597 361 647 q 199 546 275 546 z "},"º":{"ha":508,"x_min":43,"x_max":465,"o":"m 256 546 q 145 574 193 546 q 70 651 97 601 q 43 764 43 700 q 70 877 43 828 q 145 954 97 926 q 254 982 193 982 q 406 921 347 982 q 465 764 465 860 q 438 651 465 700 q 364 574 411 601 q 256 546 317 546 m 256 622 q 346 662 311 622 q 381 764 381 701 q 345 866 381 826 q 254 906 310 906 q 163 866 199 906 q 128 764 128 826 q 164 662 128 701 q 256 622 200 622 z "},"⁄":{"ha":300,"x_min":-236,"x_max":536,"o":"m -236 0 l 432 972 l 536 972 l -132 0 l -236 0 z "},"½":{"ha":1190,"x_min":63,"x_max":1126,"o":"m 190 389 l 190 926 l 199 972 l 275 972 l 275 389 l 190 389 m 63 810 l 63 888 q 128 913 89 888 q 199 972 167 938 l 253 915 q 158 837 206 867 q 63 810 111 807 m 156 0 l 824 972 l 928 972 l 260 0 l 156 0 m 831 60 l 744 68 q 757 122 744 94 q 793 178 769 150 q 849 229 817 206 l 957 310 q 1008 360 986 331 q 1029 419 1029 390 q 1001 487 1029 460 q 924 514 972 514 q 848 488 876 514 q 810 429 819 461 l 721 446 q 758 518 731 485 q 826 572 785 551 q 921 593 868 593 q 1065 544 1011 593 q 1118 421 1118 496 q 1092 331 1118 371 q 1015 251 1065 290 l 911 174 q 872 139 890 158 q 843 99 854 119 q 831 60 832 79 m 744 0 l 744 68 l 810 78 l 1126 78 l 1126 0 l 744 0 z "},"¼":{"ha":1144,"x_min":63,"x_max":1115,"o":"m 190 389 l 190 926 l 199 972 l 275 972 l 275 389 l 190 389 m 63 810 l 63 888 q 128 913 89 888 q 199 972 167 938 l 253 915 q 158 837 206 867 q 63 810 111 807 m 156 0 l 824 972 l 928 972 l 260 0 l 156 0 m 714 163 l 650 200 l 913 583 l 967 535 l 714 163 m 650 131 l 650 200 l 703 207 l 1115 207 l 1115 131 l 650 131 m 919 0 l 919 532 l 913 583 l 1003 583 l 1003 0 l 919 0 z "},"¾":{"ha":1244,"x_min":65,"x_max":1215,"o":"m 250 379 q 131 410 178 379 q 65 483 83 442 l 142 515 q 182 472 158 489 q 244 456 206 456 q 326 485 296 456 q 356 558 356 514 q 338 613 356 590 q 287 649 321 636 q 203 661 253 661 l 179 661 l 179 725 l 200 725 q 324 704 269 725 q 411 644 379 683 q 443 550 443 606 q 417 459 443 497 q 347 400 390 421 q 250 379 303 379 m 179 672 l 179 735 l 203 735 q 306 757 268 735 q 343 821 343 779 q 316 881 343 856 q 243 906 289 906 q 188 892 214 906 q 144 850 163 879 l 71 881 q 112 935 86 913 q 172 970 138 958 q 247 982 207 982 q 341 962 300 982 q 406 907 382 942 q 431 828 431 872 q 399 743 431 778 q 315 690 368 708 q 200 672 263 672 l 179 672 m 256 0 l 924 972 l 1028 972 l 360 0 l 256 0 m 814 163 l 750 200 l 1013 583 l 1067 535 l 814 163 m 750 131 l 750 200 l 803 207 l 1215 207 l 1215 131 l 750 131 m 1019 0 l 1019 532 l 1013 583 l 1103 583 l 1103 0 l 1019 0 z "},"⅛":{"ha":1236,"x_min":63,"x_max":1178,"o":"m 190 389 l 190 926 l 199 972 l 275 972 l 275 389 l 190 389 m 63 810 l 63 888 q 128 913 89 888 q 199 972 167 938 l 253 915 q 158 837 206 867 q 63 810 111 807 m 156 0 l 824 972 l 928 972 l 260 0 l 156 0 m 964 -8 q 808 36 865 -8 q 750 153 750 81 q 808 277 750 229 q 964 325 865 325 q 1120 277 1063 325 q 1178 153 1178 229 q 1120 36 1178 81 q 964 -8 1063 -8 m 964 65 q 1053 92 1018 65 q 1089 163 1089 119 q 1054 235 1089 207 q 964 264 1019 264 q 874 235 908 264 q 839 163 839 207 q 874 92 839 119 q 964 65 908 65 m 964 339 q 1042 364 1011 339 q 1072 428 1072 389 q 1042 496 1072 469 q 964 522 1011 522 q 886 496 917 522 q 856 428 856 469 q 886 364 856 389 q 964 339 917 339 m 964 282 q 823 325 875 282 q 771 436 771 368 q 823 550 771 506 q 964 594 875 594 q 1105 550 1053 594 q 1157 436 1157 506 q 1104 325 1157 368 q 964 282 1051 282 z "},"⅜":{"ha":1336,"x_min":65,"x_max":1278,"o":"m 250 379 q 131 410 178 379 q 65 483 83 442 l 142 515 q 182 472 158 489 q 244 456 206 456 q 326 485 296 456 q 356 558 356 514 q 338 613 356 590 q 287 649 321 636 q 203 661 253 661 l 179 661 l 179 725 l 200 725 q 324 704 269 725 q 411 644 379 683 q 443 550 443 606 q 417 459 443 497 q 347 400 390 421 q 250 379 303 379 m 179 672 l 179 735 l 203 735 q 306 757 268 735 q 343 821 343 779 q 316 881 343 856 q 243 906 289 906 q 188 892 214 906 q 144 850 163 879 l 71 881 q 112 935 86 913 q 172 970 138 958 q 247 982 207 982 q 341 962 300 982 q 406 907 382 942 q 431 828 431 872 q 399 743 431 778 q 315 690 368 708 q 200 672 263 672 l 179 672 m 256 0 l 924 972 l 1028 972 l 360 0 l 256 0 m 1064 -8 q 908 36 965 -8 q 850 153 850 81 q 908 277 850 229 q 1064 325 965 325 q 1220 277 1163 325 q 1278 153 1278 229 q 1220 36 1278 81 q 1064 -8 1163 -8 m 1064 65 q 1153 92 1118 65 q 1189 163 1189 119 q 1154 235 1189 207 q 1064 264 1119 264 q 974 235 1008 264 q 939 163 939 207 q 974 92 939 119 q 1064 65 1008 65 m 1064 339 q 1142 364 1111 339 q 1172 428 1172 389 q 1142 496 1172 469 q 1064 522 1111 522 q 986 496 1017 522 q 956 428 956 469 q 986 364 956 389 q 1064 339 1017 339 m 1064 282 q 923 325 975 282 q 871 436 871 368 q 923 550 871 506 q 1064 594 975 594 q 1205 550 1153 594 q 1257 436 1257 506 q 1204 325 1257 368 q 1064 282 1151 282 z "},"⅝":{"ha":1357,"x_min":64,"x_max":1299,"o":"m 261 379 q 186 391 225 379 q 115 426 147 403 q 64 485 83 450 l 139 517 q 194 469 164 485 q 258 454 225 454 q 344 486 311 454 q 376 569 376 518 q 344 653 376 621 q 261 686 313 686 q 206 674 232 686 q 164 642 179 661 l 86 660 l 117 972 l 435 972 l 435 893 l 125 893 l 117 969 l 203 969 l 165 654 l 108 660 q 148 704 122 682 q 208 741 174 726 q 283 756 243 756 q 413 704 361 756 q 464 574 464 653 q 407 433 464 488 q 261 379 350 379 m 276 0 l 944 972 l 1049 972 l 381 0 l 276 0 m 1085 -8 q 928 36 986 -8 q 871 153 871 81 q 928 277 871 229 q 1085 325 986 325 q 1241 277 1183 325 q 1299 153 1299 229 q 1241 36 1299 81 q 1085 -8 1183 -8 m 1085 65 q 1174 92 1139 65 q 1210 163 1210 119 q 1175 235 1210 207 q 1085 264 1140 264 q 994 235 1029 264 q 960 163 960 207 q 994 92 960 119 q 1085 65 1029 65 m 1085 339 q 1163 364 1132 339 q 1193 428 1193 389 q 1163 496 1193 469 q 1085 522 1132 522 q 1007 496 1038 522 q 976 428 976 469 q 1007 364 976 389 q 1085 339 1038 339 m 1085 282 q 944 325 996 282 q 892 436 892 368 q 944 550 892 506 q 1085 594 996 594 q 1226 550 1174 594 q 1278 436 1278 506 q 1225 325 1278 368 q 1085 282 1172 282 z "},"⅞":{"ha":1258,"x_min":43,"x_max":1200,"o":"m 83 389 l 353 910 l 440 904 l 179 389 l 83 389 m 43 893 l 43 972 l 440 972 l 440 904 l 363 893 l 43 893 m 178 0 l 846 972 l 950 972 l 282 0 l 178 0 m 986 -8 q 830 36 888 -8 q 772 153 772 81 q 830 277 772 229 q 986 325 888 325 q 1142 277 1085 325 q 1200 153 1200 229 q 1142 36 1200 81 q 986 -8 1085 -8 m 986 65 q 1076 92 1040 65 q 1111 163 1111 119 q 1076 235 1111 207 q 986 264 1042 264 q 896 235 931 264 q 861 163 861 207 q 896 92 861 119 q 986 65 931 65 m 986 339 q 1064 364 1033 339 q 1094 428 1094 389 q 1064 496 1094 469 q 986 522 1033 522 q 908 496 939 522 q 878 428 878 469 q 908 364 878 389 q 986 339 939 339 m 986 282 q 845 325 897 282 q 793 436 793 368 q 845 550 793 506 q 986 594 897 594 q 1127 550 1075 594 q 1179 436 1179 506 q 1126 325 1179 368 q 986 282 1074 282 z "},"₀":{"ha":564,"x_min":49,"x_max":515,"o":"m 283 -147 q 162 -109 215 -147 q 78 -3 108 -71 q 49 154 49 65 q 78 312 49 244 q 161 417 108 379 q 282 456 214 456 q 403 417 351 456 q 485 312 456 379 q 515 154 515 244 q 485 -3 515 65 q 403 -109 456 -71 q 283 -147 351 -147 m 283 -68 q 390 -6 349 -68 q 431 154 431 57 q 389 315 431 253 q 282 378 347 378 q 177 315 218 378 q 136 154 136 253 q 178 -6 136 57 q 283 -68 219 -68 z "},"₁":{"ha":392,"x_min":63,"x_max":275,"o":"m 190 -139 l 190 399 l 199 444 l 275 444 l 275 -139 l 190 -139 m 63 282 l 63 360 q 128 385 89 360 q 199 444 167 410 l 253 388 q 158 309 206 339 q 63 282 111 279 z "},"₂":{"ha":499,"x_min":29,"x_max":435,"o":"m 139 -79 l 53 -71 q 65 -17 53 -44 q 101 39 78 11 q 157 90 125 67 l 265 171 q 316 222 294 192 q 338 281 338 251 q 309 348 338 321 q 232 375 281 375 q 156 349 185 375 q 118 290 128 322 l 29 307 q 66 379 39 346 q 135 433 93 413 q 229 454 176 454 q 373 406 319 454 q 426 282 426 357 q 400 192 426 232 q 324 113 374 151 l 219 35 q 181 0 199 19 q 151 -40 163 -19 q 139 -79 140 -60 m 53 -139 l 53 -71 l 118 -61 l 435 -61 l 435 -139 l 53 -139 z "},"₃":{"ha":492,"x_min":65,"x_max":443,"o":"m 250 -147 q 131 -116 178 -147 q 65 -43 83 -85 l 142 -11 q 182 -54 158 -37 q 244 -71 206 -71 q 326 -42 296 -71 q 356 32 356 -12 q 338 87 356 64 q 287 122 321 110 q 203 135 253 135 l 179 135 l 179 199 l 200 199 q 324 178 269 199 q 411 118 379 157 q 443 24 443 79 q 417 -67 443 -29 q 347 -126 390 -106 q 250 -147 303 -147 m 179 146 l 179 208 l 203 208 q 306 231 268 208 q 343 294 343 253 q 316 354 343 329 q 243 379 289 379 q 188 366 214 379 q 144 324 163 353 l 71 354 q 112 409 86 386 q 172 444 138 432 q 247 456 207 456 q 341 435 300 456 q 406 381 382 415 q 431 301 431 346 q 399 217 431 251 q 315 164 368 182 q 200 146 263 146 l 179 146 z "},"₄":{"ha":543,"x_min":49,"x_max":514,"o":"m 113 24 l 49 61 l 311 444 l 365 396 l 113 24 m 49 -8 l 49 61 l 101 68 l 514 68 l 514 -8 l 49 -8 m 318 -139 l 318 393 l 311 444 l 401 444 l 401 -139 l 318 -139 z "},"₅":{"ha":513,"x_min":64,"x_max":464,"o":"m 261 -147 q 186 -135 225 -147 q 115 -100 147 -124 q 64 -42 83 -76 l 139 -10 q 194 -57 164 -42 q 258 -72 225 -72 q 344 -40 311 -72 q 376 43 376 -8 q 344 127 376 94 q 261 160 313 160 q 206 147 232 160 q 164 115 179 135 l 86 133 l 117 446 l 435 446 l 435 367 l 125 367 l 117 443 l 203 443 l 165 128 l 108 133 q 148 178 122 156 q 208 215 174 200 q 283 229 243 229 q 413 178 361 229 q 464 47 464 126 q 407 -93 464 -39 q 261 -147 350 -147 z "},"₆":{"ha":492,"x_min":47,"x_max":463,"o":"m 260 -147 q 134 -109 181 -147 q 67 -7 88 -71 q 47 133 47 57 q 62 265 47 206 q 106 367 76 324 q 178 433 135 410 q 276 456 221 456 q 364 442 319 456 q 443 404 408 429 l 397 342 q 339 370 371 361 q 282 379 307 379 q 164 313 206 379 q 126 111 122 247 l 108 125 q 171 203 128 174 q 271 232 214 232 q 371 207 328 232 q 438 139 414 182 q 463 40 463 96 q 406 -94 463 -42 q 260 -147 350 -147 m 261 -72 q 344 -40 311 -72 q 376 43 376 -8 q 344 127 376 94 q 261 160 311 160 q 177 127 210 160 q 144 43 144 94 q 177 -40 144 -8 q 261 -72 210 -72 z "},"₇":{"ha":469,"x_min":43,"x_max":440,"o":"m 83 -139 l 353 382 l 440 376 l 179 -139 l 83 -139 m 43 365 l 43 444 l 440 444 l 440 376 l 363 365 l 43 365 z "},"₈":{"ha":544,"x_min":58,"x_max":486,"o":"m 272 -147 q 116 -103 174 -147 q 58 14 58 -58 q 116 138 58 90 q 272 186 174 186 q 428 138 371 186 q 486 14 486 90 q 428 -103 486 -58 q 272 -147 371 -147 m 272 -74 q 362 -47 326 -74 q 397 24 397 -19 q 363 97 397 68 q 272 125 328 125 q 182 97 217 125 q 147 24 147 68 q 182 -47 147 -19 q 272 -74 217 -74 m 272 200 q 350 225 319 200 q 381 289 381 250 q 350 357 381 331 q 272 383 319 383 q 194 357 225 383 q 164 289 164 331 q 194 225 164 250 q 272 200 225 200 m 272 143 q 131 186 183 143 q 79 297 79 229 q 131 411 79 367 q 272 456 183 456 q 413 411 361 456 q 465 297 465 367 q 413 186 465 229 q 272 143 360 143 z "},"₉":{"ha":492,"x_min":29,"x_max":444,"o":"m 215 -147 q 128 -134 172 -147 q 50 -96 85 -121 l 96 -33 q 153 -61 122 -51 q 210 -71 185 -71 q 328 -5 288 -71 q 365 197 369 61 l 383 183 q 321 105 364 133 q 221 76 278 76 q 122 101 165 76 q 53 170 78 126 q 29 268 29 214 q 85 403 29 350 q 232 456 142 456 q 358 417 313 456 q 424 315 404 378 q 444 175 444 251 q 430 45 444 104 q 386 -57 415 -14 q 315 -124 357 -100 q 215 -147 272 -147 m 231 149 q 315 182 282 149 q 347 265 347 215 q 315 348 347 315 q 231 381 282 381 q 148 348 181 381 q 115 265 115 315 q 149 181 115 214 q 231 149 182 149 z "},"⁰":{"ha":564,"x_min":49,"x_max":515,"o":"m 283 518 q 162 556 215 518 q 78 663 108 594 q 49 819 49 731 q 78 977 49 910 q 161 1083 108 1044 q 282 1121 214 1121 q 403 1083 351 1121 q 485 977 456 1044 q 515 819 515 910 q 485 663 515 731 q 403 556 456 594 q 283 518 351 518 m 283 597 q 390 660 349 597 q 431 819 431 722 q 389 981 431 918 q 282 1043 347 1043 q 177 981 218 1043 q 136 819 136 918 q 178 660 136 722 q 283 597 219 597 z "},"¹":{"ha":392,"x_min":63,"x_max":275,"o":"m 190 528 l 190 1065 l 199 1111 l 275 1111 l 275 528 l 190 528 m 63 949 l 63 1026 q 128 1051 89 1026 q 199 1111 167 1076 l 253 1054 q 158 976 206 1006 q 63 949 111 946 z "},"²":{"ha":499,"x_min":29,"x_max":435,"o":"m 139 588 l 53 596 q 65 650 53 622 q 101 706 78 678 q 157 757 125 733 l 265 838 q 316 888 294 858 q 338 947 338 918 q 309 1015 338 988 q 232 1042 281 1042 q 156 1015 185 1042 q 118 957 128 989 l 29 974 q 66 1046 39 1013 q 135 1100 93 1079 q 229 1121 176 1121 q 373 1072 319 1121 q 426 949 426 1024 q 400 858 426 899 q 324 779 374 818 l 219 701 q 181 667 199 686 q 151 627 163 647 q 139 588 140 607 m 53 528 l 53 596 l 118 606 l 435 606 l 435 528 l 53 528 z "},"³":{"ha":492,"x_min":65,"x_max":443,"o":"m 250 518 q 131 549 178 518 q 65 622 83 581 l 142 654 q 182 611 158 628 q 244 594 206 594 q 326 624 296 594 q 356 697 356 653 q 338 752 356 729 q 287 788 321 775 q 203 800 253 800 l 179 800 l 179 864 l 200 864 q 324 843 269 864 q 411 783 379 822 q 443 689 443 744 q 417 598 443 636 q 347 539 390 560 q 250 518 303 518 m 179 811 l 179 874 l 203 874 q 306 896 268 874 q 343 960 343 918 q 316 1019 343 994 q 243 1044 289 1044 q 188 1031 214 1044 q 144 989 163 1018 l 71 1019 q 112 1074 86 1051 q 172 1109 138 1097 q 247 1121 207 1121 q 341 1101 300 1121 q 406 1046 382 1081 q 431 967 431 1011 q 399 882 431 917 q 315 829 368 847 q 200 811 263 811 l 179 811 z "},"⁴":{"ha":543,"x_min":49,"x_max":514,"o":"m 113 690 l 49 728 l 311 1111 l 365 1063 l 113 690 m 49 658 l 49 728 l 101 735 l 514 735 l 514 658 l 49 658 m 318 528 l 318 1060 l 311 1111 l 401 1111 l 401 528 l 318 528 z "},"⁵":{"ha":513,"x_min":64,"x_max":464,"o":"m 261 518 q 186 530 225 518 q 115 565 147 542 q 64 624 83 589 l 139 656 q 194 608 164 624 q 258 593 225 593 q 344 625 311 593 q 376 708 376 657 q 344 792 376 760 q 261 825 313 825 q 206 813 232 825 q 164 781 179 800 l 86 799 l 117 1111 l 435 1111 l 435 1032 l 125 1032 l 117 1108 l 203 1108 l 165 793 l 108 799 q 148 843 122 821 q 208 880 174 865 q 283 894 243 894 q 413 843 361 894 q 464 713 464 792 q 407 572 464 626 q 261 518 350 518 z "},"⁶":{"ha":492,"x_min":47,"x_max":463,"o":"m 260 518 q 134 556 181 518 q 67 658 88 594 q 47 799 47 722 q 62 930 47 871 q 106 1032 76 989 q 178 1098 135 1075 q 276 1121 221 1121 q 364 1108 319 1121 q 443 1069 408 1094 l 397 1007 q 339 1035 371 1026 q 282 1044 307 1044 q 164 978 206 1044 q 126 776 122 913 l 108 790 q 171 868 128 839 q 271 897 214 897 q 371 872 328 897 q 438 804 414 847 q 463 706 463 761 q 406 571 463 624 q 260 518 350 518 m 261 593 q 344 625 311 593 q 376 708 376 657 q 344 792 376 760 q 261 825 311 825 q 177 792 210 825 q 144 708 144 760 q 177 625 144 657 q 261 593 210 593 z "},"⁷":{"ha":469,"x_min":43,"x_max":440,"o":"m 83 528 l 353 1049 l 440 1043 l 179 528 l 83 528 m 43 1032 l 43 1111 l 440 1111 l 440 1043 l 363 1032 l 43 1032 z "},"⁸":{"ha":544,"x_min":58,"x_max":486,"o":"m 272 518 q 116 563 174 518 q 58 679 58 607 q 116 803 58 756 q 272 851 174 851 q 428 803 371 851 q 486 679 486 756 q 428 563 486 607 q 272 518 371 518 m 272 592 q 362 619 326 592 q 397 689 397 646 q 363 762 397 733 q 272 790 328 790 q 182 762 217 790 q 147 689 147 733 q 182 619 147 646 q 272 592 217 592 m 272 865 q 350 890 319 865 q 381 954 381 915 q 350 1022 381 996 q 272 1049 319 1049 q 194 1022 225 1049 q 164 954 164 996 q 194 890 164 915 q 272 865 225 865 m 272 808 q 131 851 183 808 q 79 963 79 894 q 131 1076 79 1032 q 272 1121 183 1121 q 413 1076 361 1121 q 465 963 465 1032 q 413 851 465 894 q 272 808 360 808 z "},"⁹":{"ha":492,"x_min":29,"x_max":444,"o":"m 215 518 q 128 531 172 518 q 50 569 85 544 l 96 632 q 153 604 122 614 q 210 594 185 594 q 328 660 288 594 q 365 863 369 726 l 383 849 q 321 770 364 799 q 221 742 278 742 q 122 767 165 742 q 53 835 78 792 q 29 933 29 879 q 85 1068 29 1015 q 232 1121 142 1121 q 358 1082 313 1121 q 424 980 404 1043 q 444 840 444 917 q 430 710 444 769 q 386 608 415 651 q 315 542 357 565 q 215 518 272 518 m 231 814 q 315 847 282 814 q 347 931 347 881 q 315 1013 347 981 q 231 1046 282 1046 q 148 1013 181 1046 q 115 931 115 981 q 149 847 115 879 q 231 814 182 814 z "}," ":{"ha":347,"x_min":0,"x_max":0,"o":""}," ":{"ha":347,"x_min":0,"x_max":0,"o":""},"\r":{"ha":833,"x_min":0,"x_max":0,"o":""},".":{"ha":267,"x_min":69,"x_max":197,"o":"m 133 -19 q 88 -1 107 -19 q 69 44 69 18 q 88 90 69 71 q 133 108 107 108 q 178 90 160 108 q 197 44 197 71 q 178 -1 197 18 q 133 -19 160 -19 z "},",":{"ha":297,"x_min":63,"x_max":238,"o":"m 63 -161 l 139 119 l 238 119 l 140 -161 l 63 -161 z "},":":{"ha":325,"x_min":97,"x_max":228,"o":"m 161 569 q 116 588 135 569 q 97 633 97 607 q 116 678 97 660 q 161 697 135 697 q 206 678 188 697 q 225 633 225 660 q 206 588 225 607 q 161 569 188 569 m 164 -3 q 119 16 138 -3 q 100 61 100 35 q 119 106 100 88 q 164 125 138 125 q 209 106 190 125 q 228 61 228 88 q 209 16 228 35 q 164 -3 190 -3 z "},";":{"ha":335,"x_min":63,"x_max":238,"o":"m 156 569 q 110 588 129 569 q 92 633 92 607 q 110 678 92 660 q 156 697 129 697 q 201 678 182 697 q 219 633 219 660 q 201 588 219 607 q 156 569 182 569 m 63 -161 l 139 119 l 238 119 l 140 -161 l 63 -161 z "},"…":{"ha":800,"x_min":69,"x_max":731,"o":"m 133 -19 q 88 -1 107 -19 q 69 44 69 18 q 88 90 69 71 q 133 108 107 108 q 178 90 160 108 q 197 44 197 71 q 178 -1 197 18 q 133 -19 160 -19 m 400 -19 q 355 -1 374 -19 q 336 44 336 18 q 355 90 336 71 q 400 108 374 108 q 445 90 426 108 q 464 44 464 71 q 445 -1 464 18 q 400 -19 426 -19 m 667 -19 q 622 -1 640 -19 q 603 44 603 18 q 622 90 603 71 q 667 108 640 108 q 712 90 693 108 q 731 44 731 71 q 712 -1 731 18 q 667 -19 693 -19 z "},"!":{"ha":406,"x_min":139,"x_max":267,"o":"m 158 268 l 158 972 l 247 972 l 247 268 l 158 268 m 203 -19 q 158 -1 176 -19 q 139 44 139 18 q 158 90 139 71 q 203 108 176 108 q 248 90 229 108 q 267 44 267 71 q 248 -1 267 18 q 203 -19 229 -19 z "},"¡":{"ha":406,"x_min":139,"x_max":267,"o":"m 247 424 l 247 -281 l 158 -281 l 158 424 l 247 424 m 203 711 q 248 692 229 711 q 267 647 267 674 q 248 602 267 621 q 203 583 229 583 q 158 602 176 583 q 139 647 139 621 q 158 692 139 674 q 203 711 176 711 z "},"?":{"ha":694,"x_min":49,"x_max":625,"o":"m 250 254 l 250 503 l 311 503 q 473 559 410 503 q 536 708 536 615 q 476 852 536 796 q 322 908 417 908 q 200 876 253 908 q 129 796 147 844 l 49 824 q 148 942 76 896 q 322 989 219 989 q 479 953 411 989 q 586 853 547 917 q 625 708 625 790 q 589 565 625 628 q 488 466 553 503 q 339 424 424 429 l 339 254 l 250 254 m 294 -19 q 249 -1 267 -19 q 231 44 231 17 q 249 90 231 72 q 294 108 267 108 q 340 90 322 108 q 358 44 358 72 q 340 -1 358 17 q 294 -19 322 -19 z "},"¿":{"ha":639,"x_min":28,"x_max":604,"o":"m 403 439 l 403 190 l 342 190 q 180 134 243 190 q 117 -15 117 78 q 177 -159 117 -103 q 331 -215 238 -215 q 453 -183 400 -215 q 524 -103 506 -151 l 604 -131 q 506 -249 578 -203 q 331 -296 433 -296 q 174 -260 242 -296 q 67 -160 106 -224 q 28 -15 28 -97 q 64 128 28 67 q 165 227 100 190 q 314 269 229 264 l 314 439 l 403 439 m 358 713 q 404 694 386 713 q 422 649 422 676 q 404 603 422 621 q 358 585 386 585 q 313 603 331 585 q 294 649 294 621 q 313 694 294 676 q 358 713 331 713 z "},"·":{"ha":350,"x_min":111,"x_max":239,"o":"m 175 382 q 130 401 149 382 q 111 446 111 419 q 130 491 111 472 q 175 510 149 510 q 220 491 201 510 q 239 446 239 472 q 220 401 239 419 q 175 382 201 382 z "},"•":{"ha":690,"x_min":208,"x_max":482,"o":"m 344 254 q 276 273 307 254 q 227 323 246 292 q 208 392 208 354 q 227 460 208 429 q 276 510 246 492 q 344 528 307 528 q 413 510 382 528 q 463 460 444 492 q 482 392 482 429 q 463 323 482 354 q 413 273 444 292 q 344 254 382 254 z "},"*":{"ha":664,"x_min":97,"x_max":567,"o":"m 440 551 l 310 746 l 365 785 l 508 600 l 440 551 m 229 547 l 161 597 l 306 781 l 360 740 l 229 547 m 321 731 l 97 794 l 124 875 l 343 794 l 321 731 m 299 761 l 290 994 l 374 994 l 365 761 l 299 761 m 342 729 l 322 793 l 542 872 l 567 793 l 342 729 z "},"#":{"ha":872,"x_min":14,"x_max":858,"o":"m 483 0 l 636 972 l 708 972 l 556 0 l 483 0 m 14 278 l 22 336 l 803 336 l 794 278 l 14 278 m 164 0 l 317 972 l 389 972 l 236 0 l 164 0 m 69 636 l 78 694 l 858 694 l 850 636 l 69 636 z "},"/":{"ha":517,"x_min":21,"x_max":496,"o":"m 21 -117 l 404 1038 l 496 1038 l 115 -117 l 21 -117 z "},"\\":{"ha":517,"x_min":21,"x_max":496,"o":"m 496 -117 l 401 -117 l 21 1038 l 113 1038 l 496 -117 z "},"-":{"ha":583,"x_min":83,"x_max":500,"o":"m 83 374 l 83 453 l 500 453 l 500 374 l 83 374 z "},"–":{"ha":764,"x_min":0,"x_max":764,"o":"m 0 374 l 0 453 l 764 453 l 764 374 l 0 374 z "},"—":{"ha":1528,"x_min":0,"x_max":1528,"o":"m 0 374 l 0 453 l 1528 453 l 1528 374 l 0 374 z "},"_":{"ha":611,"x_min":28,"x_max":583,"o":"m 28 -79 l 28 0 l 583 0 l 583 -79 l 28 -79 z "},"(":{"ha":472,"x_min":83,"x_max":403,"o":"m 314 -139 q 197 45 250 -54 q 114 256 144 144 q 83 486 83 367 q 114 717 83 607 q 197 927 144 828 q 314 1111 250 1026 l 403 1111 q 286 921 339 1022 q 203 710 233 819 q 172 486 172 601 q 203 263 172 372 q 286 52 233 153 q 403 -139 339 -49 l 314 -139 z "},")":{"ha":472,"x_min":69,"x_max":389,"o":"m 158 -139 l 69 -139 q 187 52 135 -49 q 269 263 239 153 q 300 486 300 372 q 269 710 300 601 q 187 921 239 819 q 69 1111 135 1022 l 158 1111 q 276 927 224 1026 q 358 717 328 828 q 389 486 389 607 q 358 256 389 367 q 276 45 328 144 q 158 -139 224 -54 z "},"{":{"ha":531,"x_min":83,"x_max":447,"o":"m 83 471 l 83 521 q 169 537 139 521 q 210 594 199 553 q 222 711 222 635 q 232 908 222 831 q 267 1031 242 986 q 335 1093 292 1075 q 447 1111 379 1111 l 447 1031 q 364 1002 393 1029 q 323 907 335 975 q 311 713 311 839 q 292 564 311 617 q 224 491 274 511 q 83 471 175 471 m 447 -139 q 335 -121 379 -139 q 267 -58 292 -103 q 232 64 242 -14 q 222 261 222 142 q 210 378 222 338 q 169 435 199 419 q 83 451 139 451 l 83 501 q 224 481 175 501 q 292 409 274 461 q 311 260 311 357 q 323 66 311 135 q 364 -30 335 -3 q 447 -58 393 -57 l 447 -139 z "},"}":{"ha":531,"x_min":83,"x_max":447,"o":"m 447 471 q 307 491 357 471 q 238 564 257 511 q 219 713 219 617 q 208 907 219 839 q 167 1002 197 975 q 83 1031 138 1029 l 83 1111 q 195 1093 151 1111 q 264 1031 239 1075 q 299 908 289 986 q 308 711 308 831 q 320 594 308 635 q 362 537 332 553 q 447 521 392 521 l 447 471 m 83 -139 l 83 -58 q 167 -30 138 -57 q 208 66 197 -3 q 219 260 219 135 q 238 409 219 357 q 307 481 257 461 q 447 501 357 501 l 447 451 q 362 435 392 451 q 320 378 332 419 q 308 261 308 338 q 299 64 308 142 q 264 -58 289 -14 q 195 -121 239 -103 q 83 -139 151 -139 z "},"[":{"ha":439,"x_min":139,"x_max":328,"o":"m 139 -139 l 139 1111 l 328 1111 l 328 1031 l 228 1031 l 228 -58 l 328 -58 l 328 -139 l 139 -139 z "},"]":{"ha":439,"x_min":111,"x_max":300,"o":"m 300 -139 l 111 -139 l 111 -58 l 211 -58 l 211 1031 l 111 1031 l 111 1111 l 300 1111 l 300 -139 z "},"‚":{"ha":274,"x_min":63,"x_max":238,"o":"m 63 -161 l 139 119 l 238 119 l 140 -161 l 63 -161 z "},"„":{"ha":385,"x_min":28,"x_max":385,"o":"m 210 -161 l 286 119 l 385 119 l 288 -161 l 210 -161 m 28 -161 l 104 119 l 203 119 l 106 -161 l 28 -161 z "},"“":{"ha":413,"x_min":28,"x_max":385,"o":"m 203 971 l 126 690 l 28 690 l 125 971 l 203 971 m 385 971 l 308 690 l 210 690 l 307 971 l 385 971 z "},"”":{"ha":413,"x_min":28,"x_max":385,"o":"m 210 692 l 286 972 l 385 972 l 288 692 l 210 692 m 28 692 l 104 972 l 203 972 l 106 692 l 28 692 z "},"‘":{"ha":231,"x_min":28,"x_max":203,"o":"m 203 972 l 126 692 l 28 692 l 125 972 l 203 972 z "},"’":{"ha":231,"x_min":28,"x_max":203,"o":"m 28 692 l 104 972 l 203 972 l 106 692 l 28 692 z "},"«":{"ha":722,"x_min":69,"x_max":639,"o":"m 315 414 l 533 694 l 639 694 l 421 414 l 315 414 m 533 133 l 315 414 l 421 414 l 639 133 l 533 133 m 69 414 l 288 694 l 393 694 l 175 414 l 69 414 m 288 133 l 69 414 l 175 414 l 393 133 l 288 133 z "},"»":{"ha":722,"x_min":83,"x_max":653,"o":"m 407 414 l 301 414 l 83 694 l 189 694 l 407 414 m 189 133 l 83 133 l 301 414 l 407 414 l 189 133 m 653 414 l 547 414 l 329 694 l 435 694 l 653 414 m 435 133 l 329 133 l 547 414 l 653 414 l 435 133 z "},"‹":{"ha":476,"x_min":69,"x_max":393,"o":"m 69 414 l 288 694 l 393 694 l 175 414 l 69 414 m 288 133 l 69 414 l 175 414 l 393 133 l 288 133 z "},"›":{"ha":476,"x_min":83,"x_max":407,"o":"m 407 414 l 301 414 l 83 694 l 189 694 l 407 414 m 189 133 l 83 133 l 301 414 l 407 414 l 189 133 z "},"\"":{"ha":394,"x_min":83,"x_max":311,"o":"m 90 681 l 83 994 l 169 994 l 163 681 l 90 681 m 232 681 l 225 994 l 311 994 l 304 681 l 232 681 z "},"'":{"ha":253,"x_min":83,"x_max":169,"o":"m 90 681 l 83 994 l 169 994 l 163 681 l 90 681 z "},"@":{"ha":1372,"x_min":69,"x_max":1303,"o":"m 714 -296 q 454 -249 572 -296 q 250 -115 336 -201 q 117 90 164 -28 q 69 350 69 208 q 117 609 69 492 q 250 813 164 726 q 454 946 336 899 q 714 993 572 993 q 951 946 843 993 q 1138 813 1058 899 q 1260 609 1217 726 q 1303 350 1303 492 l 1214 350 q 1177 576 1214 474 q 1074 755 1140 679 q 915 872 1007 831 q 714 913 824 913 q 490 872 592 913 q 315 755 389 831 q 199 576 240 679 q 158 350 158 474 q 199 123 158 226 q 315 -56 240 19 q 490 -174 389 -132 q 714 -215 592 -215 q 838 -201 771 -215 q 951 -165 904 -187 l 990 -231 q 854 -278 932 -260 q 714 -296 776 -296 m 646 21 q 481 63 553 21 q 369 181 410 106 q 329 351 329 256 q 369 522 329 449 q 481 638 410 596 q 646 681 553 681 q 802 638 735 681 q 908 522 869 596 q 947 351 947 449 q 908 181 947 256 q 802 63 869 106 q 646 21 735 21 m 660 101 q 785 133 731 101 q 869 222 839 165 q 900 351 900 279 q 869 481 900 425 q 785 568 839 536 q 660 600 731 600 q 535 568 589 600 q 449 481 481 536 q 418 351 418 425 q 449 222 418 279 q 535 133 481 165 q 660 101 589 101 m 1046 -21 q 964 -2 997 -21 q 914 53 931 17 q 897 139 897 89 l 989 139 q 1006 82 989 104 q 1049 60 1022 60 q 1135 97 1097 60 q 1193 200 1172 135 q 1214 350 1214 265 l 1303 350 q 1270 158 1303 242 q 1179 27 1238 75 q 1046 -21 1121 -21 m 897 139 l 897 665 l 989 665 l 989 139 l 897 139 z "},"&":{"ha":892,"x_min":83,"x_max":871,"o":"m 363 -21 q 219 11 282 -21 q 119 101 156 43 q 83 232 83 158 q 108 347 83 297 q 175 438 133 397 q 265 511 217 478 l 369 583 q 447 640 410 611 q 510 704 485 669 q 535 782 535 739 q 494 877 535 842 q 392 913 454 913 q 301 875 339 913 q 263 785 263 838 q 289 707 263 742 q 356 624 315 672 l 521 425 l 871 0 l 757 0 l 442 381 l 285 569 q 230 640 256 606 q 189 709 204 674 q 174 785 174 744 q 203 891 174 844 q 281 965 232 938 q 392 993 331 993 q 510 967 457 993 q 593 893 563 940 q 624 782 624 846 q 594 681 624 728 q 518 592 565 633 q 417 514 471 551 l 314 443 q 247 391 279 419 q 193 325 214 363 q 172 232 172 288 q 226 108 172 156 q 363 60 279 60 q 505 87 440 60 q 617 163 569 114 q 691 281 665 213 q 717 429 717 349 l 806 429 q 749 197 806 299 q 592 37 692 94 q 363 -21 493 -21 z "},"¶":{"ha":738,"x_min":42,"x_max":599,"o":"m 317 369 q 174 408 236 369 q 77 515 113 447 q 42 671 42 583 q 77 828 42 760 q 174 934 113 896 q 317 972 236 972 l 397 972 l 397 369 l 317 369 m 351 -117 l 351 972 l 440 972 l 440 -117 l 351 -117 m 510 -117 l 510 972 l 599 972 l 599 -117 l 510 -117 m 440 892 l 440 972 l 524 972 l 524 892 l 440 892 z "},"§":{"ha":817,"x_min":139,"x_max":678,"o":"m 419 -125 q 281 -101 339 -125 q 188 -40 224 -78 q 139 39 153 -3 l 224 69 q 288 -12 240 22 q 406 -46 336 -46 q 540 -12 492 -46 q 588 78 588 22 q 544 162 588 129 q 431 211 501 194 l 350 231 q 220 297 274 250 q 167 425 167 344 q 232 581 167 525 q 419 638 297 638 q 538 613 489 638 q 619 551 588 589 q 663 472 650 514 l 593 447 q 515 528 572 499 q 399 558 458 558 q 295 524 333 558 q 257 432 257 489 q 290 353 257 381 q 375 313 322 325 l 456 293 q 620 209 563 267 q 678 85 678 151 q 613 -64 678 -3 q 419 -125 547 -125 m 413 226 q 293 251 343 226 q 213 315 243 275 q 169 397 182 354 l 217 421 q 257 366 229 392 q 325 325 285 340 q 415 310 365 310 q 537 343 493 310 q 581 429 581 376 q 538 513 581 481 q 424 563 494 544 l 343 583 q 213 649 267 603 q 160 776 160 696 q 225 933 160 876 q 413 989 290 989 q 538 965 485 989 q 624 905 590 942 q 669 828 657 868 l 586 799 q 519 880 567 850 q 404 910 472 910 q 291 875 332 910 q 250 783 250 840 q 283 705 250 732 q 368 665 315 678 l 449 646 q 614 561 557 619 q 671 436 671 503 q 606 288 671 349 q 413 226 540 226 z "},"©":{"ha":1143,"x_min":69,"x_max":1074,"o":"m 572 -15 q 377 24 468 -15 q 217 131 286 63 q 108 291 147 200 q 69 486 69 382 q 108 681 69 590 q 217 842 147 772 q 377 950 286 911 q 572 989 468 989 q 767 950 676 989 q 927 842 858 911 q 1035 681 996 772 q 1074 486 1074 590 q 1035 291 1074 382 q 927 131 996 200 q 767 24 858 63 q 572 -15 676 -15 m 569 211 q 436 247 494 211 q 344 344 378 282 q 311 486 311 406 q 344 628 311 567 q 435 726 378 690 q 568 761 493 761 q 697 725 636 761 q 786 632 758 689 l 804 594 l 729 565 l 711 596 q 653 657 693 633 q 568 681 613 681 q 443 626 492 681 q 394 486 394 572 q 444 347 394 401 q 569 292 493 292 q 654 318 614 292 q 715 385 694 344 l 729 415 l 808 386 l 790 349 q 698 250 760 289 q 569 211 636 211 m 572 63 q 787 117 693 63 q 934 267 881 171 q 988 486 988 363 q 933 707 988 611 q 785 857 879 803 q 572 911 692 911 q 358 857 453 911 q 210 707 264 803 q 156 486 156 611 q 210 267 156 363 q 358 117 264 171 q 572 63 453 63 z "},"®":{"ha":869,"x_min":63,"x_max":807,"o":"m 435 244 q 290 274 358 244 q 172 353 222 303 q 92 472 121 404 q 63 617 63 540 q 92 762 63 694 q 172 880 121 829 q 290 960 222 931 q 435 989 358 989 q 580 960 513 989 q 698 880 647 931 q 778 762 749 829 q 807 617 807 694 q 778 472 807 540 q 698 353 749 404 q 580 274 647 303 q 435 244 513 244 m 435 317 q 589 355 522 317 q 694 461 656 393 q 732 617 732 529 q 694 773 732 706 q 589 878 656 840 q 435 917 522 917 q 281 878 347 917 q 176 773 214 840 q 138 617 138 706 q 176 461 138 529 q 281 355 214 393 q 435 317 347 317 m 296 418 l 296 824 l 438 824 q 538 788 499 824 q 578 696 578 753 q 556 626 578 657 q 497 581 533 596 l 594 418 l 521 418 l 435 568 l 361 568 l 361 418 l 296 418 m 361 629 l 442 629 q 491 648 471 629 q 511 696 511 667 q 490 745 511 726 q 435 764 469 764 l 361 764 l 361 629 z "},"™":{"ha":1178,"x_min":10,"x_max":1106,"o":"m 824 544 l 629 831 l 629 389 l 542 389 l 542 972 l 635 972 l 825 692 l 1014 972 l 1106 972 l 1106 389 l 1019 389 l 1019 833 l 824 544 m 192 389 l 192 893 l 10 893 l 10 972 l 460 972 l 460 893 l 278 893 l 278 389 l 192 389 z "},"°":{"ha":507,"x_min":69,"x_max":438,"o":"m 253 625 q 161 651 203 625 q 94 719 119 676 q 69 813 69 763 q 94 903 69 863 q 161 969 119 944 q 253 993 203 993 q 345 969 303 993 q 413 903 388 944 q 438 813 438 863 q 413 719 438 763 q 345 651 388 676 q 253 625 303 625 m 253 701 q 324 735 294 701 q 354 813 354 768 q 324 886 354 856 q 253 917 294 917 q 183 886 213 917 q 153 813 153 856 q 183 735 153 768 q 253 701 213 701 z "},"|":{"ha":358,"x_min":139,"x_max":219,"o":"m 139 -306 l 139 1097 l 219 1097 l 219 -306 l 139 -306 z "},"¦":{"ha":358,"x_min":139,"x_max":219,"o":"m 139 486 l 139 1097 l 219 1097 l 219 486 l 139 486 m 139 -306 l 139 306 l 219 306 l 219 -306 l 139 -306 z "},"†":{"ha":664,"x_min":33,"x_max":629,"o":"m 289 0 l 296 656 l 289 972 l 375 972 l 368 656 l 375 0 l 289 0 m 33 619 l 33 697 l 332 690 l 629 697 l 629 619 l 332 626 l 33 619 z "},"‡":{"ha":664,"x_min":35,"x_max":629,"o":"m 289 -278 l 296 33 l 289 347 l 296 656 l 289 972 l 375 972 l 368 656 l 375 347 l 368 33 l 375 -278 l 289 -278 m 35 -4 l 35 74 l 333 67 l 629 74 l 629 -4 l 333 3 l 35 -4 m 35 619 l 35 697 l 332 690 l 629 697 l 629 619 l 332 626 l 35 619 z "},"¢":{"ha":742,"x_min":63,"x_max":700,"o":"m 361 0 l 361 972 l 438 972 l 438 0 l 361 0 m 404 136 q 227 183 304 136 q 106 311 150 229 q 63 500 63 393 q 106 689 63 607 q 226 817 149 771 q 401 864 303 864 q 576 820 500 864 q 694 699 653 776 l 622 660 q 533 753 590 719 q 401 788 475 788 q 269 751 326 788 q 178 649 211 714 q 146 500 146 585 q 179 351 146 415 q 271 249 213 286 q 404 213 329 213 q 538 251 479 213 q 626 357 596 289 l 700 318 q 581 185 658 233 q 404 136 504 136 z "},"¤":{"ha":747,"x_min":111,"x_max":636,"o":"m 378 263 q 265 294 315 263 q 184 376 214 325 q 154 486 154 426 q 184 594 154 544 q 265 673 214 643 q 378 703 317 703 q 491 673 440 703 q 572 594 542 643 q 603 486 603 544 q 572 376 603 426 q 491 294 542 325 q 378 263 440 263 m 165 225 l 111 279 l 210 378 l 267 325 l 165 225 m 378 338 q 481 378 443 338 q 519 486 519 418 q 481 590 519 551 q 378 628 443 628 q 276 590 314 628 q 238 486 238 551 q 276 378 238 418 q 378 338 314 338 m 211 596 l 111 694 l 165 750 l 267 650 l 211 596 m 581 225 l 500 308 l 556 363 l 636 279 l 581 225 m 544 604 l 488 657 l 581 750 l 636 694 l 544 604 z "},"$":{"ha":788,"x_min":76,"x_max":711,"o":"m 408 32 q 242 59 310 32 q 135 131 175 86 q 76 224 94 175 l 154 254 q 238 155 176 197 q 388 113 299 113 q 560 156 499 113 q 622 268 622 199 q 565 376 622 335 q 417 440 507 418 l 329 463 q 222 507 271 478 q 143 581 172 536 q 114 692 114 626 q 190 874 114 808 q 410 940 265 940 q 558 911 496 940 q 658 838 619 882 q 708 751 696 794 l 629 719 q 542 822 603 785 q 396 860 481 860 q 255 817 307 860 q 203 701 203 774 q 243 599 203 633 q 349 549 283 564 l 439 528 q 641 426 571 497 q 711 278 711 356 q 677 156 711 211 q 576 66 643 100 q 408 32 510 32 m 368 -143 l 368 1083 l 450 1083 l 450 -143 l 368 -143 z "},"€":{"ha":901,"x_min":28,"x_max":846,"o":"m 521 -17 q 324 48 410 -17 q 189 226 238 113 q 140 486 140 339 q 188 747 140 633 q 322 924 236 860 q 517 989 407 989 q 647 959 583 989 q 762 876 711 929 q 842 753 813 822 l 767 707 q 705 812 744 767 q 616 883 665 857 q 517 908 567 908 q 368 854 433 908 q 266 705 303 800 q 229 486 229 610 q 266 267 229 363 q 369 117 303 171 q 521 64 435 64 q 621 92 572 64 q 709 169 669 119 q 771 282 749 218 l 846 236 q 765 105 817 163 q 651 15 714 47 q 521 -17 588 -17 m 28 358 l 28 431 l 624 431 l 624 358 l 28 358 m 28 542 l 28 614 l 624 614 l 624 542 l 28 542 z "},"£":{"ha":790,"x_min":69,"x_max":721,"o":"m 179 167 l 179 721 q 214 860 179 800 q 310 955 249 921 q 451 989 372 989 q 591 956 531 989 q 686 860 651 922 q 721 710 721 799 l 633 724 q 583 857 633 806 q 451 908 532 908 q 319 856 371 908 q 268 721 268 803 l 268 188 l 179 167 m 117 0 l 108 81 q 158 106 138 81 q 179 167 179 131 l 268 188 q 248 87 268 129 q 193 22 228 44 q 117 0 158 0 m 69 0 l 69 81 l 721 81 l 721 0 l 69 0 m 69 404 l 69 486 l 544 486 l 544 404 l 69 404 z "},"¥":{"ha":725,"x_min":14,"x_max":711,"o":"m 407 411 l 336 456 l 613 989 l 711 989 l 407 411 m 318 0 l 318 467 l 407 467 l 407 0 l 318 0 m 126 269 l 126 342 l 599 342 l 599 269 l 126 269 m 126 411 l 126 483 l 599 483 l 599 411 l 126 411 m 318 411 l 14 989 l 113 989 l 389 456 l 318 411 z "},"∕":{"ha":861,"x_min":49,"x_max":813,"o":"m 49 0 l 718 972 l 813 972 l 143 0 l 49 0 z "},"+":{"ha":861,"x_min":118,"x_max":743,"o":"m 392 101 l 392 726 l 471 726 l 471 101 l 392 101 m 118 374 l 118 453 l 743 453 l 743 374 l 118 374 z "},"−":{"ha":861,"x_min":167,"x_max":694,"o":"m 167 374 l 167 453 l 694 453 l 694 374 l 167 374 z "},"×":{"ha":861,"x_min":168,"x_max":693,"o":"m 638 151 l 168 621 l 222 676 l 693 206 l 638 151 m 222 151 l 168 206 l 638 676 l 693 621 l 222 151 z "},"÷":{"ha":861,"x_min":167,"x_max":694,"o":"m 167 374 l 167 453 l 694 453 l 694 374 l 167 374 m 431 151 q 392 168 408 151 q 375 207 375 185 q 392 247 375 231 q 431 263 408 263 q 470 247 454 263 q 486 207 486 231 q 470 168 486 185 q 431 151 454 151 m 431 564 q 392 581 408 564 q 375 619 375 597 q 392 659 375 643 q 431 675 408 675 q 470 659 454 675 q 486 619 486 643 q 470 581 486 597 q 431 564 454 564 z "},"=":{"ha":861,"x_min":153,"x_max":708,"o":"m 153 513 l 153 592 l 708 592 l 708 513 l 153 513 m 153 235 l 153 314 l 708 314 l 708 235 l 153 235 z "},"≠":{"ha":861,"x_min":153,"x_max":708,"o":"m 229 97 l 571 808 l 660 808 l 318 97 l 229 97 m 153 554 l 153 633 l 708 633 l 708 554 l 153 554 m 153 276 l 153 356 l 708 356 l 708 276 l 153 276 z "},">":{"ha":861,"x_min":208,"x_max":668,"o":"m 208 149 l 208 235 l 668 461 l 668 369 l 208 149 m 668 369 l 208 592 l 208 679 l 668 461 l 668 369 z "},"<":{"ha":861,"x_min":193,"x_max":653,"o":"m 653 681 l 653 594 l 193 368 l 193 460 l 653 681 m 193 460 l 653 238 l 653 150 l 193 368 l 193 460 z "},"≥":{"ha":861,"x_min":208,"x_max":668,"o":"m 208 0 l 208 71 l 668 71 l 668 0 l 208 0 m 208 149 l 208 235 l 668 461 l 668 369 l 208 149 m 668 369 l 208 592 l 208 679 l 668 461 l 668 369 z "},"≤":{"ha":861,"x_min":193,"x_max":653,"o":"m 653 0 l 193 0 l 193 71 l 653 71 l 653 0 m 653 149 l 193 369 l 193 461 l 653 235 l 653 149 m 193 369 l 193 461 l 653 679 l 653 592 l 193 369 z "},"±":{"ha":861,"x_min":118,"x_max":743,"o":"m 118 436 l 118 515 l 743 515 l 743 436 l 118 436 m 118 0 l 118 71 l 743 71 l 743 0 l 118 0 m 392 193 l 392 760 l 471 760 l 471 193 l 392 193 z "},"¬":{"ha":861,"x_min":181,"x_max":681,"o":"m 181 415 l 181 494 l 681 494 l 681 415 l 181 415 m 601 279 l 601 494 l 681 494 l 681 279 l 601 279 z "},"~":{"ha":735,"x_min":83,"x_max":651,"o":"m 488 329 q 428 339 454 329 q 383 365 403 349 q 343 403 363 382 q 288 456 310 440 q 246 471 265 471 q 189 443 210 471 q 158 368 168 415 l 83 368 q 108 458 88 417 q 163 525 128 500 q 246 550 199 550 q 329 527 292 550 q 394 474 367 504 q 438 431 414 454 q 488 408 463 408 q 546 437 525 408 q 575 511 567 465 l 651 511 q 625 420 646 461 q 570 354 604 379 q 488 329 536 329 z "},"^":{"ha":749,"x_min":111,"x_max":638,"o":"m 551 518 l 326 972 l 419 972 l 638 518 l 551 518 m 111 518 l 326 972 l 418 972 l 199 518 l 111 518 z "},"µ":{"ha":769,"x_min":83,"x_max":665,"o":"m 358 -17 q 178 61 246 -17 q 111 297 110 139 l 167 339 q 194 164 167 224 q 268 83 221 104 q 372 61 315 61 q 526 134 471 61 q 582 338 582 207 l 633 338 q 563 77 633 171 q 358 -17 493 -17 m 83 -278 l 83 694 l 167 694 l 167 103 l 167 100 l 167 -278 l 83 -278 m 588 0 l 582 128 l 582 694 l 665 694 l 665 0 l 588 0 z "},"%":{"ha":1076,"x_min":69,"x_max":1007,"o":"m 139 0 l 829 972 l 938 972 l 243 0 l 139 0 m 794 -22 q 684 7 732 -22 q 609 88 636 36 q 582 204 582 139 q 609 322 582 271 q 684 401 636 372 q 794 431 732 431 q 905 401 857 431 q 980 322 953 372 q 1007 204 1007 271 q 980 88 1007 139 q 905 7 953 36 q 794 -22 857 -22 m 794 53 q 888 96 851 53 q 924 204 924 139 q 888 313 924 269 q 794 356 851 356 q 702 313 739 356 q 665 204 665 269 q 702 96 665 139 q 794 53 739 53 m 282 542 q 172 571 219 542 q 97 651 124 600 q 69 768 69 703 q 97 885 69 835 q 172 965 124 936 q 282 994 219 994 q 392 965 344 994 q 467 885 440 936 q 494 768 494 835 q 467 651 494 703 q 392 571 440 600 q 282 542 344 542 m 282 617 q 375 660 339 617 q 411 768 411 703 q 375 876 411 833 q 282 918 339 918 q 190 876 226 918 q 153 768 153 833 q 190 660 153 703 q 282 617 226 617 z "},"↑":{"ha":954,"x_min":125,"x_max":829,"o":"m 517 906 l 186 514 l 125 561 l 478 989 l 517 906 m 517 0 l 438 0 l 438 906 l 517 906 l 517 0 m 829 561 l 768 514 l 438 906 l 478 989 l 829 561 z "},"↗":{"ha":1006,"x_min":139,"x_max":867,"o":"m 194 246 l 139 301 l 779 942 l 835 886 l 194 246 m 318 889 l 318 972 l 867 972 l 828 889 l 318 889 m 783 424 l 783 935 l 867 972 l 867 424 l 783 424 z "},"→":{"ha":1028,"x_min":97,"x_max":944,"o":"m 861 374 l 469 704 l 517 765 l 944 413 l 861 374 m 97 374 l 97 453 l 861 453 l 861 374 l 97 374 m 517 61 l 469 122 l 861 453 l 944 413 l 517 61 z "},"↘":{"ha":1004,"x_min":139,"x_max":865,"o":"m 139 672 l 194 728 l 835 88 l 779 32 l 139 672 m 782 549 l 865 549 l 865 0 l 782 39 l 782 549 m 317 83 l 828 83 l 865 0 l 317 0 l 317 83 z "},"↓":{"ha":954,"x_min":125,"x_max":829,"o":"m 517 67 l 478 -17 l 125 411 l 186 458 l 517 67 m 517 972 l 517 67 l 438 67 l 438 972 l 517 972 m 829 411 l 478 -17 l 438 67 l 768 458 l 829 411 z "},"↙":{"ha":1006,"x_min":139,"x_max":867,"o":"m 811 726 l 867 671 l 226 31 l 171 86 l 811 726 m 688 83 l 688 0 l 139 0 l 178 83 l 688 83 m 222 549 l 222 38 l 139 0 l 139 549 l 222 549 z "},"←":{"ha":1028,"x_min":83,"x_max":931,"o":"m 167 375 l 83 414 l 511 767 l 558 706 l 167 375 m 931 375 l 167 375 l 167 454 l 931 454 l 931 375 m 511 63 l 83 414 l 167 454 l 558 124 l 511 63 z "},"↖":{"ha":1004,"x_min":139,"x_max":865,"o":"m 865 317 l 810 261 l 169 901 l 225 957 l 865 317 m 222 440 l 139 440 l 139 989 l 222 950 l 222 440 m 688 906 l 176 906 l 139 989 l 688 989 l 688 906 z "},"̈":{"ha":0,"x_min":-36,"x_max":411,"o":"m 356 875 q 317 892 333 875 q 300 931 300 908 q 317 970 300 954 q 356 986 333 986 q 395 970 379 986 q 411 931 411 954 q 395 892 411 908 q 356 875 379 875 m 19 875 q -19 892 -3 875 q -36 931 -36 908 q -19 970 -36 954 q 19 986 -3 986 q 59 970 43 986 q 75 931 75 954 q 59 892 75 908 q 19 875 43 875 z "},"̇":{"ha":0,"x_min":0,"x_max":111,"o":"m 56 875 q 17 892 33 875 q 0 931 0 908 q 17 970 0 954 q 56 986 33 986 q 95 970 79 986 q 111 931 111 954 q 95 892 111 908 q 56 875 79 875 z "},"̀":{"ha":0,"x_min":203,"x_max":489,"o":"m 383 797 l 203 974 l 321 974 l 489 797 l 383 797 z "},"́":{"ha":0,"x_min":315,"x_max":599,"o":"m 315 797 l 481 972 l 599 972 l 421 797 l 315 797 z "},"̋":{"ha":0,"x_min":0,"x_max":497,"o":"m 236 797 l 374 972 l 497 972 l 347 797 l 236 797 m 0 797 l 138 972 l 261 972 l 111 797 l 0 797 z "},"̂":{"ha":0,"x_min":0,"x_max":451,"o":"m 346 814 l 168 988 l 168 989 l 285 989 l 451 814 l 346 814 m 0 814 l 167 989 l 283 989 l 283 988 l 106 814 l 0 814 z "},"̌":{"ha":0,"x_min":0,"x_max":451,"o":"m 174 797 l 174 799 l 343 972 l 451 972 l 285 797 l 174 797 m 167 797 l 0 972 l 108 972 l 278 799 l 278 797 l 167 797 z "},"̆":{"ha":0,"x_min":0,"x_max":451,"o":"m 226 790 q 110 813 161 790 q 29 878 58 836 q 0 972 0 919 l 83 972 q 124 895 83 925 q 226 865 164 865 q 328 895 289 865 q 368 972 368 925 l 451 972 q 423 878 451 919 q 344 813 394 836 q 226 790 293 790 z "},"̊":{"ha":0,"x_min":69,"x_max":313,"o":"m 192 783 q 131 799 158 783 q 86 842 103 815 q 69 901 69 869 q 86 962 69 935 q 131 1005 103 989 q 192 1021 158 1021 q 253 1005 225 1021 q 297 962 281 989 q 313 901 313 935 q 297 842 313 869 q 253 799 281 815 q 192 783 225 783 m 192 847 q 243 901 243 847 q 192 957 243 957 q 139 901 139 957 q 192 847 139 847 z "},"̃":{"ha":0,"x_min":163,"x_max":586,"o":"m 457 794 q 395 810 419 794 q 355 844 371 825 q 325 879 339 864 q 294 894 311 894 q 258 883 269 894 q 239 843 246 871 l 163 843 q 182 903 165 874 q 228 953 199 933 q 294 972 257 972 q 351 957 329 972 q 390 922 374 942 q 422 888 407 903 q 457 872 438 872 q 494 885 482 872 q 510 925 506 899 l 586 925 q 547 836 581 878 q 457 794 514 794 z "},"̄":{"ha":0,"x_min":0,"x_max":417,"o":"m 0 806 l 0 885 l 417 885 l 417 806 l 0 806 z "},"̒":{"ha":0,"x_min":0,"x_max":175,"o":"m 175 990 l 99 811 l 0 811 l 97 990 l 175 990 z "},"̦":{"ha":0,"x_min":13,"x_max":175,"o":"m 13 -278 l 76 -89 l 175 -89 l 90 -278 l 13 -278 z "},"̧":{"ha":0,"x_min":243,"x_max":501,"o":"m 375 -292 q 319 -285 350 -292 q 243 -256 289 -279 l 269 -196 q 317 -217 292 -207 q 364 -228 342 -228 q 410 -217 389 -228 q 432 -174 432 -207 q 405 -116 432 -135 q 321 -87 378 -97 l 361 8 l 424 -11 l 408 -46 q 481 -98 461 -65 q 501 -167 501 -131 q 473 -255 501 -218 q 375 -292 444 -292 z "},"̨":{"ha":0,"x_min":56,"x_max":296,"o":"m 203 -294 q 124 -281 157 -294 q 73 -240 90 -267 q 56 -172 56 -212 q 101 -72 56 -119 q 203 17 146 -25 l 272 0 q 181 -78 224 -36 q 139 -172 139 -121 q 153 -206 139 -194 q 194 -218 168 -218 q 242 -212 221 -218 q 269 -203 263 -206 l 296 -267 q 254 -287 278 -279 q 203 -294 231 -294 z "},"¨":{"ha":586,"x_min":69,"x_max":517,"o":"m 461 875 q 422 892 439 875 q 406 931 406 908 q 422 970 406 954 q 461 986 439 986 q 501 970 485 986 q 517 931 517 954 q 501 892 517 908 q 461 875 485 875 m 125 875 q 86 892 103 875 q 69 931 69 908 q 86 970 69 954 q 125 986 103 986 q 165 970 149 986 q 181 931 181 954 q 165 892 181 908 q 125 875 149 875 z "},"˙":{"ha":111,"x_min":0,"x_max":111,"o":"m 56 875 q 17 892 33 875 q 0 931 0 908 q 17 970 0 954 q 56 986 33 986 q 95 970 79 986 q 111 931 111 954 q 95 892 111 908 q 56 875 79 875 z "},"`":{"ha":285,"x_min":0,"x_max":286,"o":"m 181 797 l 0 974 l 118 974 l 286 797 l 181 797 z "},"´":{"ha":285,"x_min":1,"x_max":285,"o":"m 1 797 l 167 972 l 285 972 l 107 797 l 1 797 z "},"˝":{"ha":511,"x_min":14,"x_max":511,"o":"m 250 797 l 388 972 l 511 972 l 361 797 l 250 797 m 14 797 l 151 972 l 275 972 l 125 797 l 14 797 z "},"ˆ":{"ha":479,"x_min":14,"x_max":465,"o":"m 360 814 l 182 988 l 182 989 l 299 989 l 465 814 l 360 814 m 14 814 l 181 989 l 297 989 l 297 988 l 119 814 l 14 814 z "},"ˇ":{"ha":479,"x_min":14,"x_max":465,"o":"m 188 797 l 188 799 l 357 972 l 465 972 l 299 797 l 188 797 m 181 797 l 14 972 l 122 972 l 292 799 l 292 797 l 181 797 z "},"˘":{"ha":451,"x_min":0,"x_max":451,"o":"m 226 790 q 110 813 161 790 q 29 878 58 836 q 0 972 0 919 l 83 972 q 124 895 83 925 q 226 865 164 865 q 328 895 289 865 q 368 972 368 925 l 451 972 q 423 878 451 919 q 344 813 394 836 q 226 790 293 790 z "},"˚":{"ha":382,"x_min":69,"x_max":313,"o":"m 192 783 q 131 799 158 783 q 86 842 103 815 q 69 901 69 869 q 86 962 69 935 q 131 1005 103 989 q 192 1021 158 1021 q 253 1005 225 1021 q 297 962 281 989 q 313 901 313 935 q 297 842 313 869 q 253 799 281 815 q 192 783 225 783 m 192 847 q 243 901 243 847 q 192 957 243 957 q 139 901 139 957 q 192 847 139 847 z "},"˜":{"ha":451,"x_min":14,"x_max":438,"o":"m 308 794 q 247 810 271 794 q 206 844 222 825 q 176 879 190 864 q 146 894 163 894 q 109 883 121 894 q 90 843 97 871 l 14 843 q 33 903 17 874 q 79 953 50 933 q 146 972 108 972 q 203 957 181 972 q 242 922 225 942 q 274 888 258 903 q 308 872 289 872 q 345 885 333 872 q 361 925 357 899 l 438 925 q 399 836 432 878 q 308 794 365 794 z "},"¯":{"ha":417,"x_min":0,"x_max":417,"o":"m 0 806 l 0 885 l 417 885 l 417 806 l 0 806 z "},"¸":{"ha":286,"x_min":14,"x_max":272,"o":"m 146 -292 q 90 -285 121 -292 q 14 -256 60 -279 l 40 -196 q 88 -217 63 -207 q 135 -228 113 -228 q 181 -217 160 -228 q 203 -174 203 -207 q 176 -116 203 -135 q 92 -87 149 -97 l 132 8 l 194 -11 l 179 -46 q 252 -98 232 -65 q 272 -167 272 -131 q 244 -255 272 -218 q 146 -292 215 -292 z "},"˛":{"ha":339,"x_min":56,"x_max":296,"o":"m 203 -294 q 124 -281 157 -294 q 73 -240 90 -267 q 56 -172 56 -212 q 101 -72 56 -119 q 203 17 146 -25 l 272 0 q 181 -78 224 -36 q 139 -172 139 -121 q 153 -206 139 -194 q 194 -218 168 -218 q 242 -212 221 -218 q 269 -203 263 -206 l 296 -267 q 254 -287 278 -279 q 203 -294 231 -294 z "}}}
